<svg width="756" height="787" viewBox="0 0 756 787" fill="none" xmlns="http://www.w3.org/2000/svg">
<g opacity="0.9" filter="url(#filter0_f_249_4238)">
<path fill-rule="evenodd" clip-rule="evenodd" d="M300.121 329.801C316.752 307.135 332.34 284.947 357.533 272.481C388.533 257.141 423.596 239.413 455.405 252.964C488.47 267.049 504.215 304.176 513.479 338.912C522.339 372.134 519.499 406.722 504.691 437.762C489.191 470.252 463.796 495.841 431.268 511.243C392.492 529.602 347.409 549.457 308.974 530.429C270.136 511.203 250.579 464.159 248.668 420.848C247.071 384.649 278.683 359.018 300.121 329.801Z" fill="#C4C4C4"/>
<path fill-rule="evenodd" clip-rule="evenodd" d="M300.121 329.801C316.752 307.135 332.34 284.947 357.533 272.481C388.533 257.141 423.596 239.413 455.405 252.964C488.47 267.049 504.215 304.176 513.479 338.912C522.339 372.134 519.499 406.722 504.691 437.762C489.191 470.252 463.796 495.841 431.268 511.243C392.492 529.602 347.409 549.457 308.974 530.429C270.136 511.203 250.579 464.159 248.668 420.848C247.071 384.649 278.683 359.018 300.121 329.801Z" fill="url(#paint0_radial_249_4238)"/>
</g>
<defs>
<filter id="filter0_f_249_4238" x="0.609863" y="0.139587" width="765.886" height="786.019" filterUnits="userSpaceOnUse" color-interpolation-filters="sRGB">
<feFlood flood-opacity="0" result="BackgroundImageFix"/>
<feBlend mode="normal" in="SourceGraphic" in2="BackgroundImageFix" result="shape"/>
<feGaussianBlur stdDeviation="124" result="effect1_foregroundBlur_249_4238"/>
</filter>
<radialGradient id="paint0_radial_249_4238" cx="0" cy="0" r="1" gradientUnits="userSpaceOnUse" gradientTransform="translate(322.28 429.773) rotate(-14.0348) scale(137.469 145.91)">
<stop stop-color="#DBBFFF"/>
<stop offset="1" stop-color="#AEFCFC"/>
</radialGradient>
</defs>
</svg>
