<svg width="693" height="506" viewBox="0 0 693 506" fill="none" xmlns="http://www.w3.org/2000/svg">
<g opacity="0.5">
<path fill-rule="evenodd" clip-rule="evenodd" d="M327.681 59.8227C327.681 60.0644 327.617 60.3007 327.497 60.5017C327.376 60.7027 327.205 60.8594 327.004 60.9519C326.803 61.0445 326.583 61.0687 326.37 61.0215C326.157 60.9744 325.961 60.858 325.808 60.687C325.654 60.5161 325.55 60.2983 325.507 60.0612C325.465 59.8241 325.487 59.5783 325.57 59.355C325.653 59.1317 325.794 58.9408 325.974 58.8065C326.155 58.6722 326.367 58.6006 326.584 58.6006C326.875 58.6006 327.154 58.7294 327.36 58.9585C327.566 59.1877 327.681 59.4986 327.681 59.8227Z" fill="#F9FBE1"/>
<path fill-rule="evenodd" clip-rule="evenodd" d="M306.378 191.293C306.378 191.535 306.314 191.771 306.193 191.972C306.072 192.173 305.901 192.33 305.7 192.422C305.5 192.515 305.279 192.539 305.066 192.492C304.853 192.445 304.658 192.328 304.504 192.157C304.351 191.986 304.246 191.769 304.204 191.531C304.161 191.294 304.183 191.049 304.266 190.825C304.349 190.602 304.49 190.411 304.67 190.277C304.851 190.142 305.063 190.071 305.28 190.071C305.425 190.071 305.567 190.102 305.7 190.164C305.834 190.225 305.955 190.315 306.056 190.429C306.158 190.542 306.239 190.677 306.294 190.825C306.35 190.974 306.378 191.132 306.378 191.293Z" fill="#F9FBE1"/>
<path fill-rule="evenodd" clip-rule="evenodd" d="M463.694 256.594C463.694 256.836 463.63 257.072 463.509 257.273C463.389 257.474 463.217 257.63 463.017 257.723C462.816 257.815 462.595 257.839 462.382 257.792C462.169 257.745 461.974 257.629 461.82 257.458C461.667 257.287 461.562 257.069 461.52 256.832C461.478 256.595 461.5 256.349 461.583 256.126C461.666 255.903 461.806 255.712 461.987 255.578C462.167 255.443 462.38 255.372 462.597 255.372C462.741 255.372 462.884 255.403 463.017 255.465C463.15 255.526 463.271 255.616 463.373 255.73C463.475 255.843 463.556 255.978 463.611 256.126C463.666 256.274 463.694 256.433 463.694 256.594Z" fill="#F9FBE1"/>
<path fill-rule="evenodd" clip-rule="evenodd" d="M494.754 406.377C494.754 406.619 494.69 406.855 494.569 407.056C494.448 407.257 494.277 407.414 494.076 407.507C493.876 407.599 493.655 407.623 493.442 407.576C493.229 407.529 493.034 407.413 492.88 407.242C492.727 407.071 492.622 406.853 492.58 406.616C492.537 406.379 492.559 406.133 492.642 405.91C492.725 405.686 492.866 405.495 493.047 405.361C493.227 405.227 493.439 405.155 493.656 405.155C493.948 405.155 494.227 405.284 494.432 405.513C494.638 405.742 494.754 406.053 494.754 406.377Z" fill="#F9FBE1"/>
<path fill-rule="evenodd" clip-rule="evenodd" d="M394.591 206.552C394.591 206.793 394.526 207.03 394.406 207.231C394.285 207.432 394.114 207.588 393.913 207.681C393.713 207.773 393.492 207.797 393.279 207.75C393.066 207.703 392.87 207.587 392.717 207.416C392.564 207.245 392.459 207.027 392.417 206.79C392.374 206.553 392.396 206.307 392.479 206.084C392.562 205.861 392.703 205.67 392.883 205.536C393.064 205.401 393.276 205.33 393.493 205.33C393.637 205.33 393.78 205.361 393.913 205.423C394.046 205.484 394.167 205.574 394.269 205.687C394.371 205.801 394.452 205.936 394.507 206.084C394.562 206.232 394.591 206.391 394.591 206.552Z" fill="#F9FBE1"/>
<path fill-rule="evenodd" clip-rule="evenodd" d="M342.695 178.691C342.695 178.933 342.63 179.169 342.51 179.37C342.389 179.571 342.218 179.728 342.017 179.82C341.816 179.913 341.596 179.937 341.383 179.89C341.17 179.843 340.974 179.726 340.821 179.555C340.667 179.385 340.563 179.167 340.52 178.93C340.478 178.693 340.499 178.447 340.583 178.224C340.666 178 340.806 177.809 340.987 177.675C341.167 177.541 341.38 177.469 341.597 177.469C341.888 177.469 342.167 177.598 342.373 177.827C342.579 178.056 342.695 178.367 342.695 178.691Z" fill="#F9FBE1"/>
<path fill-rule="evenodd" clip-rule="evenodd" d="M278.233 122.853C278.233 123.095 278.169 123.331 278.048 123.532C277.928 123.733 277.757 123.89 277.556 123.982C277.355 124.075 277.135 124.099 276.922 124.052C276.709 124.005 276.513 123.888 276.36 123.717C276.206 123.546 276.102 123.329 276.059 123.092C276.017 122.855 276.039 122.609 276.122 122.385C276.205 122.162 276.345 121.971 276.526 121.837C276.706 121.703 276.919 121.631 277.136 121.631C277.28 121.631 277.423 121.662 277.556 121.724C277.689 121.785 277.81 121.875 277.912 121.989C278.014 122.102 278.095 122.237 278.15 122.385C278.205 122.533 278.233 122.692 278.233 122.853Z" fill="#F9FBE1"/>
<path d="M210.76 32.6687C211.366 32.6687 211.857 32.1216 211.857 31.4467C211.857 30.7717 211.366 30.2246 210.76 30.2246C210.154 30.2246 209.662 30.7717 209.662 31.4467C209.662 32.1216 210.154 32.6687 210.76 32.6687Z" fill="#F9FBE1"/>
<path fill-rule="evenodd" clip-rule="evenodd" d="M411.358 205.333C411.358 205.575 411.294 205.811 411.173 206.012C411.052 206.213 410.881 206.37 410.681 206.462C410.48 206.555 410.259 206.579 410.046 206.532C409.833 206.484 409.638 206.368 409.485 206.197C409.331 206.026 409.226 205.808 409.184 205.571C409.142 205.334 409.164 205.089 409.247 204.865C409.33 204.642 409.47 204.451 409.651 204.317C409.831 204.183 410.044 204.111 410.261 204.111C410.405 204.111 410.548 204.142 410.681 204.204C410.814 204.265 410.935 204.355 411.037 204.469C411.139 204.582 411.22 204.717 411.275 204.865C411.33 205.014 411.358 205.173 411.358 205.333Z" fill="#F9FBE1"/>
<path fill-rule="evenodd" clip-rule="evenodd" d="M199.517 489.615C199.517 489.856 199.452 490.093 199.332 490.294C199.211 490.495 199.04 490.651 198.839 490.744C198.639 490.836 198.418 490.861 198.205 490.813C197.992 490.766 197.796 490.65 197.643 490.479C197.489 490.308 197.385 490.09 197.342 489.853C197.3 489.616 197.322 489.37 197.405 489.147C197.488 488.924 197.629 488.733 197.809 488.598C197.99 488.464 198.202 488.393 198.419 488.393C198.563 488.393 198.706 488.424 198.839 488.486C198.972 488.547 199.093 488.637 199.195 488.75C199.297 488.864 199.378 488.999 199.433 489.147C199.488 489.295 199.517 489.454 199.517 489.615Z" fill="#F9FBE1"/>
<path fill-rule="evenodd" clip-rule="evenodd" d="M459.77 6.20156C459.77 6.52571 459.654 6.83658 459.448 7.06581C459.242 7.29503 458.963 7.42384 458.672 7.4239C458.381 7.42385 458.102 7.29505 457.896 7.06583C457.69 6.83661 457.574 6.52573 457.574 6.20156C457.574 5.87742 457.69 5.56658 457.896 5.3374C458.102 5.10822 458.381 4.97948 458.672 4.97949C458.963 4.97949 459.242 5.10825 459.448 5.33743C459.654 5.56661 459.77 5.87745 459.77 6.20156Z" fill="#F9FBE1"/>
<path fill-rule="evenodd" clip-rule="evenodd" d="M450.309 168.258C450.309 168.5 450.244 168.736 450.124 168.937C450.003 169.138 449.831 169.295 449.631 169.387C449.43 169.48 449.21 169.504 448.997 169.457C448.784 169.409 448.588 169.293 448.435 169.122C448.281 168.951 448.177 168.733 448.134 168.496C448.092 168.259 448.114 168.014 448.197 167.79C448.28 167.567 448.421 167.376 448.601 167.242C448.782 167.107 448.994 167.036 449.211 167.036C449.355 167.036 449.498 167.067 449.631 167.129C449.764 167.19 449.885 167.28 449.987 167.394C450.089 167.507 450.17 167.642 450.225 167.79C450.28 167.939 450.309 168.097 450.309 168.258Z" fill="#F9FBE1"/>
<path fill-rule="evenodd" clip-rule="evenodd" d="M169.994 109.665C169.994 109.907 169.93 110.143 169.809 110.344C169.689 110.545 169.517 110.702 169.317 110.795C169.116 110.887 168.895 110.911 168.682 110.864C168.469 110.817 168.274 110.701 168.12 110.53C167.967 110.359 167.862 110.141 167.82 109.904C167.778 109.667 167.799 109.421 167.882 109.198C167.966 108.974 168.106 108.784 168.287 108.649C168.467 108.515 168.68 108.443 168.897 108.443C169.188 108.443 169.467 108.572 169.673 108.801C169.879 109.03 169.994 109.341 169.994 109.665Z" fill="#F9FBE1"/>
<path fill-rule="evenodd" clip-rule="evenodd" d="M227.957 173.605C227.957 173.847 227.892 174.083 227.772 174.284C227.651 174.485 227.48 174.642 227.279 174.734C227.079 174.827 226.858 174.851 226.645 174.804C226.432 174.756 226.237 174.64 226.083 174.469C225.93 174.298 225.825 174.08 225.783 173.843C225.74 173.606 225.762 173.36 225.845 173.137C225.928 172.914 226.069 172.723 226.25 172.589C226.43 172.454 226.642 172.383 226.859 172.383C227.003 172.383 227.146 172.414 227.279 172.476C227.413 172.537 227.534 172.627 227.635 172.741C227.737 172.854 227.818 172.989 227.873 173.137C227.929 173.286 227.957 173.445 227.957 173.605Z" fill="#F9FBE1"/>
<path fill-rule="evenodd" clip-rule="evenodd" d="M328.939 504.771C328.939 505.013 328.875 505.249 328.755 505.45C328.634 505.651 328.462 505.807 328.262 505.9C328.061 505.992 327.841 506.017 327.628 505.969C327.415 505.922 327.219 505.806 327.066 505.635C326.912 505.464 326.808 505.246 326.765 505.009C326.723 504.772 326.745 504.526 326.828 504.303C326.911 504.08 327.051 503.889 327.232 503.755C327.412 503.62 327.625 503.549 327.842 503.549C328.133 503.549 328.412 503.678 328.618 503.907C328.824 504.136 328.939 504.447 328.939 504.771Z" fill="#F9FBE1"/>
<path fill-rule="evenodd" clip-rule="evenodd" d="M242.335 22.8495C242.335 23.0912 242.271 23.3276 242.15 23.5286C242.03 23.7296 241.858 23.8862 241.658 23.9788C241.457 24.0713 241.236 24.0955 241.023 24.0484C240.81 24.0013 240.615 23.8849 240.461 23.714C240.308 23.5431 240.203 23.3253 240.161 23.0882C240.118 22.8511 240.14 22.6054 240.223 22.382C240.306 22.1587 240.447 21.9678 240.627 21.8335C240.808 21.6992 241.02 21.6275 241.237 21.6274C241.528 21.6274 241.808 21.7562 242.014 21.9853C242.219 22.2145 242.335 22.5254 242.335 22.8495Z" fill="#F9FBE1"/>
<path fill-rule="evenodd" clip-rule="evenodd" d="M455.625 334.406C455.625 334.648 455.561 334.884 455.44 335.085C455.319 335.286 455.148 335.443 454.947 335.536C454.747 335.628 454.526 335.652 454.313 335.605C454.1 335.558 453.905 335.442 453.751 335.271C453.598 335.1 453.493 334.882 453.451 334.645C453.408 334.408 453.43 334.162 453.513 333.939C453.596 333.715 453.737 333.525 453.918 333.39C454.098 333.256 454.31 333.184 454.527 333.184C454.818 333.184 455.098 333.313 455.303 333.542C455.509 333.771 455.625 334.082 455.625 334.406Z" fill="#F9FBE1"/>
<path fill-rule="evenodd" clip-rule="evenodd" d="M106.31 165.887C106.31 166.128 106.245 166.365 106.125 166.566C106.004 166.767 105.833 166.923 105.632 167.016C105.431 167.108 105.211 167.132 104.998 167.085C104.785 167.038 104.589 166.922 104.436 166.751C104.282 166.58 104.178 166.362 104.135 166.125C104.093 165.888 104.115 165.642 104.198 165.419C104.281 165.196 104.422 165.005 104.602 164.871C104.783 164.736 104.995 164.665 105.212 164.665C105.503 164.665 105.782 164.793 105.988 165.023C106.194 165.252 106.31 165.563 106.31 165.887Z" fill="#F9FBE1"/>
<path fill-rule="evenodd" clip-rule="evenodd" d="M365.071 280.448C365.071 280.689 365.006 280.926 364.886 281.127C364.765 281.328 364.594 281.484 364.393 281.577C364.192 281.669 363.972 281.694 363.759 281.647C363.546 281.599 363.35 281.483 363.197 281.312C363.043 281.141 362.938 280.923 362.896 280.686C362.854 280.449 362.875 280.203 362.959 279.98C363.042 279.757 363.182 279.566 363.363 279.432C363.544 279.297 363.756 279.226 363.973 279.226C364.264 279.226 364.543 279.354 364.749 279.584C364.955 279.813 365.071 280.124 365.071 280.448Z" fill="#F9FBE1"/>
<path fill-rule="evenodd" clip-rule="evenodd" d="M279.332 78.2831C279.332 78.5248 279.268 78.7611 279.147 78.9621C279.027 79.1631 278.855 79.3198 278.655 79.4123C278.454 79.5048 278.233 79.529 278.02 79.4819C277.807 79.4347 277.612 79.3183 277.458 79.1474C277.305 78.9765 277.2 78.7587 277.158 78.5216C277.115 78.2845 277.137 78.0388 277.22 77.8154C277.303 77.5921 277.444 77.4012 277.625 77.267C277.805 77.1327 278.017 77.061 278.235 77.061C278.526 77.0611 278.805 77.1899 279.011 77.419C279.217 77.6482 279.332 77.959 279.332 78.2831Z" fill="#F9FBE1"/>
<path fill-rule="evenodd" clip-rule="evenodd" d="M535.937 369.811C535.937 370.053 535.872 370.289 535.752 370.491C535.631 370.692 535.46 370.848 535.259 370.941C535.058 371.033 534.838 371.057 534.625 371.01C534.412 370.963 534.216 370.847 534.063 370.676C533.909 370.505 533.805 370.287 533.762 370.05C533.72 369.813 533.742 369.567 533.825 369.344C533.908 369.12 534.049 368.93 534.229 368.795C534.41 368.661 534.622 368.589 534.839 368.589C535.13 368.589 535.409 368.718 535.615 368.947C535.821 369.177 535.937 369.487 535.937 369.811Z" fill="#F9FBE1"/>
<path fill-rule="evenodd" clip-rule="evenodd" d="M472.51 83.1867C472.51 83.4284 472.446 83.6647 472.325 83.8657C472.204 84.0667 472.033 84.2233 471.832 84.3158C471.632 84.4083 471.411 84.4325 471.198 84.3853C470.985 84.3381 470.79 84.2217 470.636 84.0508C470.482 83.8799 470.378 83.6621 470.336 83.425C470.293 83.188 470.315 82.9422 470.398 82.7189C470.481 82.4956 470.622 82.3047 470.802 82.1704C470.983 82.0361 471.195 81.9644 471.412 81.9644C471.556 81.9644 471.699 81.996 471.832 82.0574C471.965 82.1188 472.086 82.2089 472.188 82.3224C472.29 82.4359 472.371 82.5706 472.426 82.7189C472.482 82.8672 472.51 83.0262 472.51 83.1867Z" fill="#F9FBE1"/>
<path fill-rule="evenodd" clip-rule="evenodd" d="M526.328 93.3414C526.328 93.5831 526.264 93.8194 526.143 94.0204C526.023 94.2213 525.851 94.378 525.651 94.4705C525.45 94.5629 525.229 94.5871 525.016 94.54C524.803 94.4928 524.608 94.3764 524.454 94.2055C524.301 94.0346 524.196 93.8168 524.154 93.5798C524.112 93.3427 524.133 93.097 524.216 92.8737C524.299 92.6503 524.44 92.4595 524.621 92.3252C524.801 92.1909 525.013 92.1192 525.23 92.1191C525.375 92.1191 525.517 92.1507 525.651 92.2122C525.784 92.2736 525.905 92.3636 526.007 92.4771C526.109 92.5906 526.19 92.7254 526.245 92.8737C526.3 93.022 526.328 93.1809 526.328 93.3414Z" fill="#F9FBE1"/>
<path fill-rule="evenodd" clip-rule="evenodd" d="M399.961 410.137C399.961 410.378 399.896 410.615 399.776 410.816C399.655 411.016 399.484 411.173 399.283 411.266C399.083 411.358 398.862 411.382 398.649 411.335C398.436 411.288 398.241 411.172 398.087 411.001C397.934 410.83 397.829 410.612 397.787 410.375C397.744 410.138 397.766 409.892 397.849 409.669C397.932 409.446 398.073 409.255 398.253 409.121C398.434 408.986 398.646 408.915 398.863 408.915C399.007 408.915 399.15 408.946 399.283 409.008C399.416 409.069 399.537 409.159 399.639 409.272C399.741 409.386 399.822 409.521 399.877 409.669C399.932 409.817 399.961 409.976 399.961 410.137Z" fill="#F9FBE1"/>
<path fill-rule="evenodd" clip-rule="evenodd" d="M194.377 129.897C194.377 130.139 194.313 130.375 194.192 130.576C194.071 130.777 193.9 130.934 193.699 131.026C193.499 131.119 193.278 131.143 193.065 131.096C192.852 131.049 192.657 130.932 192.503 130.761C192.35 130.59 192.245 130.372 192.203 130.135C192.16 129.898 192.182 129.653 192.265 129.429C192.348 129.206 192.489 129.015 192.67 128.881C192.85 128.746 193.062 128.675 193.279 128.675C193.57 128.675 193.85 128.804 194.055 129.033C194.261 129.262 194.377 129.573 194.377 129.897Z" fill="#F9FBE1"/>
<path d="M295.765 145.869C296.371 145.869 296.862 145.322 296.862 144.647C296.862 143.972 296.371 143.425 295.765 143.425C295.158 143.425 294.667 143.972 294.667 144.647C294.667 145.322 295.158 145.869 295.765 145.869Z" fill="#F9FBE1"/>
<path fill-rule="evenodd" clip-rule="evenodd" d="M100.651 83.1496C100.651 83.3912 100.587 83.6275 100.466 83.8284C100.345 84.0293 100.174 84.1859 99.9734 84.2784C99.7729 84.3708 99.5522 84.395 99.3393 84.3478C99.1264 84.3006 98.9309 84.1842 98.7774 84.0133C98.624 83.8424 98.5195 83.6247 98.4771 83.3876C98.4348 83.1506 98.4565 82.9049 98.5396 82.6816C98.6227 82.4583 98.7634 82.2674 98.9439 82.1332C99.1244 81.9989 99.3365 81.9272 99.5536 81.9272C99.6977 81.9272 99.8405 81.9589 99.9737 82.0203C100.107 82.0817 100.228 82.1718 100.33 82.2853C100.432 82.3988 100.513 82.5335 100.568 82.6818C100.623 82.8301 100.651 82.9891 100.651 83.1496Z" fill="#F9FBE1"/>
<path fill-rule="evenodd" clip-rule="evenodd" d="M362.67 322.137C362.67 322.379 362.606 322.615 362.485 322.816C362.364 323.017 362.193 323.174 361.992 323.266C361.792 323.359 361.571 323.383 361.358 323.336C361.145 323.289 360.95 323.172 360.796 323.001C360.643 322.83 360.538 322.613 360.496 322.376C360.453 322.138 360.475 321.893 360.558 321.669C360.641 321.446 360.782 321.255 360.962 321.121C361.143 320.987 361.355 320.915 361.572 320.915C361.863 320.915 362.143 321.044 362.348 321.273C362.554 321.502 362.67 321.813 362.67 322.137Z" fill="#F9FBE1"/>
<path fill-rule="evenodd" clip-rule="evenodd" d="M317.251 35.2565C317.251 35.4982 317.187 35.7345 317.066 35.9355C316.945 36.1365 316.774 36.2931 316.573 36.3856C316.373 36.4781 316.152 36.5023 315.939 36.4551C315.726 36.408 315.531 36.2916 315.377 36.1206C315.224 35.9497 315.119 35.732 315.077 35.4949C315.034 35.2578 315.056 35.0121 315.139 34.7887C315.222 34.5654 315.363 34.3745 315.543 34.2402C315.724 34.1059 315.936 34.0342 316.153 34.0342C316.297 34.0342 316.44 34.0658 316.573 34.1272C316.707 34.1886 316.828 34.2787 316.93 34.3922C317.032 34.5057 317.112 34.6404 317.168 34.7887C317.223 34.937 317.251 35.096 317.251 35.2565Z" fill="#F9FBE1"/>
<path fill-rule="evenodd" clip-rule="evenodd" d="M525.231 202.429C525.231 202.671 525.167 202.907 525.046 203.108C524.926 203.309 524.754 203.466 524.554 203.558C524.353 203.651 524.132 203.675 523.92 203.628C523.707 203.58 523.511 203.464 523.358 203.293C523.204 203.122 523.1 202.905 523.057 202.667C523.015 202.43 523.037 202.185 523.12 201.961C523.203 201.738 523.343 201.547 523.524 201.413C523.704 201.279 523.917 201.207 524.134 201.207C524.425 201.207 524.704 201.336 524.91 201.565C525.116 201.794 525.231 202.105 525.231 202.429Z" fill="#F9FBE1"/>
<path fill-rule="evenodd" clip-rule="evenodd" d="M302.467 326.152C302.467 326.393 302.402 326.63 302.282 326.831C302.161 327.032 301.99 327.188 301.789 327.281C301.589 327.373 301.368 327.398 301.155 327.35C300.942 327.303 300.746 327.187 300.593 327.016C300.439 326.845 300.335 326.627 300.293 326.39C300.25 326.153 300.272 325.907 300.355 325.684C300.438 325.461 300.579 325.27 300.759 325.136C300.94 325.001 301.152 324.93 301.369 324.93C301.66 324.93 301.939 325.058 302.145 325.288C302.351 325.517 302.467 325.828 302.467 326.152Z" fill="#F9FBE1"/>
<path fill-rule="evenodd" clip-rule="evenodd" d="M150.966 336.813C150.966 337.054 150.901 337.291 150.781 337.492C150.66 337.693 150.489 337.849 150.288 337.942C150.088 338.034 149.867 338.058 149.654 338.011C149.441 337.964 149.246 337.848 149.092 337.677C148.939 337.506 148.834 337.288 148.792 337.051C148.749 336.814 148.771 336.568 148.854 336.345C148.937 336.122 149.078 335.931 149.258 335.796C149.439 335.662 149.651 335.59 149.868 335.59C150.012 335.59 150.155 335.622 150.288 335.683C150.421 335.745 150.542 335.835 150.644 335.948C150.746 336.062 150.827 336.197 150.882 336.345C150.938 336.493 150.966 336.652 150.966 336.813Z" fill="#F9FBE1"/>
<path fill-rule="evenodd" clip-rule="evenodd" d="M449.701 59.7816C449.701 60.0234 449.637 60.2597 449.516 60.4607C449.396 60.6617 449.224 60.8184 449.024 60.9109C448.823 61.0034 448.602 61.0276 448.389 60.9805C448.176 60.9333 447.981 60.8169 447.827 60.646C447.674 60.4751 447.569 60.2573 447.527 60.0202C447.485 59.7831 447.506 59.5373 447.589 59.314C447.672 59.0907 447.813 58.8998 447.994 58.7655C448.174 58.6312 448.387 58.5595 448.604 58.5596C448.895 58.5596 449.174 58.6884 449.38 58.9176C449.585 59.1467 449.701 59.4575 449.701 59.7816Z" fill="#F9FBE1"/>
<path fill-rule="evenodd" clip-rule="evenodd" d="M412.456 129.897C412.456 130.139 412.392 130.375 412.271 130.576C412.151 130.777 411.979 130.934 411.779 131.026C411.578 131.119 411.357 131.143 411.144 131.096C410.931 131.049 410.736 130.932 410.582 130.761C410.429 130.59 410.324 130.373 410.282 130.136C410.239 129.898 410.261 129.653 410.344 129.429C410.427 129.206 410.568 129.015 410.748 128.881C410.929 128.747 411.141 128.675 411.358 128.675C411.502 128.675 411.645 128.706 411.778 128.768C411.912 128.829 412.033 128.919 412.134 129.033C412.236 129.146 412.317 129.281 412.372 129.429C412.428 129.577 412.456 129.736 412.456 129.897Z" fill="#F9FBE1"/>
<path fill-rule="evenodd" clip-rule="evenodd" d="M299.045 130.287C299.045 130.528 298.981 130.765 298.86 130.966C298.739 131.167 298.568 131.323 298.367 131.416C298.167 131.508 297.946 131.533 297.733 131.485C297.52 131.438 297.325 131.322 297.171 131.151C297.018 130.98 296.913 130.762 296.871 130.525C296.828 130.288 296.85 130.042 296.933 129.819C297.016 129.596 297.157 129.405 297.337 129.27C297.518 129.136 297.73 129.064 297.947 129.064C298.092 129.064 298.234 129.096 298.367 129.157C298.501 129.219 298.622 129.309 298.723 129.422C298.825 129.536 298.906 129.671 298.961 129.819C299.017 129.967 299.045 130.126 299.045 130.287Z" fill="#F9FBE1"/>
<path fill-rule="evenodd" clip-rule="evenodd" d="M334.345 343.469C334.345 343.711 334.28 343.947 334.16 344.148C334.039 344.349 333.868 344.506 333.667 344.598C333.467 344.691 333.246 344.715 333.033 344.668C332.82 344.621 332.624 344.504 332.471 344.333C332.317 344.162 332.213 343.945 332.17 343.708C332.128 343.471 332.15 343.225 332.233 343.001C332.316 342.778 332.457 342.587 332.637 342.453C332.818 342.319 333.03 342.247 333.247 342.247C333.538 342.247 333.818 342.376 334.023 342.605C334.229 342.834 334.345 343.145 334.345 343.469Z" fill="#F9FBE1"/>
<path fill-rule="evenodd" clip-rule="evenodd" d="M303.579 237.939C303.579 238.18 303.515 238.417 303.394 238.618C303.274 238.819 303.102 238.975 302.902 239.068C302.701 239.16 302.48 239.185 302.267 239.138C302.054 239.09 301.859 238.974 301.705 238.803C301.552 238.632 301.447 238.414 301.405 238.177C301.363 237.94 301.384 237.695 301.467 237.471C301.55 237.248 301.691 237.057 301.872 236.923C302.052 236.788 302.264 236.717 302.481 236.717C302.772 236.717 303.052 236.845 303.257 237.074C303.463 237.304 303.579 237.614 303.579 237.939Z" fill="#F9FBE1"/>
<path fill-rule="evenodd" clip-rule="evenodd" d="M234.476 187.905C234.476 188.147 234.411 188.383 234.291 188.584C234.17 188.785 233.999 188.942 233.798 189.034C233.598 189.127 233.377 189.151 233.164 189.104C232.951 189.057 232.755 188.94 232.602 188.769C232.448 188.598 232.344 188.381 232.301 188.144C232.259 187.906 232.281 187.661 232.364 187.437C232.447 187.214 232.588 187.023 232.768 186.889C232.949 186.755 233.161 186.683 233.378 186.683C233.669 186.683 233.948 186.812 234.154 187.041C234.36 187.27 234.476 187.581 234.476 187.905Z" fill="#F9FBE1"/>
<path fill-rule="evenodd" clip-rule="evenodd" d="M182.579 160.044C182.579 160.286 182.515 160.522 182.394 160.723C182.273 160.924 182.102 161.08 181.901 161.173C181.701 161.265 181.48 161.289 181.267 161.242C181.054 161.195 180.859 161.079 180.705 160.908C180.552 160.737 180.447 160.519 180.405 160.282C180.363 160.045 180.384 159.799 180.467 159.576C180.55 159.353 180.691 159.162 180.872 159.027C181.052 158.893 181.264 158.822 181.481 158.822C181.626 158.822 181.768 158.853 181.902 158.915C182.035 158.976 182.156 159.066 182.258 159.18C182.36 159.293 182.441 159.428 182.496 159.576C182.551 159.724 182.579 159.883 182.579 160.044Z" fill="#F9FBE1"/>
<path fill-rule="evenodd" clip-rule="evenodd" d="M118.12 104.201C118.12 104.443 118.056 104.679 117.935 104.88C117.815 105.081 117.643 105.238 117.443 105.33C117.242 105.423 117.021 105.447 116.808 105.4C116.596 105.353 116.4 105.236 116.246 105.065C116.093 104.895 115.988 104.677 115.946 104.44C115.904 104.203 115.925 103.957 116.008 103.733C116.091 103.51 116.232 103.319 116.413 103.185C116.593 103.05 116.805 102.979 117.022 102.979C117.314 102.979 117.593 103.108 117.799 103.337C118.004 103.566 118.12 103.877 118.12 104.201Z" fill="#F9FBE1"/>
<path fill-rule="evenodd" clip-rule="evenodd" d="M51.744 12.7948C51.744 12.9553 51.7156 13.1143 51.6605 13.2626C51.6053 13.4108 51.5245 13.5456 51.4226 13.6591C51.3206 13.7726 51.1996 13.8626 51.0665 13.9241C50.9333 13.9855 50.7905 14.0171 50.6464 14.0171C50.5022 14.0171 50.3595 13.9855 50.2263 13.9241C50.0931 13.8626 49.9721 13.7726 49.8702 13.6591C49.7683 13.5456 49.6875 13.4108 49.6323 13.2626C49.5772 13.1143 49.5488 12.9553 49.5488 12.7948C49.5488 12.4707 49.6645 12.1599 49.8703 11.9307C50.0761 11.7015 50.3553 11.5728 50.6464 11.5728C50.9375 11.5728 51.2167 11.7015 51.4225 11.9307C51.6283 12.1599 51.744 12.4707 51.744 12.7948Z" fill="#F9FBE1"/>
<path fill-rule="evenodd" clip-rule="evenodd" d="M70.2248 288.44C70.2248 288.682 70.1604 288.918 70.0398 289.119C69.9192 289.32 69.7478 289.477 69.5472 289.569C69.3467 289.662 69.126 289.686 68.913 289.639C68.7001 289.592 68.5044 289.475 68.3509 289.305C68.1974 289.134 68.0928 288.916 68.0504 288.679C68.008 288.442 68.0297 288.196 68.1128 287.973C68.1959 287.749 68.3366 287.558 68.5171 287.424C68.6976 287.29 68.9098 287.218 69.1269 287.218C69.418 287.218 69.6972 287.347 69.9031 287.576C70.109 287.805 70.2247 288.116 70.2248 288.44Z" fill="#F9FBE1"/>
<path fill-rule="evenodd" clip-rule="evenodd" d="M251.243 186.682C251.243 186.924 251.179 187.16 251.058 187.361C250.938 187.562 250.766 187.719 250.566 187.811C250.365 187.904 250.144 187.928 249.931 187.881C249.718 187.834 249.523 187.717 249.369 187.546C249.216 187.375 249.111 187.158 249.069 186.921C249.027 186.684 249.048 186.438 249.131 186.215C249.214 185.991 249.355 185.8 249.536 185.666C249.716 185.532 249.928 185.46 250.145 185.46C250.29 185.46 250.432 185.492 250.566 185.553C250.699 185.614 250.82 185.704 250.922 185.818C251.024 185.931 251.105 186.066 251.16 186.215C251.215 186.363 251.243 186.522 251.243 186.682Z" fill="#F9FBE1"/>
<path fill-rule="evenodd" clip-rule="evenodd" d="M9.87903 91.018C9.87905 91.2597 9.81472 91.496 9.6941 91.697C9.57349 91.898 9.40203 92.0547 9.20144 92.1472C9.00085 92.2398 8.78014 92.264 8.56719 92.2168C8.35424 92.1697 8.15864 92.0533 8.00512 91.8823C7.85159 91.7114 7.74703 91.4936 7.70468 91.2565C7.66233 91.0194 7.68408 90.7737 7.76718 90.5503C7.85028 90.327 7.99098 90.1361 8.17152 90.0018C8.35206 89.8675 8.5643 89.7959 8.78142 89.7959C9.07251 89.796 9.35168 89.9247 9.55752 90.1539C9.76335 90.3831 9.87898 90.6939 9.87903 91.018Z" fill="#F9FBE1"/>
<path fill-rule="evenodd" clip-rule="evenodd" d="M67.8425 154.957C67.8425 155.199 67.7781 155.435 67.6575 155.636C67.5369 155.837 67.3655 155.994 67.165 156.086C66.9644 156.179 66.7438 156.203 66.5309 156.156C66.318 156.109 66.1224 155.992 65.9689 155.822C65.8154 155.651 65.7109 155.433 65.6685 155.196C65.6262 154.959 65.6479 154.713 65.731 154.49C65.8141 154.266 65.9548 154.076 66.1352 153.941C66.3157 153.807 66.5279 153.735 66.745 153.735C67.0361 153.735 67.3152 153.864 67.521 154.093C67.7268 154.323 67.8425 154.633 67.8425 154.957Z" fill="#F9FBE1"/>
<path fill-rule="evenodd" clip-rule="evenodd" d="M82.2197 4.20231C82.2197 4.52643 82.104 4.83727 81.8982 5.06645C81.6924 5.29563 81.4132 5.42439 81.1222 5.42439C80.8311 5.4244 80.5519 5.29566 80.346 5.06648C80.1401 4.8373 80.0245 4.52646 80.0244 4.20231C80.0244 3.87813 80.1401 3.56723 80.3459 3.338C80.5518 3.10877 80.831 2.97999 81.1222 2.97998C81.2663 2.97999 81.409 3.01161 81.5422 3.07304C81.6753 3.13448 81.7963 3.22452 81.8983 3.33803C82.0002 3.45153 82.081 3.58628 82.1362 3.73458C82.1913 3.88287 82.2197 4.04181 82.2197 4.20231Z" fill="#F9FBE1"/>
<path fill-rule="evenodd" clip-rule="evenodd" d="M76.1778 326.046C76.1778 326.288 76.1134 326.524 75.9928 326.725C75.8721 326.926 75.7007 327.083 75.5001 327.175C75.2996 327.268 75.0789 327.292 74.8659 327.245C74.653 327.198 74.4574 327.081 74.3039 326.91C74.1504 326.739 74.0459 326.522 74.0035 326.285C73.9612 326.048 73.9829 325.802 74.066 325.578C74.149 325.355 74.2897 325.164 74.4702 325.03C74.6507 324.896 74.8629 324.824 75.08 324.824C75.3711 324.824 75.6504 324.953 75.8563 325.182C76.0621 325.411 76.1778 325.722 76.1778 326.046Z" fill="#F9FBE1"/>
<path fill-rule="evenodd" clip-rule="evenodd" d="M119.217 59.6313C119.217 59.873 119.153 60.1093 119.032 60.3103C118.911 60.5113 118.74 60.668 118.539 60.7605C118.339 60.8531 118.118 60.8773 117.905 60.8301C117.692 60.783 117.496 60.6665 117.343 60.4956C117.189 60.3247 117.085 60.1069 117.043 59.8698C117 59.6327 117.022 59.3869 117.105 59.1636C117.188 58.9403 117.329 58.7494 117.509 58.6151C117.69 58.4808 117.902 58.4091 118.119 58.4092C118.41 58.4092 118.69 58.5379 118.895 58.7671C119.101 58.9963 119.217 59.3071 119.217 59.6313Z" fill="#F9FBE1"/>
<path fill-rule="evenodd" clip-rule="evenodd" d="M34.2637 111.241C34.2638 111.482 34.1994 111.719 34.0788 111.92C33.9582 112.121 33.7867 112.277 33.5862 112.37C33.3856 112.462 33.1649 112.487 32.9519 112.439C32.739 112.392 32.5434 112.276 32.3899 112.105C32.2364 111.934 32.1318 111.716 32.0894 111.479C32.0471 111.242 32.0688 110.996 32.1519 110.773C32.235 110.55 32.3757 110.359 32.5563 110.224C32.7368 110.09 32.949 110.019 33.1662 110.019C33.4573 110.019 33.7364 110.147 33.9423 110.376C34.1481 110.606 34.2637 110.916 34.2637 111.241Z" fill="#F9FBE1"/>
<path fill-rule="evenodd" clip-rule="evenodd" d="M202.555 303.491C202.555 303.733 202.491 303.969 202.37 304.17C202.249 304.371 202.078 304.528 201.877 304.62C201.677 304.713 201.456 304.737 201.243 304.69C201.03 304.643 200.835 304.526 200.681 304.356C200.527 304.185 200.423 303.967 200.38 303.73C200.338 303.493 200.36 303.247 200.443 303.024C200.526 302.8 200.667 302.609 200.847 302.475C201.028 302.341 201.24 302.269 201.457 302.269C201.601 302.269 201.744 302.301 201.877 302.362C202.01 302.423 202.131 302.513 202.233 302.627C202.335 302.74 202.416 302.875 202.471 303.023C202.526 303.172 202.555 303.331 202.555 303.491Z" fill="#F9FBE1"/>
<path fill-rule="evenodd" clip-rule="evenodd" d="M142.352 307.501C142.352 307.743 142.287 307.979 142.167 308.18C142.046 308.381 141.875 308.538 141.674 308.63C141.474 308.723 141.253 308.747 141.04 308.7C140.827 308.653 140.631 308.536 140.478 308.366C140.324 308.195 140.22 307.977 140.177 307.74C140.135 307.503 140.157 307.257 140.24 307.034C140.323 306.81 140.464 306.619 140.644 306.485C140.825 306.351 141.037 306.279 141.254 306.279C141.545 306.279 141.824 306.408 142.03 306.637C142.236 306.866 142.352 307.177 142.352 307.501Z" fill="#F9FBE1"/>
<path fill-rule="evenodd" clip-rule="evenodd" d="M289.587 41.1346C289.587 41.3764 289.523 41.6127 289.402 41.8137C289.281 42.0147 289.11 42.1714 288.909 42.2639C288.709 42.3564 288.488 42.3807 288.275 42.3335C288.062 42.2864 287.867 42.17 287.713 41.999C287.56 41.8281 287.455 41.6103 287.413 41.3732C287.37 41.1361 287.392 40.8904 287.475 40.667C287.558 40.4437 287.699 40.2528 287.88 40.1185C288.06 39.9842 288.272 39.9126 288.489 39.9126C288.634 39.9126 288.776 39.9442 288.909 40.0056C289.043 40.067 289.164 40.157 289.266 40.2705C289.368 40.3839 289.448 40.5187 289.504 40.6669C289.559 40.8152 289.587 40.9741 289.587 41.1346Z" fill="#F9FBE1"/>
<path fill-rule="evenodd" clip-rule="evenodd" d="M252.341 111.241C252.341 111.482 252.277 111.719 252.156 111.92C252.035 112.121 251.864 112.277 251.663 112.37C251.463 112.462 251.242 112.487 251.029 112.439C250.816 112.392 250.621 112.276 250.467 112.105C250.314 111.934 250.209 111.716 250.167 111.479C250.124 111.242 250.146 110.996 250.229 110.773C250.312 110.55 250.453 110.359 250.633 110.224C250.814 110.09 251.026 110.019 251.243 110.019C251.534 110.019 251.814 110.147 252.02 110.376C252.225 110.606 252.341 110.916 252.341 111.241Z" fill="#F9FBE1"/>
<path fill-rule="evenodd" clip-rule="evenodd" d="M142.477 120.251C142.477 120.493 142.412 120.729 142.292 120.93C142.171 121.131 142 121.288 141.799 121.38C141.599 121.473 141.378 121.497 141.165 121.45C140.952 121.403 140.756 121.286 140.603 121.116C140.449 120.945 140.345 120.727 140.302 120.49C140.26 120.253 140.282 120.007 140.365 119.784C140.448 119.56 140.588 119.369 140.769 119.235C140.949 119.101 141.162 119.029 141.379 119.029C141.523 119.029 141.666 119.061 141.799 119.122C141.932 119.183 142.053 119.273 142.155 119.387C142.257 119.5 142.338 119.635 142.393 119.783C142.448 119.932 142.477 120.091 142.477 120.251Z" fill="#F9FBE1"/>
<path fill-rule="evenodd" clip-rule="evenodd" d="M174.229 324.823C174.23 325.065 174.165 325.301 174.045 325.502C173.924 325.703 173.753 325.86 173.552 325.952C173.351 326.045 173.131 326.069 172.918 326.022C172.705 325.975 172.509 325.859 172.356 325.688C172.202 325.517 172.098 325.299 172.055 325.062C172.013 324.825 172.035 324.579 172.118 324.356C172.201 324.132 172.341 323.941 172.522 323.807C172.702 323.673 172.915 323.601 173.132 323.601C173.276 323.601 173.419 323.633 173.552 323.694C173.685 323.755 173.806 323.845 173.908 323.959C174.01 324.072 174.091 324.207 174.146 324.355C174.201 324.504 174.229 324.663 174.229 324.823Z" fill="#F9FBE1"/>
<path fill-rule="evenodd" clip-rule="evenodd" d="M449.462 318.97C449.462 319.211 449.398 319.448 449.277 319.649C449.156 319.85 448.985 320.006 448.784 320.099C448.584 320.192 448.363 320.216 448.15 320.169C447.937 320.121 447.742 320.005 447.588 319.834C447.435 319.663 447.33 319.445 447.288 319.208C447.245 318.971 447.267 318.725 447.35 318.502C447.433 318.279 447.574 318.088 447.754 317.953C447.935 317.819 448.147 317.748 448.364 317.748C448.655 317.748 448.935 317.876 449.14 318.106C449.346 318.335 449.462 318.646 449.462 318.97Z" fill="#F9FBE1"/>
<path fill-rule="evenodd" clip-rule="evenodd" d="M602.854 164.667C602.854 164.909 602.789 165.145 602.669 165.346C602.548 165.547 602.377 165.704 602.176 165.797C601.975 165.889 601.755 165.913 601.542 165.866C601.329 165.819 601.133 165.703 600.98 165.532C600.826 165.361 600.722 165.143 600.679 164.906C600.637 164.669 600.659 164.423 600.742 164.2C600.825 163.977 600.965 163.786 601.146 163.651C601.326 163.517 601.539 163.445 601.756 163.445C602.047 163.445 602.326 163.574 602.532 163.803C602.738 164.032 602.853 164.343 602.854 164.667Z" fill="#F9FBE1"/>
<path fill-rule="evenodd" clip-rule="evenodd" d="M512.3 110.717C512.3 110.959 512.235 111.195 512.115 111.396C511.994 111.597 511.823 111.754 511.622 111.846C511.422 111.939 511.201 111.963 510.988 111.916C510.775 111.869 510.579 111.752 510.426 111.582C510.272 111.411 510.168 111.193 510.126 110.956C510.083 110.719 510.105 110.473 510.188 110.25C510.271 110.026 510.412 109.836 510.592 109.701C510.773 109.567 510.985 109.495 511.202 109.495C511.493 109.495 511.772 109.624 511.978 109.853C512.184 110.083 512.3 110.393 512.3 110.717Z" fill="#F9FBE1"/>
<path fill-rule="evenodd" clip-rule="evenodd" d="M434.929 198.898C434.929 199.14 434.865 199.376 434.744 199.577C434.623 199.778 434.452 199.935 434.251 200.027C434.051 200.12 433.83 200.144 433.617 200.097C433.404 200.05 433.209 199.933 433.055 199.762C432.901 199.591 432.797 199.374 432.755 199.137C432.712 198.899 432.734 198.654 432.817 198.43C432.9 198.207 433.041 198.016 433.221 197.882C433.402 197.748 433.614 197.676 433.831 197.676C434.122 197.676 434.401 197.805 434.607 198.034C434.813 198.263 434.929 198.574 434.929 198.898Z" fill="#F9FBE1"/>
</g>
</svg>
