<svg width="126" height="23" viewBox="0 0 126 23" fill="none" xmlns="http://www.w3.org/2000/svg">
<path d="M40.2963 5.19382H42.6929V2.20118H46.2033V5.19382H50.0522V8.53221H46.2033V12.7119C46.2033 14.2701 46.5418 14.8636 47.486 14.8636C48.3096 14.8636 48.9631 14.5667 49.6408 14.0227L51.0935 16.5701C50.2221 17.5101 48.8661 18.2024 47.1472 18.2024C44.5085 18.2024 42.6929 16.743 42.6929 13.7757V8.53221H40.2963V5.19382Z" fill="#282828"/>
<path d="M65.3035 18.054H62.5196L60.0016 11.0798L57.4598 18.054H54.7L50.5356 5.19367H54.1672L56.2979 11.9454L58.7185 5.19367H61.3328L63.7779 11.9454L65.7875 5.19367H69.346L65.3035 18.054Z" fill="#282828"/>
<path d="M70.289 5.19367H73.7991V18.054H70.289V5.19367ZM72.0561 0.000146866C73.1936 0.000146866 74.0172 0.766943 74.0172 1.78075C74.0172 2.84412 73.1936 3.61091 72.0561 3.61091C70.8215 3.61091 70.0709 2.84412 70.0709 1.78075C70.0709 0.766943 70.8941 0.000146866 72.0561 0.000146866Z" fill="#282828"/>
<path d="M76.1948 5.19367H79.7052V6.10875C80.2617 5.4161 81.4486 4.94588 83.143 4.94588C86.3628 4.94588 88.1058 6.70228 88.1058 10.8324V18.054H84.5953V11.0549C84.5953 8.97769 83.7966 8.28504 82.1258 8.28504C80.9883 8.28504 80.141 8.90316 79.7052 9.99111V18.054H76.1948V5.19367Z" fill="#282828"/>
<path d="M93.6726 9.94224V13.3302C94.2536 14.369 95.1249 14.9129 96.3839 14.9129C98.1514 14.9129 99.3133 13.8246 99.3133 11.55C99.3133 9.3487 98.1999 8.26037 96.3839 8.26037C95.1012 8.26037 94.1329 8.7302 93.6726 9.94224ZM90.1622 6.67572e-05H93.6726V6.05949C94.2536 5.29231 95.8029 4.92159 97.1104 4.92159C100.645 4.92159 102.944 7.34529 102.944 11.4259C102.944 15.6551 100.427 18.2517 96.7227 18.2517C95.4397 18.2517 94.5198 18.0293 93.6726 17.5349V18.0539H90.1622V6.67572e-05Z" fill="#282828"/>
<path d="M109.673 23H105.873L108.463 16.9655L102.435 5.1936H106.526L110.182 12.6625L113.014 5.1936H116.766L109.673 23Z" fill="#282828"/>
<path d="M16.165 11.4815L19.4947 5.52583C21.0571 2.73118 24.0085 0.999899 27.2104 0.999899H30.3152C31.8517 0.999899 32.8211 2.65246 32.0712 3.99352L23.9303 18.5553C23.0972 20.0454 20.9529 20.0454 20.1198 18.5553L16.165 11.4815Z" fill="#78DC00"/>
<path d="M16.165 11.4815L12.8353 5.52583C11.2729 2.73118 8.32136 0.999899 5.11967 0.999899H2.01486C0.478353 0.999899 -0.490985 2.65246 0.258683 3.99352L8.39974 18.5553C9.23283 20.0454 11.3771 20.0454 12.2101 18.5553L16.165 11.4815Z" fill="#78DC00"/>
<path d="M118 5H122V5.48509H120.311V9H119.681V5.48509H118V5Z" fill="#282828"/>
<path d="M122 5H122.488L124.032 7.01113L125.524 5H126V9H125.472V5.89702L124.084 7.73638H123.957L122.528 5.89702V9H122V5Z" fill="#282828"/>
</svg>
