<svg width="202" height="80" viewBox="0 0 202 80" fill="none" xmlns="http://www.w3.org/2000/svg">
<path d="M5.81243 34.5069C5.87686 34.3328 6.12314 34.3328 6.18757 34.5069L7.58863 38.2932C7.60889 38.348 7.65205 38.3911 7.70679 38.4114L11.4931 39.8124C11.6672 39.8769 11.6672 40.1231 11.4931 40.1876L7.70679 41.5886C7.65205 41.6089 7.60889 41.652 7.58863 41.7068L6.18757 45.4931C6.12314 45.6672 5.87686 45.6672 5.81243 45.4931L4.41137 41.7068C4.39111 41.652 4.34795 41.6089 4.29321 41.5886L0.506902 40.1876C0.332778 40.1231 0.332778 39.8769 0.506901 39.8124L4.29321 38.4114C4.34795 38.3911 4.39111 38.348 4.41137 38.2932L5.81243 34.5069Z" fill="url(#paint0_linear_252_2875)"/>
<path d="M49.9281 30.592C49.9281 37.622 45.3401 42.062 39.4201 42.062C33.2781 42.062 28.9861 37.696 28.9861 30.592C28.9861 23.414 33.2781 19.122 39.4941 19.122C45.4881 19.122 49.9281 23.414 49.9281 30.592ZM38.9021 61.154C34.0921 61.154 30.4661 58.786 29.8741 53.532H20.9201C21.7341 60.636 26.9141 67.962 38.1621 67.962C53.8501 67.962 59.5481 54.05 59.5481 38.584C59.5481 22.896 53.3321 12.388 39.4201 12.388C27.8761 12.388 19.8841 20.01 19.8841 30.666C19.8841 41.914 27.8761 49.018 37.7181 49.018C43.9341 49.018 48.2261 46.354 50.5941 42.876C50.3721 53.828 46.2281 61.154 38.9021 61.154ZM85.1799 12.388C73.9319 12.388 66.8279 18.16 66.8279 26.152C66.8279 30.814 68.9739 35.698 73.7099 38.362C67.4199 41.544 65.1999 46.798 65.1999 51.756C65.1999 62.338 73.9319 67.962 85.1799 67.962C96.4279 67.962 105.16 62.338 105.16 51.756C105.16 46.724 102.94 41.618 96.6499 38.362C101.608 35.476 103.532 30.814 103.532 26.152C103.532 18.16 96.3539 12.388 85.1799 12.388ZM85.1799 41.766C91.7659 41.766 95.9839 45.466 95.9839 51.46C95.9839 57.602 91.7659 61.154 85.1799 61.154C78.5939 61.154 74.3759 57.602 74.3759 51.46C74.3759 45.466 78.5939 41.766 85.1799 41.766ZM94.7999 27.262C94.7999 32.368 91.0999 35.772 85.1799 35.772C79.3339 35.772 75.4859 32.368 75.4859 27.262C75.4859 22.156 79.3339 19.122 85.1799 19.122C91.0999 19.122 94.7999 22.156 94.7999 27.262ZM122.978 44.06C131.266 44.06 135.558 37.844 135.558 28.372C135.558 18.9 131.266 12.832 122.978 12.832C114.616 12.832 110.324 18.826 110.324 28.372C110.324 37.844 114.616 44.06 122.978 44.06ZM122.978 39.324C119.204 39.324 116.91 35.772 116.91 28.372C116.91 21.046 119.204 17.642 122.978 17.642C126.752 17.642 128.972 21.046 128.972 28.372C128.972 35.772 126.752 39.324 122.978 39.324ZM132.376 67L169.376 13.35H160.052L123.052 67H132.376ZM169.598 67.518C177.886 67.518 182.178 61.302 182.178 51.83C182.178 42.358 177.886 36.29 169.598 36.29C161.236 36.29 156.944 42.284 156.944 51.83C156.944 61.302 161.236 67.518 169.598 67.518ZM169.598 62.782C165.824 62.782 163.53 59.23 163.53 51.83C163.53 44.504 165.824 41.1 169.598 41.1C173.372 41.1 175.592 44.504 175.592 51.83C175.592 59.23 173.372 62.782 169.598 62.782Z" fill="url(#paint1_linear_252_2875)"/>
<path d="M195.812 34.5069C195.877 34.3328 196.123 34.3328 196.188 34.5069L197.589 38.2932C197.609 38.348 197.652 38.3911 197.707 38.4114L201.493 39.8124C201.667 39.8769 201.667 40.1231 201.493 40.1876L197.707 41.5886C197.652 41.6089 197.609 41.652 197.589 41.7068L196.188 45.4931C196.123 45.6672 195.877 45.6672 195.812 45.4931L194.411 41.7068C194.391 41.652 194.348 41.6089 194.293 41.5886L190.507 40.1876C190.333 40.1231 190.333 39.8769 190.507 39.8124L194.293 38.4114C194.348 38.3911 194.391 38.348 194.411 38.2932L195.812 34.5069Z" fill="url(#paint2_linear_252_2875)"/>
<defs>
<linearGradient id="paint0_linear_252_2875" x1="2.52653" y1="40.2319" x2="49.9436" y2="21.0896" gradientUnits="userSpaceOnUse">
<stop offset="0.0127369" stop-color="#6A36FF"/>
<stop offset="0.377959" stop-color="#02BA8B"/>
<stop offset="1" stop-color="#9CF36A"/>
</linearGradient>
<linearGradient id="paint1_linear_252_2875" x1="52.3715" y1="41.5462" x2="152.392" y2="105.104" gradientUnits="userSpaceOnUse">
<stop offset="0.0127369" stop-color="#6A36FF"/>
<stop offset="1" stop-color="#6AF3DA"/>
</linearGradient>
<linearGradient id="paint2_linear_252_2875" x1="183.5" y1="35" x2="203.38" y2="37.6269" gradientUnits="userSpaceOnUse">
<stop offset="0.0127369" stop-color="#6788FB"/>
<stop offset="0.377959" stop-color="#6B78F3"/>
<stop offset="1" stop-color="#6BF2DC"/>
</linearGradient>
</defs>
</svg>
