<svg width="584" height="645" viewBox="0 0 584 645" fill="none" xmlns="http://www.w3.org/2000/svg">
<g opacity="0.9" filter="url(#filter0_f_250_2796)">
<path fill-rule="evenodd" clip-rule="evenodd" d="M275.004 290.003C283.491 278.436 291.445 267.114 304.301 260.752C320.12 252.925 338.013 243.878 354.245 250.793C371.118 257.981 379.152 276.926 383.88 294.652C388.401 311.605 386.951 329.255 379.395 345.095C371.486 361.674 358.527 374.733 341.928 382.592C322.14 391.961 299.135 402.092 279.521 392.383C259.703 382.572 249.723 358.565 248.747 336.464C247.932 317.991 264.064 304.912 275.004 290.003Z" fill="#C4C4C4"/>
<path fill-rule="evenodd" clip-rule="evenodd" d="M275.004 290.003C283.491 278.436 291.445 267.114 304.301 260.752C320.12 252.925 338.013 243.878 354.245 250.793C371.118 257.981 379.152 276.926 383.88 294.652C388.401 311.605 386.951 329.255 379.395 345.095C371.486 361.674 358.527 374.733 341.928 382.592C322.14 391.961 299.135 402.092 279.521 392.383C259.703 382.572 249.723 358.565 248.747 336.464C247.932 317.991 264.064 304.912 275.004 290.003Z" fill="url(#paint0_radial_250_2796)"/>
</g>
<defs>
<filter id="filter0_f_250_2796" x="0.717712" y="0.331146" width="633.722" height="643.996" filterUnits="userSpaceOnUse" color-interpolation-filters="sRGB">
<feFlood flood-opacity="0" result="BackgroundImageFix"/>
<feBlend mode="normal" in="SourceGraphic" in2="BackgroundImageFix" result="shape"/>
<feGaussianBlur stdDeviation="124" result="effect1_foregroundBlur_250_2796"/>
</filter>
<radialGradient id="paint0_radial_250_2796" cx="0" cy="0" r="1" gradientUnits="userSpaceOnUse" gradientTransform="translate(286.311 341.018) rotate(-14.0348) scale(70.15 74.4574)">
<stop stop-color="#DBBFFF"/>
<stop offset="1" stop-color="#AEFCFC"/>
</radialGradient>
</defs>
</svg>
