<svg width="242" height="116" viewBox="0 0 242 116" fill="none" xmlns="http://www.w3.org/2000/svg">
<g opacity="0.2" clip-path="url(#clip0_158:881)">
<path d="M379.2 5.27271H343.878L308.555 40.6H273.76L238.438 5.27271H203.115M343.878 40.6H379.2H343.878ZM273.76 5.27271H309.082H273.76ZM203.642 40.6H238.965H203.642Z" stroke="white" stroke-miterlimit="10"/>
<path d="M27.5576 5.27271H97.6752L132.998 40.6H203.115M27.5576 40.6H97.6752H27.5576ZM203.642 5.27271H132.998H203.642Z" stroke="white" stroke-miterlimit="10"/>
<path d="M-148 5.27271H27.5576M-148 40.6H27.5576H-148Z" stroke="white" stroke-miterlimit="10"/>
<path d="M203.642 75.4001H379.2M203.642 110.727H379.2H203.642Z" stroke="white" stroke-miterlimit="10"/>
<path d="M27.5576 110.727H62.88L98.2024 75.4001H133.525L168.32 110.727H203.642M62.88 75.4001H27.5576H62.88ZM132.998 110.727H97.6752H132.998ZM203.642 75.4001H168.32H203.642Z" stroke="white" stroke-miterlimit="10"/>
<path d="M-148 110.727H-112.678L-77.3552 75.4001H-42.56L-7.2376 110.727H28.0848M-112.678 75.4001H-148H-112.678ZM-42.56 110.727H-77.8824H-42.56ZM27.5576 75.4001H-7.7648H27.5576Z" stroke="white" stroke-miterlimit="10"/>
<g filter="url(#filter0_d_158:881)">
<rect x="171" y="110" width="62" height="2" fill="#90FFFF"/>
</g>
<g filter="url(#filter1_d_158:881)">
<rect x="54" y="4" width="28" height="2" fill="#90FFFF"/>
</g>
</g>
<defs>
<filter id="filter0_d_158:881" x="159" y="102" width="86" height="26" filterUnits="userSpaceOnUse" color-interpolation-filters="sRGB">
<feFlood flood-opacity="0" result="BackgroundImageFix"/>
<feColorMatrix in="SourceAlpha" type="matrix" values="0 0 0 0 0 0 0 0 0 0 0 0 0 0 0 0 0 0 127 0" result="hardAlpha"/>
<feOffset dy="4"/>
<feGaussianBlur stdDeviation="6"/>
<feComposite in2="hardAlpha" operator="out"/>
<feColorMatrix type="matrix" values="0 0 0 0 0.564706 0 0 0 0 1 0 0 0 0 1 0 0 0 1 0"/>
<feBlend mode="normal" in2="BackgroundImageFix" result="effect1_dropShadow_158:881"/>
<feBlend mode="normal" in="SourceGraphic" in2="effect1_dropShadow_158:881" result="shape"/>
</filter>
<filter id="filter1_d_158:881" x="42" y="-4" width="52" height="26" filterUnits="userSpaceOnUse" color-interpolation-filters="sRGB">
<feFlood flood-opacity="0" result="BackgroundImageFix"/>
<feColorMatrix in="SourceAlpha" type="matrix" values="0 0 0 0 0 0 0 0 0 0 0 0 0 0 0 0 0 0 127 0" result="hardAlpha"/>
<feOffset dy="4"/>
<feGaussianBlur stdDeviation="6"/>
<feComposite in2="hardAlpha" operator="out"/>
<feColorMatrix type="matrix" values="0 0 0 0 0.564706 0 0 0 0 1 0 0 0 0 1 0 0 0 1 0"/>
<feBlend mode="normal" in2="BackgroundImageFix" result="effect1_dropShadow_158:881"/>
<feBlend mode="normal" in="SourceGraphic" in2="effect1_dropShadow_158:881" result="shape"/>
</filter>
<clipPath id="clip0_158:881">
<rect width="610" height="116" fill="white"/>
</clipPath>
</defs>
</svg>
