<svg width="565" height="116" viewBox="0 0 565 116" fill="none" xmlns="http://www.w3.org/2000/svg">
<g clip-path="url(#clip0_170:557)">
<g opacity="0.2" clip-path="url(#clip1_170:557)">
<path d="M389.442 40.6H459.56L494.882 5.27271H565M389.442 5.27271H459.56H389.442ZM565 40.6H494.882H565Z" stroke="white" stroke-miterlimit="10"/>
<path d="M389.442 5.27271H354.12L318.797 40.6H283.475L248.68 5.27271H213.357M354.12 40.6H389.442H354.12ZM284.002 5.27271H319.325H284.002ZM213.357 40.6H248.68H213.357Z" stroke="white" stroke-miterlimit="10"/>
<path d="M37.7998 40.6H107.917L143.24 5.27271H213.357M37.7998 5.27271H107.917H37.7998ZM213.357 40.6H143.24H213.357Z" stroke="white" stroke-miterlimit="10"/>
<path d="M37.7998 5.27271H2.47733L-32.8451 40.6H-67.6402L-102.963 5.27271H-138.285M2.47733 40.6H37.7998H2.47733ZM-67.6402 5.27271H-32.3177H-67.6402ZM-137.758 40.6H-102.435H-137.758Z" stroke="white" stroke-miterlimit="10"/>
<path d="M389.442 110.727H424.765L460.087 75.4001H495.41L530.732 110.727H566.055M424.238 75.4001H388.915H424.238ZM494.883 110.727H459.56H494.883ZM565 75.4001H529.678H565Z" stroke="white" stroke-miterlimit="10"/>
<path d="M213.357 75.4001H388.915M213.357 110.727H388.915H213.357Z" stroke="white" stroke-miterlimit="10"/>
<path d="M37.7998 110.727H73.1223L108.445 75.4001H143.767L179.09 110.727H214.412M73.1223 75.4001H37.7998H73.1223ZM143.24 110.727H107.917H143.24ZM213.358 75.4001H178.035H213.358Z" stroke="white" stroke-miterlimit="10"/>
<path d="M-137.758 75.4001H-67.6402L-32.3178 110.727H37.7998M-137.758 110.727H-67.6402H-137.758ZM37.7998 75.4001H-32.3178H37.7998Z" stroke="white" stroke-miterlimit="10"/>
</g>
<g filter="url(#filter0_d_170:557)">
<rect x="211" y="110" width="28" height="2" fill="#FF4C00"/>
</g>
<g filter="url(#filter1_d_170:557)">
<rect x="155" y="4" width="28" height="2" fill="#FF4C00"/>
</g>
<g filter="url(#filter2_d_170:557)">
<rect x="249" y="74" width="48" height="2" fill="#FF4C00"/>
</g>
</g>
<defs>
<filter id="filter0_d_170:557" x="199" y="102" width="52" height="26" filterUnits="userSpaceOnUse" color-interpolation-filters="sRGB">
<feFlood flood-opacity="0" result="BackgroundImageFix"/>
<feColorMatrix in="SourceAlpha" type="matrix" values="0 0 0 0 0 0 0 0 0 0 0 0 0 0 0 0 0 0 127 0" result="hardAlpha"/>
<feOffset dy="4"/>
<feGaussianBlur stdDeviation="6"/>
<feComposite in2="hardAlpha" operator="out"/>
<feColorMatrix type="matrix" values="0 0 0 0 1 0 0 0 0 0.298039 0 0 0 0 0 0 0 0 1 0"/>
<feBlend mode="normal" in2="BackgroundImageFix" result="effect1_dropShadow_170:557"/>
<feBlend mode="normal" in="SourceGraphic" in2="effect1_dropShadow_170:557" result="shape"/>
</filter>
<filter id="filter1_d_170:557" x="143" y="-4" width="52" height="26" filterUnits="userSpaceOnUse" color-interpolation-filters="sRGB">
<feFlood flood-opacity="0" result="BackgroundImageFix"/>
<feColorMatrix in="SourceAlpha" type="matrix" values="0 0 0 0 0 0 0 0 0 0 0 0 0 0 0 0 0 0 127 0" result="hardAlpha"/>
<feOffset dy="4"/>
<feGaussianBlur stdDeviation="6"/>
<feComposite in2="hardAlpha" operator="out"/>
<feColorMatrix type="matrix" values="0 0 0 0 1 0 0 0 0 0.298039 0 0 0 0 0 0 0 0 1 0"/>
<feBlend mode="normal" in2="BackgroundImageFix" result="effect1_dropShadow_170:557"/>
<feBlend mode="normal" in="SourceGraphic" in2="effect1_dropShadow_170:557" result="shape"/>
</filter>
<filter id="filter2_d_170:557" x="237" y="66" width="72" height="26" filterUnits="userSpaceOnUse" color-interpolation-filters="sRGB">
<feFlood flood-opacity="0" result="BackgroundImageFix"/>
<feColorMatrix in="SourceAlpha" type="matrix" values="0 0 0 0 0 0 0 0 0 0 0 0 0 0 0 0 0 0 127 0" result="hardAlpha"/>
<feOffset dy="4"/>
<feGaussianBlur stdDeviation="6"/>
<feComposite in2="hardAlpha" operator="out"/>
<feColorMatrix type="matrix" values="0 0 0 0 1 0 0 0 0 0.298039 0 0 0 0 0 0 0 0 1 0"/>
<feBlend mode="normal" in2="BackgroundImageFix" result="effect1_dropShadow_170:557"/>
<feBlend mode="normal" in="SourceGraphic" in2="effect1_dropShadow_170:557" result="shape"/>
</filter>
<clipPath id="clip0_170:557">
<rect width="610" height="116" fill="white" transform="translate(-45)"/>
</clipPath>
<clipPath id="clip1_170:557">
<rect width="5272" height="116" fill="white" transform="translate(-4707)"/>
</clipPath>
</defs>
</svg>
