<svg width="119" height="49" viewBox="0 0 119 49" fill="none" xmlns="http://www.w3.org/2000/svg">
<path d="M29.8195 15.435L37.0419 28.0765H45.8013L29.8195 0L13.8847 28.0765H22.6442L29.8195 15.435Z" fill="white"/>
<path d="M7.22231 44.7413C7.23226 45.3068 7.13729 45.869 6.94237 46.3987C6.76427 46.899 6.47783 47.3521 6.10422 47.7248C5.7375 48.1044 5.29152 48.3955 4.79923 48.5765C4.26117 48.7703 3.69378 48.8666 3.12293 48.8609H0V40.6226H3.12209C3.69294 40.6169 4.26033 40.7132 4.79839 40.9071C5.29068 41.088 5.73666 41.3791 6.10338 41.7588C6.47699 42.1314 6.76343 42.5846 6.94153 43.0848C7.13265 43.6153 7.22777 44.1765 7.22231 44.7413ZM5.68431 44.7413C5.6982 44.3229 5.6351 43.9056 5.49824 43.5107C5.39475 43.176 5.21957 42.8689 4.98529 42.6113C4.75265 42.3804 4.48528 42.1886 4.19325 42.0432C3.85312 41.9038 3.48773 41.8393 3.12126 41.8541H1.538V47.6779H3.12209C3.48751 47.692 3.85171 47.6273 4.19073 47.488C4.49613 47.3666 4.76795 47.1717 4.98278 46.9199C5.20731 46.6552 5.38126 46.3502 5.49573 46.0206C5.63003 45.6082 5.69382 45.1756 5.68431 44.7413Z" fill="white"/>
<path d="M31.0307 48.9078H29.8657C29.7508 48.9052 29.6386 48.8726 29.5396 48.8132C29.4537 48.7572 29.3883 48.674 29.3536 48.5765L28.7476 46.8731H25.395L24.789 48.5765C24.7543 48.674 24.6889 48.7572 24.603 48.8132C24.559 48.8527 24.5069 48.8817 24.4505 48.8981C24.3941 48.9144 24.3348 48.9177 24.2769 48.9078H23.1102L26.2784 40.6226H27.8164L31.0307 48.9078ZM25.7655 45.783H28.3746L27.3965 43.0371L27.2565 42.6113C27.2096 42.4222 27.1635 42.28 27.1166 42.0901C27.0696 42.2791 27.0235 42.4691 26.9766 42.6113C26.9443 42.7577 26.8974 42.9004 26.8366 43.0371L25.7655 45.783Z" fill="white"/>
<path d="M55.1668 44.7388C55.1723 45.3188 55.0776 45.8954 54.8868 46.4421C54.7087 46.9424 54.4223 47.3956 54.0487 47.7682C53.6719 48.1471 53.2295 48.452 52.7437 48.6676C52.2084 48.8772 51.641 48.9893 51.0674 48.9989C50.4917 49.0126 49.9198 48.8995 49.3911 48.6676C48.8961 48.4693 48.4504 48.1622 48.0861 47.7682C47.7125 47.3956 47.4261 46.9424 47.248 46.4421C46.8757 45.3381 46.8757 44.1395 47.248 43.0354C47.4261 42.5352 47.7125 42.082 48.0861 41.7094C48.4629 41.3304 48.9053 41.0255 49.3911 40.81C49.9264 40.6004 50.4938 40.4882 51.0674 40.4787C51.6431 40.465 52.215 40.578 52.7437 40.81C53.2295 41.0255 53.6719 41.3304 54.0487 41.7094C54.4223 42.082 54.7087 42.5352 54.8868 43.0354C55.0776 43.5822 55.1723 44.1587 55.1668 44.7388ZM53.6288 44.7388C53.6427 44.3204 53.5796 43.903 53.4427 43.5081C53.3392 43.1735 53.164 42.8663 52.9298 42.6087C52.6971 42.3778 52.4297 42.1861 52.1377 42.0407C51.4449 41.7882 50.6873 41.7882 49.9946 42.0407C49.6892 42.162 49.4174 42.357 49.2025 42.6087C48.978 42.8735 48.804 43.1785 48.6896 43.5081C48.4411 44.3094 48.4411 45.169 48.6896 45.9703C48.7931 46.3049 48.9683 46.6121 49.2025 46.8697C49.4352 47.1006 49.7025 47.2924 49.9946 47.4378C50.3358 47.5731 50.7004 47.6374 51.0666 47.6268C51.433 47.6416 51.7984 47.5772 52.1385 47.4378C52.444 47.3164 52.7158 47.1214 52.9306 46.8697C53.1551 46.6049 53.3291 46.2999 53.4435 45.9703C53.558 45.5698 53.6205 45.1558 53.6296 44.7388H53.6288Z" fill="white"/>
<path d="M71.4277 48.1028C71.4203 47.9902 71.4363 47.8774 71.4746 47.7715C71.5176 47.6653 71.581 47.5687 71.661 47.4874C71.7409 47.4062 71.8359 47.3418 71.9405 47.2981C72.1534 47.235 72.3796 47.235 72.5925 47.2981C72.6971 47.3418 72.7921 47.4062 72.8721 47.4874C72.9521 47.5687 73.0154 47.6653 73.0585 47.7715C73.0967 47.8774 73.1127 47.9902 73.1054 48.1028C73.1163 48.2154 73.1002 48.3291 73.0585 48.434C73.0154 48.5403 72.9521 48.6369 72.8721 48.7181C72.7921 48.7994 72.6971 48.8638 72.5925 48.9075C72.4883 48.9464 72.3773 48.9627 72.2665 48.9552C72.1557 48.9662 72.0438 48.9499 71.9405 48.9075C71.8359 48.8638 71.7409 48.7994 71.661 48.7181C71.581 48.6369 71.5176 48.5403 71.4746 48.434C71.4329 48.3291 71.4168 48.2154 71.4277 48.1028Z" fill="white"/>
<path d="M88.2945 40.6219H89.5056C89.6205 40.6245 89.7327 40.657 89.8317 40.7164C89.9176 40.7725 89.983 40.8557 90.0177 40.9532L91.9279 46.019C91.9748 46.1612 92.0678 46.3503 92.1139 46.5394C92.1545 46.7507 92.2169 46.9571 92.3 47.1551C92.3809 46.7531 92.4898 46.3575 92.626 45.9713L94.5362 40.9055C94.5709 40.808 94.6363 40.7248 94.7222 40.6687C94.7662 40.6292 94.8183 40.6003 94.8747 40.5839C94.9311 40.5675 94.9904 40.5642 95.0483 40.5742H96.2594L92.9512 48.8593H91.6002L88.2945 40.6219Z" fill="white"/>
<path d="M118.161 46.9153C118.254 46.9153 118.301 46.963 118.394 47.0099L119 47.6725C118.686 48.0913 118.268 48.4181 117.789 48.6195C117.246 48.8606 116.657 48.9739 116.065 48.9508C115.503 48.9696 114.945 48.8562 114.434 48.6195C113.971 48.4085 113.546 48.1207 113.177 47.7679C112.833 47.3804 112.564 46.9305 112.385 46.4418C112.194 45.895 112.099 45.3185 112.105 44.7384C112.091 44.1534 112.202 43.5723 112.431 43.0351C112.613 42.5373 112.899 42.0852 113.269 41.7095C113.639 41.3338 114.084 41.0431 114.574 40.8573C115.109 40.6477 115.676 40.5356 116.25 40.526C116.753 40.5067 117.255 40.5888 117.727 40.7676C118.199 40.9463 118.631 41.2182 118.999 41.5676L118.486 42.2779C118.439 42.3256 118.439 42.3725 118.393 42.4202C118.347 42.4679 118.3 42.4679 118.207 42.4679C118.108 42.4581 118.012 42.4258 117.927 42.3733C117.834 42.3256 117.741 42.2311 117.601 42.1365C117.435 42.0487 117.264 41.9697 117.089 41.8998C116.828 41.8391 116.562 41.8074 116.294 41.8052C115.928 41.7947 115.564 41.859 115.222 41.9943C114.91 42.1273 114.625 42.3202 114.384 42.5624C114.145 42.8248 113.956 43.1296 113.825 43.4618C113.688 43.8566 113.625 44.274 113.639 44.6924C113.601 45.4661 113.851 46.2261 114.338 46.8216C114.562 47.063 114.831 47.2562 115.13 47.3897C115.437 47.5292 115.772 47.594 116.108 47.5788C116.296 47.5865 116.484 47.5704 116.667 47.5311C116.827 47.5272 116.985 47.4953 117.133 47.4366C117.281 47.3936 117.422 47.33 117.553 47.2475C117.692 47.1529 117.786 47.0584 117.925 46.963C117.972 46.9153 118.019 46.9153 118.065 46.8685C118.068 46.9664 118.114 46.9153 118.161 46.9153Z" fill="white"/>
<path d="M0 0.0937805V28.1703C1.81121 28.1705 3.60473 27.8082 5.27811 27.104C6.9515 26.3997 8.47197 25.3675 9.75269 24.0661C11.0334 22.7647 12.0493 21.2196 12.7423 19.5192C13.4353 17.8188 13.7919 15.9963 13.7917 14.1559C13.7942 10.4339 12.3434 6.8629 9.75776 4.22657C7.17213 1.59025 3.66285 0.103931 0 0.0937805Z" fill="white"/>
<path d="M89.1335 12.7353L81.9581 0.0937805H73.1987L89.1335 28.1703L105.115 0.0937805H96.3558L89.1335 12.7353Z" fill="white"/>
<path d="M119 28.0765V0C115.336 5.54796e-08 111.822 1.47903 109.231 4.11171C106.64 6.74439 105.185 10.3151 105.185 14.0383C105.185 17.7614 106.64 21.3321 109.231 23.9648C111.822 26.5975 115.336 28.0765 119 28.0765Z" fill="white"/>
<path d="M59.593 28.1703V0.0937805C55.929 0.0937805 52.4151 1.57281 49.8242 4.20549C47.2334 6.83817 45.7779 10.4089 45.7779 14.132C45.7779 17.8552 47.2334 21.4259 49.8242 24.0586C52.4151 26.6913 55.929 28.1703 59.593 28.1703Z" fill="white"/>
<path d="M59.407 0.0937805V28.1703C63.071 28.1703 66.5849 26.6913 69.1757 24.0586C71.7666 21.4259 73.2221 17.8552 73.2221 14.132C73.2221 10.4089 71.7666 6.83817 69.1757 4.20549C66.5849 1.57281 63.071 0.0937805 59.407 0.0937805Z" fill="white"/>
<path d="M76.6937 28.1242C78.6754 28.1242 80.2818 26.4918 80.2818 24.4782C80.2818 22.4645 78.6754 20.8321 76.6937 20.8321C74.7121 20.8321 73.1056 22.4645 73.1056 24.4782C73.1056 26.4918 74.7121 28.1242 76.6937 28.1242Z" fill="white"/>
<path d="M42.2141 7.33939C44.1957 7.33939 45.8022 5.707 45.8022 3.69335C45.8022 1.67969 44.1957 0.0473022 42.2141 0.0473022C40.2324 0.0473022 38.626 1.67969 38.626 3.69335C38.626 5.707 40.2324 7.33939 42.2141 7.33939Z" fill="white"/>
</svg>
