<svg width="64" height="64" viewBox="0 0 64 64" fill="none" xmlns="http://www.w3.org/2000/svg">
<path d="M50.125 10.271L32.625 0.16748C32.2383 -0.0556641 31.7617 -0.0556641 31.375 0.16748L13.875 10.271C13.4883 10.4946 13.25 10.9072 13.25 11.3535V20.3682C13.25 20.8145 13.4883 21.2275 13.875 21.4507L18.1699 23.9302L13.875 26.4106C13.4883 26.6338 13.25 27.0464 13.25 27.4927V36.5073C13.25 36.9536 13.4883 37.3667 13.875 37.5898L18.1699 40.0693L13.875 42.5493C13.4883 42.7725 13.25 43.1855 13.25 43.6318V52.6465C13.25 53.0928 13.4883 53.5059 13.875 53.729L31.375 63.8325C31.5684 63.9443 31.7842 64 32 64C32.2158 64 32.4316 63.9443 32.625 63.8325L50.125 53.729C50.5117 53.5059 50.75 53.0928 50.75 52.6465V43.6318C50.75 43.1855 50.5117 42.7725 50.125 42.5493L45.8296 40.0698L50.125 37.5898C50.5117 37.3667 50.75 36.9536 50.75 36.5073V27.4927C50.75 27.0464 50.5117 26.6338 50.125 26.4106L45.8301 23.9307L50.125 21.4507C50.5117 21.2275 50.75 20.8149 50.75 20.3682V11.354C50.75 10.9072 50.5117 10.4946 50.125 10.271ZM32 2.69336L47 11.354L32 20.0142L17 11.354L32 2.69336ZM15.75 13.5186L30.75 22.1792V28.3066L15.75 19.6465V13.5186ZM15.75 29.6577L30.75 38.3184V44.4458L15.75 35.7856V29.6577ZM15.75 45.7969L30.75 54.457V60.585L15.75 51.9248V45.7969ZM33.25 60.585V54.4575L48.25 45.7969V51.9248L33.25 60.585ZM47 43.6318L32 52.292L17 43.6318L20.6699 41.5127L31.375 47.6934C31.5684 47.8052 31.7842 47.8608 32 47.8608C32.2158 47.8608 32.4316 47.8052 32.625 47.6934L43.3296 41.5132L47 43.6318ZM33.25 44.4458V38.3184L48.25 29.6582V35.7856L33.25 44.4458ZM47 27.4927L32 36.1533L17 27.4927L20.6699 25.374L31.375 31.5542C31.5684 31.666 31.7842 31.7217 32 31.7217C32.2158 31.7217 32.4316 31.666 32.625 31.5542L43.3301 25.374L47 27.4927ZM33.25 28.3071V22.1792L48.25 13.519V19.6465L33.25 28.3071Z" fill="url(#paint0_linear)"/>
<path d="M58.5 32.4863C58.1714 32.4863 57.8486 32.6191 57.6162 32.8525C57.3838 33.085 57.25 33.4062 57.25 33.7363C57.25 34.0649 57.3838 34.3877 57.6162 34.6201C57.8486 34.8525 58.1714 34.9863 58.5 34.9863C58.8286 34.9863 59.1514 34.8525 59.3838 34.6201C59.6162 34.3877 59.75 34.0649 59.75 33.7363C59.75 33.4062 59.6162 33.084 59.3838 32.8525C59.1514 32.6191 58.8286 32.4863 58.5 32.4863Z" fill="#0C4982"/>
<path d="M62.75 13.062C62.75 10.7188 60.8438 8.81201 58.5 8.81201C56.1567 8.81201 54.25 10.7188 54.25 13.062C54.25 14.9707 55.5146 16.5894 57.25 17.1245V28.1108C57.25 28.8013 57.8096 29.3608 58.5 29.3608C59.1904 29.3608 59.75 28.8013 59.75 28.1108V17.1245C61.4854 16.5894 62.75 14.9707 62.75 13.062ZM58.5 14.812C57.5352 14.812 56.75 14.0273 56.75 13.062C56.75 12.0972 57.5352 11.312 58.5 11.312C59.4648 11.312 60.25 12.0972 60.25 13.062C60.25 14.0273 59.4648 14.812 58.5 14.812Z" fill="url(#paint1_linear)"/>
<path d="M5.5 56.8589C4.80957 56.8589 4.25 57.4189 4.25 58.1089V62.75C4.25 63.4404 4.80957 64 5.5 64C6.19043 64 6.75 63.4404 6.75 62.75V58.1089C6.75 57.4185 6.19043 56.8589 5.5 56.8589Z" fill="#0C4982"/>
<path d="M5.5 33.1851C3.15674 33.1851 1.25 35.0918 1.25 37.4351C1.25 39.3438 2.51465 40.9624 4.25 41.4971V51.8657C4.25 52.5562 4.80957 53.1157 5.5 53.1157C6.19043 53.1157 6.75 52.5562 6.75 51.8657V41.4971C8.48535 40.9619 9.75 39.3438 9.75 37.4351C9.75 35.0918 7.84375 33.1851 5.5 33.1851ZM5.5 39.1851C4.53516 39.1851 3.75 38.4004 3.75 37.4351C3.75 36.4702 4.53516 35.6851 5.5 35.6851C6.46484 35.6851 7.25 36.4702 7.25 37.4351C7.25 38.4004 6.46484 39.1851 5.5 39.1851Z" fill="url(#paint2_linear)"/>
<path fill-rule="evenodd" clip-rule="evenodd" d="M18.1142 23.9623L13.875 26.4106C13.4883 26.6338 13.25 27.0464 13.25 27.4927V36.5073C13.25 36.8271 13.3724 37.1299 13.584 37.3579L31.7212 47.8294C31.8129 47.8504 31.9065 47.8608 32 47.8608C32.1033 47.8608 32.2065 47.8481 32.3073 47.8226L50.3958 37.3792C50.6198 37.1489 50.75 36.8372 50.75 36.5073V27.4927C50.75 27.0464 50.5117 26.6338 50.125 26.4106L45.8301 23.9307C44.5 24.5 43.3771 25.4011 43.3771 25.4011L47 27.4927L32 36.1533L17 27.4927L20.4504 25.5008L18.1142 23.9623ZM30.75 38.3184L15.75 29.6577V35.7856L30.75 44.4458V38.3184ZM33.25 38.3184V44.4458L48.25 35.7856V29.6582L33.25 38.3184Z" fill="url(#paint3_linear)"/>
<path fill-rule="evenodd" clip-rule="evenodd" d="M18.1142 40.0317L13.875 42.48C13.4883 42.7031 13.25 43.1157 13.25 43.562V52.5767C13.25 52.8965 13.3724 53.1992 13.584 53.4272L31.7212 63.8988C31.8129 63.9197 31.9065 63.9302 32 63.9302C32.1033 63.9302 32.2065 63.9174 32.3073 63.8919L50.3958 53.4485C50.6198 53.2182 50.75 52.9065 50.75 52.5767V43.562C50.75 43.1157 50.5117 42.7031 50.125 42.48L45.8301 40C44.5 40.5693 43.3771 41.4705 43.3771 41.4705L47 43.562L32 52.2227L17 43.562L20.5 41.5L18.1142 40.0317ZM30.75 54.3877L15.75 45.727V51.855L30.75 60.5151V54.3877ZM33.25 54.3877V60.5151L48.25 51.855V45.7275L33.25 54.3877Z" fill="url(#paint4_linear)"/>
<defs>
<linearGradient id="paint0_linear" x1="33" y1="22.5" x2="37.1445" y2="1.19532" gradientUnits="userSpaceOnUse">
<stop stop-color="#0088DC"/>
<stop offset="1" stop-color="#0D4A83"/>
</linearGradient>
<linearGradient id="paint1_linear" x1="58" y1="6.5" x2="51.173" y2="23.2109" gradientUnits="userSpaceOnUse">
<stop stop-color="#0088DC"/>
<stop offset="0.362016" stop-color="#0571BC"/>
<stop offset="1" stop-color="#0D4A83"/>
</linearGradient>
<linearGradient id="paint2_linear" x1="4.99998" y1="30.9426" x2="-1.47737" y2="47.2894" gradientUnits="userSpaceOnUse">
<stop stop-color="#0088DC"/>
<stop offset="0.362016" stop-color="#0571BC"/>
<stop offset="1" stop-color="#0D4A83"/>
</linearGradient>
<linearGradient id="paint3_linear" x1="32.5" y1="45" x2="35.1142" y2="31.4066" gradientUnits="userSpaceOnUse">
<stop stop-color="#0088DC"/>
<stop offset="1" stop-color="#0D4A83"/>
</linearGradient>
<linearGradient id="paint4_linear" x1="32.5" y1="53.5" x2="33.3026" y2="45.1248" gradientUnits="userSpaceOnUse">
<stop stop-color="#0088DC"/>
<stop offset="1" stop-color="#0D4A83"/>
</linearGradient>
</defs>
</svg>
