<svg width="57" height="40" viewBox="0 0 57 40" fill="none" xmlns="http://www.w3.org/2000/svg">
<path d="M3.67969 28.8522V24.2661H5.02187C5.45921 24.2661 5.80104 24.3568 6.05741 24.5383C6.34897 24.7449 6.49475 25.0624 6.49475 25.4807C6.49475 25.8839 6.32384 26.1862 5.98201 26.3828C6.47967 26.5491 6.72599 26.9019 6.72599 27.4411C6.72599 27.9148 6.5601 28.2727 6.22832 28.5196C5.93174 28.7414 5.53964 28.8522 5.05203 28.8522H3.67969ZM5.59996 25.5714C5.59996 25.2489 5.39386 25.0825 4.97663 25.0825H4.57448V26.0905H4.8962C5.36873 26.0905 5.59996 25.9191 5.59996 25.5714ZM4.5795 26.8565V28.0308H5.11235C5.44916 28.0308 5.66531 27.9451 5.77088 27.7687C5.81612 27.6931 5.84125 27.5873 5.84125 27.4562C5.84125 27.0581 5.59996 26.8616 5.12241 26.8616H4.5795V26.8565Z" fill="#0078C1"/>
<path d="M9.61142 27.814H10.4509C10.1443 28.57 9.61142 28.948 8.84733 28.948C8.34464 28.948 7.93243 28.7817 7.61071 28.4541C7.28899 28.1265 7.12813 27.7082 7.12813 27.2042C7.12813 26.7154 7.28899 26.3021 7.61574 25.9645C7.94249 25.6268 8.34966 25.4555 8.83727 25.4555C9.20926 25.4555 9.53601 25.5512 9.81752 25.7478C10.099 25.9443 10.3051 26.2165 10.4308 26.5692C10.5112 26.791 10.5514 27.0883 10.5514 27.4663H7.9274C8.01789 27.9904 8.32453 28.2474 8.85738 28.2474C9.05846 28.2474 9.21429 28.2222 9.31483 28.1769C9.44553 28.1063 9.54607 27.9854 9.61142 27.814ZM9.73709 26.8565C9.63152 26.3878 9.33494 26.156 8.84733 26.156C8.3748 26.156 8.07319 26.3878 7.94751 26.8565H9.73709Z" fill="#0078C1"/>
<path d="M12.4667 26.2013H11.9942V28.8522H11.1698V26.2013H10.8129V25.5512H11.1698V24.4677H11.9942V25.5512H12.4667V26.2013Z" fill="#0078C1"/>
<path d="M17.2322 25.5512L16.1564 28.8522H15.5281L14.9148 26.6599L14.3015 28.8522H13.6782L12.6024 25.5512H13.4369L14.015 27.678L14.6232 25.5512H15.2214L15.8247 27.678L16.4078 25.5512H17.2322Z" fill="#0078C1"/>
<path d="M19.9467 27.814H20.7862C20.4796 28.57 19.9467 28.948 19.1826 28.948C18.6799 28.948 18.2677 28.7817 17.946 28.4541C17.6243 28.1265 17.4634 27.7082 17.4634 27.2042C17.4634 26.7154 17.6243 26.3021 17.951 25.9645C18.2778 25.6268 18.685 25.4555 19.1726 25.4555C19.5446 25.4555 19.8713 25.5512 20.1528 25.7478C20.4343 25.9443 20.6404 26.2165 20.7661 26.5692C20.8465 26.791 20.8868 27.0883 20.8868 27.4663H18.2627C18.3532 27.9904 18.6598 28.2474 19.1927 28.2474C19.3938 28.2474 19.5496 28.2222 19.6501 28.1769C19.7859 28.1063 19.8864 27.9854 19.9467 27.814ZM20.0724 26.8565C19.9668 26.3878 19.6702 26.156 19.1826 26.156C18.7101 26.156 18.4085 26.3878 18.2828 26.8565H20.0724Z" fill="#0078C1"/>
<path d="M23.742 27.814H24.5815C24.2749 28.57 23.742 28.948 22.978 28.948C22.4753 28.948 22.0631 28.7817 21.7413 28.4541C21.4196 28.1265 21.2588 27.7082 21.2588 27.2042C21.2588 26.7154 21.4196 26.3021 21.7464 25.9645C22.0731 25.6268 22.4803 25.4555 22.9679 25.4555C23.3399 25.4555 23.6666 25.5512 23.9482 25.7478C24.2297 25.9443 24.4358 26.2165 24.5614 26.5692C24.6419 26.791 24.6821 27.0883 24.6821 27.4663H22.058C22.1485 27.9904 22.4552 28.2474 22.988 28.2474C23.1891 28.2474 23.3449 28.2222 23.4455 28.1769C23.5762 28.1063 23.6767 27.9854 23.742 27.814ZM23.8677 26.8565C23.7622 26.3878 23.4656 26.156 22.978 26.156C22.5054 26.156 22.2038 26.3878 22.0781 26.8565H23.8677Z" fill="#0078C1"/>
<path d="M28.1506 28.8522H27.3262V27.0127C27.3262 26.4886 27.1201 26.2215 26.7079 26.2215C26.2655 26.2215 26.0443 26.534 26.0443 27.1639V28.8522H25.2199V25.5512H26.0142V25.9191C26.2153 25.6218 26.5119 25.4756 26.904 25.4756C27.3162 25.4756 27.6278 25.5915 27.839 25.8284C28.0501 26.0602 28.1556 26.3878 28.1556 26.8011V28.8522H28.1506Z" fill="#0078C1"/>
<path d="M35.4095 26.544C35.4095 27.2143 35.1782 27.7838 34.7208 28.2424C34.2633 28.7061 33.7003 28.9379 33.0317 28.9379C32.3732 28.9379 31.8102 28.7061 31.3477 28.2374C30.8853 27.7687 30.654 27.2042 30.654 26.544C30.654 25.8838 30.8853 25.3244 31.3528 24.8658C31.8203 24.4072 32.3783 24.1754 33.0368 24.1754C33.6953 24.1754 34.2583 24.4072 34.7158 24.8658C35.1782 25.3194 35.4095 25.8838 35.4095 26.544ZM34.4795 26.539C34.4795 26.1257 34.3387 25.773 34.0623 25.4706C33.7808 25.1732 33.4389 25.0221 33.0317 25.0221C32.6296 25.0221 32.2878 25.1732 32.0063 25.4756C31.7248 25.778 31.584 26.1358 31.584 26.544C31.584 26.9573 31.7248 27.3151 32.0012 27.6276C32.2827 27.94 32.6246 28.0912 33.0317 28.0912C33.454 28.0912 33.8059 27.935 34.0824 27.6276C34.3438 27.3302 34.4795 26.9674 34.4795 26.539Z" fill="#0078C1"/>
<path d="M39.2048 27.6578C39.1093 28.061 38.9082 28.3785 38.6116 28.6053C38.315 28.832 37.9581 28.948 37.5358 28.948C37.0332 28.948 36.6159 28.7817 36.2892 28.4541C35.9624 28.1265 35.8016 27.7082 35.8016 27.2042C35.8016 26.6902 35.9624 26.2719 36.2791 25.9443C36.6008 25.6218 37.013 25.4555 37.5258 25.4555C37.9581 25.4555 38.32 25.5613 38.6066 25.773C38.9082 25.9998 39.1042 26.3173 39.1897 26.7355H38.3653C38.1994 26.3777 37.9129 26.2013 37.5007 26.2013C37.2191 26.2013 36.998 26.2971 36.8421 26.4836C36.6863 26.67 36.6059 26.9119 36.6059 27.1992C36.6059 27.4814 36.6913 27.7183 36.8622 27.9098C37.0331 28.1013 37.2594 28.2021 37.5308 28.2021C37.9531 28.2021 38.2296 28.0207 38.3653 27.6628H39.2048V27.6578Z" fill="#0078C1"/>
<path d="M42.055 27.814H42.8945C42.5879 28.57 42.055 28.948 41.2909 28.948C40.7883 28.948 40.376 28.7817 40.0543 28.4541C39.7326 28.1265 39.5717 27.7082 39.5717 27.2042C39.5717 26.7154 39.7326 26.3021 40.0594 25.9645C40.3861 25.6268 40.7933 25.4555 41.2809 25.4555C41.6529 25.4555 41.9796 25.5512 42.2611 25.7478C42.5426 25.9443 42.7487 26.2165 42.8744 26.5692C42.9548 26.791 42.9951 27.0883 42.9951 27.4663H40.371C40.4615 27.9904 40.7681 28.2474 41.301 28.2474C41.5021 28.2474 41.6579 28.2222 41.7584 28.1769C41.8891 28.1063 41.9897 27.9854 42.055 27.814ZM42.1807 26.8565C42.0751 26.3878 41.7786 26.156 41.2909 26.156C40.8184 26.156 40.5168 26.3878 40.3911 26.8565H42.1807Z" fill="#0078C1"/>
<path d="M46.8708 28.8522H46.0715V28.4642C45.8202 28.7817 45.4733 28.9429 45.036 28.9429C44.5484 28.9429 44.1563 28.7766 43.8446 28.439C43.538 28.1013 43.3821 27.6881 43.3821 27.1992C43.3821 26.7104 43.5329 26.2971 43.8396 25.9645C44.1462 25.6268 44.5383 25.4605 45.0209 25.4605C45.4633 25.4605 45.8051 25.6117 46.0464 25.9141V25.5513H46.8708V28.8522ZM46.0715 27.2143C46.0715 26.9321 45.981 26.6953 45.8001 26.4987C45.6191 26.3022 45.3879 26.2014 45.1114 26.2014C44.8399 26.2014 44.6187 26.2971 44.4428 26.4937C44.2669 26.6902 44.1814 26.922 44.1814 27.1942C44.1814 27.4613 44.2719 27.6981 44.4529 27.8997C44.6338 28.1013 44.855 28.2021 45.1214 28.2021C45.3778 28.2021 45.604 28.1013 45.79 27.9048C45.976 27.7032 46.0715 27.4714 46.0715 27.2143Z" fill="#0078C1"/>
<path d="M50.5053 28.8522H49.6808V27.0127C49.6808 26.4886 49.4747 26.2215 49.0625 26.2215C48.6202 26.2215 48.399 26.534 48.399 27.1639V28.8522H47.5746V25.5512H48.3688V25.9191C48.5699 25.6218 48.8665 25.4756 49.2586 25.4756C49.6708 25.4756 49.9825 25.5915 50.1936 25.8284C50.4047 26.0602 50.5103 26.3878 50.5103 26.8011V28.8522H50.5053Z" fill="#0078C1"/>
<path d="M51.0381 27.8241H51.8122C51.8122 28.1265 51.958 28.2777 52.2496 28.2777C52.521 28.2777 52.6568 28.1568 52.6568 27.9199C52.6568 27.7889 52.5713 27.6729 52.4004 27.5671C52.335 27.5318 52.1943 27.4714 51.9681 27.3806C51.7167 27.2849 51.5157 27.169 51.3598 27.0379C51.204 26.9069 51.1286 26.7204 51.1286 26.4685C51.1286 26.1661 51.2392 25.9191 51.4604 25.7276C51.6815 25.5361 51.9429 25.4353 52.2496 25.4353C52.9182 25.4353 53.2851 25.768 53.3555 26.4281H52.5814C52.5814 26.2165 52.4657 26.1106 52.2295 26.1106C52.0133 26.1106 51.9078 26.2114 51.9078 26.408C51.9078 26.4533 51.9178 26.4937 51.9329 26.5289C51.948 26.5642 51.9832 26.5945 52.0334 26.6297C52.139 26.7003 52.2999 26.786 52.521 26.8767C52.7372 26.9674 52.893 27.043 52.9885 27.1085C53.1494 27.2143 53.27 27.3504 53.3505 27.5167C53.4058 27.6276 53.4309 27.7586 53.4309 27.9199C53.4309 28.2626 53.3103 28.5247 53.074 28.701C52.8578 28.8573 52.5763 28.9379 52.2244 28.9379C51.8876 28.9379 51.6061 28.8321 51.3799 28.6254C51.1537 28.4239 51.0381 28.1568 51.0381 27.8241Z" fill="#0078C1"/>
<path d="M4.29298 35.1417H3.64954V31.9315H4.29298V35.1417Z" fill="#0078C1"/>
<path d="M6.99745 35.1418H6.41936V33.8516C6.41936 33.4837 6.27358 33.2972 5.98705 33.2972C5.67538 33.2972 5.52457 33.519 5.52457 33.9574V35.1367H4.94145V32.8285H5.49944V33.0856C5.64019 32.8789 5.85132 32.7731 6.12277 32.7731C6.40931 32.7731 6.63049 32.8537 6.77627 33.02C6.92205 33.1813 6.99745 33.4131 6.99745 33.7004V35.1418Z" fill="#0078C1"/>
<path d="M8.5558 33.2872H8.22905V35.1418H7.65096V33.2872H7.39961V32.8336H7.65096V32.0776H8.22905V32.8336H8.5558V33.2872Z" fill="#0078C1"/>
<path d="M10.5917 34.416H11.1798C10.9687 34.9452 10.5917 35.2073 10.0588 35.2073C9.70696 35.2073 9.4154 35.0913 9.18919 34.8595C8.96298 34.6277 8.85239 34.3354 8.85239 33.9826C8.85239 33.6399 8.968 33.3527 9.19422 33.1107C9.42043 32.8739 9.70696 32.7529 10.0488 32.7529C10.3102 32.7529 10.5364 32.8235 10.7375 32.9596C10.9335 33.0956 11.0793 33.2871 11.1648 33.5341C11.2201 33.6903 11.2502 33.8969 11.2502 34.164H9.4154C9.47572 34.5319 9.69188 34.7134 10.0639 34.7134C10.2046 34.7134 10.3152 34.6982 10.3856 34.663C10.4761 34.6226 10.5465 34.537 10.5917 34.416ZM10.6822 33.7457C10.6068 33.4182 10.4007 33.2569 10.0588 33.2569C9.72707 33.2569 9.51594 33.4182 9.42545 33.7457H10.6822Z" fill="#0078C1"/>
<path d="M12.8739 32.8285V33.4585C12.8337 33.4333 12.7533 33.4232 12.6226 33.4232C12.4114 33.4232 12.3008 33.5643 12.3008 33.8466V35.1418H11.7227V32.8336H12.2757V33.0957C12.3159 33.0201 12.3762 32.9545 12.4567 32.8941C12.5371 32.8336 12.6175 32.8033 12.6929 32.8033C12.7583 32.7983 12.8136 32.8084 12.8739 32.8285Z" fill="#0078C1"/>
<path d="M15.3773 35.1418H14.7992V33.8516C14.7992 33.4837 14.6534 33.2972 14.3669 33.2972C14.0552 33.2972 13.9044 33.519 13.9044 33.9574V35.1367H13.3213V32.8285H13.8793V33.0856C14.02 32.8789 14.2311 32.7731 14.5026 32.7731C14.7891 32.7731 15.0103 32.8537 15.1561 33.02C15.3019 33.1813 15.3773 33.4131 15.3773 33.7004V35.1418Z" fill="#0078C1"/>
<path d="M18.308 35.1417H17.745V34.8696C17.569 35.0913 17.3277 35.2022 17.0211 35.2022C16.6793 35.2022 16.4028 35.0863 16.1866 34.8494C15.9705 34.6126 15.8649 34.3253 15.8649 33.9776C15.8649 33.6349 15.9705 33.3476 16.1866 33.1107C16.3977 32.8739 16.6742 32.758 17.0161 32.758C17.3277 32.758 17.564 32.8638 17.7299 33.0755V32.8235H18.308V35.1417ZM17.745 33.9927C17.745 33.7961 17.6796 33.6298 17.5539 33.4887C17.4283 33.3526 17.2674 33.2821 17.0714 33.2821C16.8803 33.2821 16.7245 33.3526 16.6039 33.4887C16.4832 33.6248 16.4229 33.7911 16.4229 33.9776C16.4229 34.164 16.4882 34.3303 16.6139 34.4715C16.7396 34.6126 16.8954 34.6831 17.0814 34.6831C17.2624 34.6831 17.4182 34.6126 17.5489 34.4715C17.6796 34.3354 17.745 34.1741 17.745 33.9927Z" fill="#0078C1"/>
<path d="M19.8663 33.2872H19.5396V35.1418H18.9615V33.2872H18.7101V32.8336H18.9615V32.0776H19.5396V32.8336H19.8663V33.2872Z" fill="#0078C1"/>
<path d="M20.8616 35.1417H20.2835V32.8336H20.8616V35.1417ZM20.8415 32.3649H20.2936V31.8004H20.8415V32.3649Z" fill="#0078C1"/>
<path d="M23.8175 33.9725C23.8175 34.3354 23.7018 34.6327 23.4706 34.8595C23.2394 35.0863 22.9428 35.2022 22.5808 35.2022C22.2189 35.2022 21.9223 35.0863 21.6911 34.8545C21.4598 34.6227 21.3442 34.3304 21.3442 33.9675C21.3442 33.6147 21.4649 33.3275 21.7011 33.0956C21.9374 32.8688 22.234 32.7529 22.5859 32.7529C22.9377 32.7529 23.2343 32.8688 23.4706 33.0956C23.7018 33.3325 23.8175 33.6198 23.8175 33.9725ZM21.9273 33.9877C21.9273 34.1892 21.9877 34.3505 22.1033 34.4815C22.2189 34.6126 22.3798 34.673 22.5758 34.673C22.7769 34.673 22.9327 34.6075 23.0483 34.4815C23.164 34.3505 23.2243 34.1892 23.2243 33.9877C23.2243 33.781 23.164 33.6147 23.0483 33.4837C22.9327 33.3527 22.7719 33.2922 22.5708 33.2922C22.3697 33.2922 22.2139 33.3577 22.0983 33.4887C21.9877 33.6147 21.9273 33.781 21.9273 33.9877Z" fill="#0078C1"/>
<path d="M26.351 35.1418H25.7729V33.8516C25.7729 33.4837 25.6271 33.2972 25.3406 33.2972C25.0289 33.2972 24.8781 33.519 24.8781 33.9574V35.1367H24.3V32.8285H24.858V33.0856C24.9988 32.8789 25.2099 32.7731 25.4814 32.7731C25.7679 32.7731 25.9891 32.8537 26.1349 33.02C26.2806 33.1813 26.356 33.4131 26.356 33.7004V35.1418H26.351Z" fill="#0078C1"/>
<path d="M29.2817 35.1417H28.7237V34.8696C28.5477 35.0913 28.3065 35.2022 27.9998 35.2022C27.658 35.2022 27.3815 35.0863 27.1654 34.8494C26.9492 34.6126 26.8436 34.3253 26.8436 33.9776C26.8436 33.6349 26.9492 33.3476 27.1654 33.1107C27.3765 32.8739 27.653 32.758 27.9948 32.758C28.3065 32.758 28.5427 32.8638 28.7086 33.0755V32.8235H29.2867V35.1417H29.2817ZM28.7187 33.9927C28.7187 33.7961 28.6533 33.6298 28.5276 33.4887C28.402 33.3526 28.2411 33.2821 28.0451 33.2821C27.854 33.2821 27.6982 33.3526 27.5776 33.4887C27.4569 33.6248 27.3966 33.7911 27.3966 33.9776C27.3966 34.164 27.4619 34.3303 27.5876 34.4715C27.7133 34.6126 27.8691 34.6831 28.0551 34.6831C28.2361 34.6831 28.3919 34.6126 28.5226 34.4715C28.6533 34.3354 28.7187 34.1741 28.7187 33.9927Z" fill="#0078C1"/>
<path d="M30.453 35.1417H29.8749V31.7097H30.453V35.1417Z" fill="#0078C1"/>
<path d="M35.5452 34.1389C35.4195 34.4664 35.2235 34.7285 34.9571 34.92C34.6906 35.1115 34.384 35.2073 34.0321 35.2073C33.5596 35.2073 33.1625 35.046 32.8407 34.7235C32.519 34.4009 32.3582 34.0028 32.3582 33.5291C32.3582 33.0654 32.519 32.6723 32.8407 32.3548C33.1625 32.0373 33.5546 31.876 34.017 31.876C34.379 31.876 34.6957 31.9718 34.9671 32.1633C35.2386 32.3548 35.4296 32.6219 35.5452 32.9596H34.8414C34.6504 32.632 34.3739 32.4707 34.012 32.4707C33.7255 32.4707 33.4842 32.5766 33.2932 32.7832C33.1021 32.9898 33.0066 33.2368 33.0066 33.5291C33.0066 33.8214 33.1021 34.0733 33.2932 34.285C33.4892 34.5068 33.7305 34.6176 34.017 34.6176C34.384 34.6176 34.6555 34.4614 34.8314 34.1439H35.5452V34.1389Z" fill="#0078C1"/>
<path d="M38.4105 33.9725C38.4105 34.3354 38.2949 34.6327 38.0637 34.8595C37.8325 35.0863 37.5359 35.2022 37.1739 35.2022C36.812 35.2022 36.5154 35.0863 36.2842 34.8545C36.053 34.6227 35.9373 34.3304 35.9373 33.9675C35.9373 33.6147 36.058 33.3275 36.2942 33.0956C36.5305 32.8688 36.8271 32.7529 37.179 32.7529C37.5308 32.7529 37.8274 32.8688 38.0637 33.0956C38.2899 33.3325 38.4105 33.6198 38.4105 33.9725ZM36.5205 33.9877C36.5205 34.1892 36.5808 34.3505 36.6964 34.4815C36.812 34.6126 36.9729 34.673 37.1689 34.673C37.37 34.673 37.5258 34.6075 37.6414 34.4815C37.7571 34.3505 37.8174 34.1892 37.8174 33.9877C37.8174 33.781 37.7621 33.6147 37.6414 33.4837C37.5258 33.3527 37.365 33.2922 37.1639 33.2922C36.9628 33.2922 36.807 33.3577 36.6914 33.4887C36.5757 33.6147 36.5205 33.781 36.5205 33.9877Z" fill="#0078C1"/>
<path d="M42.2662 35.1418H41.6881V33.8314C41.6881 33.4686 41.5524 33.2871 41.2809 33.2871C41.0044 33.2871 40.8637 33.4887 40.8637 33.8869V35.1418H40.2956V33.9171C40.2956 33.4938 40.1599 33.2821 39.8884 33.2821C39.5969 33.2821 39.4511 33.4887 39.4511 33.902V35.1367H38.8831V32.8285H39.4209V33.0906C39.5567 32.8789 39.7628 32.7731 40.0393 32.7731C40.3409 32.7731 40.5621 32.9092 40.7028 33.1763C40.8436 32.9092 41.0848 32.7731 41.4267 32.7731C41.6881 32.7731 41.8942 32.8537 42.045 33.015C42.1908 33.1763 42.2662 33.3879 42.2662 33.655V35.1418Z" fill="#0078C1"/>
<path d="M45.2974 33.9977C45.2974 34.3253 45.1918 34.6126 44.9757 34.8495C44.7645 35.0863 44.4931 35.2073 44.1663 35.2073C43.8748 35.2073 43.6285 35.1014 43.4324 34.8948V36.1295H42.8543V32.8285H43.4174V33.1108C43.6084 32.884 43.8497 32.7681 44.1513 32.7681C44.4931 32.7681 44.7696 32.889 44.9857 33.1309C45.1969 33.3577 45.2974 33.65 45.2974 33.9977ZM44.7394 33.9877C44.7394 33.7911 44.6741 33.6248 44.5484 33.4887C44.4227 33.3527 44.2619 33.2872 44.0708 33.2872C43.8848 33.2872 43.734 33.3577 43.6084 33.4938C43.4827 33.6299 43.4224 33.7911 43.4224 33.9776C43.4224 34.1741 43.4827 34.3404 43.6033 34.4765C43.724 34.6126 43.8798 34.6831 44.0759 34.6831C44.2619 34.6831 44.4177 34.6126 44.5434 34.4715C44.6741 34.3354 44.7394 34.1741 44.7394 33.9877Z" fill="#0078C1"/>
<path d="M48.1275 35.1417H47.5695V34.8696C47.3936 35.0913 47.1523 35.2022 46.8457 35.2022C46.5038 35.2022 46.2274 35.0863 46.0112 34.8494C45.7951 34.6126 45.6895 34.3253 45.6895 33.9776C45.6895 33.6349 45.7951 33.3476 46.0112 33.1107C46.2223 32.8739 46.4988 32.758 46.8406 32.758C47.1523 32.758 47.3886 32.8638 47.5545 33.0755V32.8235H48.1326V35.1417H48.1275ZM47.5645 33.9927C47.5645 33.7961 47.4992 33.6298 47.3735 33.4887C47.2478 33.3526 47.087 33.2821 46.8909 33.2821C46.6999 33.2821 46.5441 33.3526 46.4234 33.4887C46.3028 33.6248 46.2424 33.7911 46.2424 33.9776C46.2424 34.164 46.3078 34.3303 46.4335 34.4715C46.5591 34.6126 46.715 34.6831 46.901 34.6831C47.0819 34.6831 47.2378 34.6126 47.3685 34.4715C47.4992 34.3354 47.5645 34.1741 47.5645 33.9927Z" fill="#0078C1"/>
<path d="M50.7717 35.1418H50.1936V33.8516C50.1936 33.4837 50.0478 33.2972 49.7613 33.2972C49.4496 33.2972 49.2988 33.519 49.2988 33.9574V35.1367H48.7207V32.8285H49.2787V33.0856C49.4194 32.8789 49.6306 32.7731 49.902 32.7731C50.1886 32.7731 50.4097 32.8537 50.5555 33.02C50.7013 33.1813 50.7767 33.4131 50.7767 33.7004V35.1418H50.7717Z" fill="#0078C1"/>
<path d="M53.446 32.8285L52.1893 36.1295H51.6061L52.0284 35.051L51.1437 32.8336H51.7368L52.3099 34.3656L52.8528 32.8336H53.446V32.8285Z" fill="#0078C1"/>
<path d="M3.71486 22.2905C3.79529 22.0033 3.90588 21.7261 4.03155 21.4489C4.1522 21.1717 4.29295 20.9046 4.43873 20.6426C4.74035 20.1184 5.08218 19.6094 5.46925 19.1357C5.66027 18.8988 5.86637 18.667 6.0775 18.4402C6.28863 18.2134 6.51484 18.0018 6.74608 17.7951C6.97732 17.5885 7.21358 17.3869 7.46492 17.1954C7.71124 17.0039 7.97264 16.8275 8.22901 16.6511C9.27963 15.9607 10.4408 15.4265 11.6523 15.0485C12.8638 14.6705 14.1205 14.4488 15.3773 14.3631C16.0056 14.3178 16.639 14.3026 17.2623 14.3178C17.8907 14.3329 18.514 14.3732 19.1374 14.4438C19.7607 14.5093 20.374 14.605 20.9873 14.7159C21.2889 14.7764 21.5955 14.8318 21.8971 14.9024L22.3496 15.0032L22.797 15.114C23.3952 15.2602 23.9883 15.4315 24.5765 15.613C24.8731 15.7037 25.1596 15.8045 25.4512 15.9002C25.7427 16.001 26.0293 16.1069 26.3158 16.2076L27.1251 16.4999C27.3915 16.5957 27.658 16.6915 27.9294 16.7822L28.7337 17.0543C29.0052 17.145 29.2716 17.2357 29.5431 17.3164C31.6996 18.0119 33.8762 18.6116 36.068 19.0651C37.1638 19.2869 38.2597 19.4834 39.3606 19.6145C40.4565 19.7556 41.5573 19.8362 42.6432 19.8513C43.734 19.8614 44.8148 19.8009 45.8704 19.6296C46.9261 19.4582 47.9516 19.171 48.9067 18.7224C49.8668 18.279 50.7515 17.6591 51.5106 16.8527C51.6061 16.7519 51.6966 16.6511 51.7871 16.5453C51.8826 16.4395 51.963 16.3286 52.0535 16.2177C52.144 16.1069 52.2244 15.9909 52.3099 15.8801C52.3953 15.7642 52.4707 15.6432 52.5512 15.5222C52.8679 15.0384 53.1343 14.5193 53.3856 13.9801C53.3303 15.1745 53.0237 16.3891 52.4356 17.5028C52.144 18.0622 51.777 18.5914 51.3598 19.0803C50.9375 19.5641 50.46 20.0126 49.9472 20.4057C48.9117 21.1919 47.7354 21.7715 46.5239 22.1797C45.3124 22.5879 44.0607 22.8348 42.8141 22.9759C40.3157 23.2481 37.8324 23.0919 35.4145 22.7139C32.9965 22.3309 30.6389 21.716 28.3567 20.9349C27.7836 20.7383 27.2156 20.5367 26.6526 20.32C26.3711 20.2142 26.0896 20.1033 25.8131 19.9925C25.6723 19.937 25.5366 19.8765 25.3959 19.8211L24.9837 19.6498C24.7223 19.5439 24.4659 19.4381 24.2045 19.3373C23.9431 19.2365 23.6867 19.1307 23.4253 19.0349C23.1639 18.9392 22.9025 18.8434 22.6411 18.7527C22.3797 18.662 22.1183 18.5713 21.8519 18.4856C20.7963 18.1479 19.7356 17.8506 18.6598 17.6389C18.3934 17.5784 18.1219 17.5331 17.8555 17.4877C17.7198 17.4625 17.5841 17.4474 17.4534 17.4222C17.3176 17.4021 17.1819 17.3819 17.0512 17.3617C16.5133 17.2861 15.9704 17.2408 15.4326 17.2105C14.8897 17.1853 14.3518 17.1753 13.8089 17.2005C13.271 17.2206 12.7331 17.271 12.1952 17.3466C11.1245 17.5028 10.0739 17.7851 9.05342 18.1882C8.80208 18.2941 8.54571 18.4049 8.29939 18.5259C8.04805 18.6418 7.80675 18.7728 7.56044 18.9089C7.31914 19.05 7.08288 19.1911 6.84662 19.3474C6.61035 19.5036 6.37911 19.6598 6.1529 19.8362C5.92669 20.0076 5.70551 20.189 5.48935 20.3755C5.2732 20.5619 5.06709 20.7585 4.85596 20.9601C4.44879 21.3683 4.05669 21.8067 3.71486 22.2905Z" fill="#0078C1"/>
<path d="M27.6529 12.9772C27.8942 13.0478 28.1355 13.1082 28.3768 13.1838L29.0957 13.4106C29.2163 13.4509 29.337 13.4862 29.4526 13.5265L29.8095 13.6475L30.5233 13.8894C30.9808 14.0507 31.4332 14.2119 31.8906 14.3631C32.3129 14.5042 32.7402 14.6403 33.1675 14.7764V4.68691L29.91 3.65378L26.6476 4.68691V12.7101C26.9844 12.7958 27.3212 12.8814 27.6529 12.9772Z" fill="#0078C1"/>
<path d="M33.263 14.8016C34.1829 15.0838 35.1028 15.3559 36.0328 15.5878C36.8723 15.8045 37.7168 16.001 38.5613 16.1673V6.91952L35.3039 5.88638L32.0465 6.91952V14.4135C32.4536 14.5496 32.8558 14.6806 33.263 14.8016Z" fill="#0078C1"/>
<path d="M38.8328 16.2227C40.4565 16.5402 42.0952 16.762 43.7239 16.8224V9.06637L40.4665 8.03323L37.2091 9.06637V15.875C37.752 16.001 38.2899 16.1169 38.8328 16.2227Z" fill="#0078C1"/>
<path d="M18.8006 11.6265C19.801 11.6417 20.8013 11.7173 21.8017 11.8231C22.797 11.939 23.7923 12.0801 24.7776 12.2817L25.1496 12.3523L25.5165 12.4329C25.7629 12.4883 26.0092 12.5387 26.2505 12.5942C26.4013 12.6345 26.5521 12.6698 26.7079 12.7101V5.85609C26.2505 5.77546 25.783 5.7301 25.3004 5.7301C21.6308 5.7301 18.5442 8.22979 17.6444 11.6265C18.0214 11.6165 18.4085 11.6165 18.8006 11.6265Z" fill="#FFC524"/>
<path d="M52.9835 11.2234C52.7774 12.191 52.4356 13.1133 51.9027 13.8843C51.3749 14.6554 50.6611 15.2652 49.8618 15.6886C49.4647 15.9053 49.0424 16.0816 48.6051 16.2228C48.1728 16.3639 47.7254 16.4747 47.2679 16.5554C46.8105 16.636 46.353 16.6965 45.8855 16.7318C45.418 16.767 44.9505 16.7822 44.483 16.7822C43.1107 16.7771 41.7283 16.6461 40.3509 16.4344L40.4716 8.02823L37.2141 9.06136V15.8196C36.822 15.7289 36.4249 15.6331 36.0328 15.5323C35.7463 15.4618 35.4648 15.3862 35.1833 15.3106L35.3089 5.88132L32.0515 6.91446V14.3631C31.9962 14.343 31.9409 14.3278 31.8856 14.3077C31.4282 14.1565 30.9757 13.9952 30.5183 13.8339L29.8045 13.592L29.7743 13.582L29.9 3.65378L26.6476 4.68691V12.6597C26.4968 12.6194 26.3409 12.5841 26.1901 12.5438C25.9488 12.4833 25.6975 12.4329 25.4562 12.3825L25.0892 12.3019L24.7173 12.2313C23.732 12.0297 22.7367 11.8886 21.7413 11.7727C20.746 11.6618 19.7457 11.5913 18.7403 11.5762C17.7399 11.556 16.7396 11.5812 15.7442 11.6568C14.7489 11.7324 13.7586 11.8584 12.7784 12.0499C12.2908 12.1457 11.8032 12.2565 11.3256 12.3825C10.848 12.5135 10.3705 12.6597 9.91304 12.8462C10.8883 12.7051 11.8685 12.6547 12.8437 12.6295C13.3313 12.6194 13.8189 12.6194 14.3015 12.6295L15.0304 12.6496C15.2717 12.6597 15.513 12.6698 15.7543 12.6849C16.7195 12.7403 17.6846 12.831 18.6397 12.952C19.1173 13.0125 19.5948 13.0881 20.0724 13.1586L20.7862 13.2796C21.0225 13.3199 21.2587 13.3703 21.495 13.4157C23.3851 13.7785 25.2451 14.2674 27.0698 14.852C27.9847 15.1443 28.8896 15.4668 29.7844 15.8045C30.7143 16.1623 31.6644 16.4848 32.6195 16.7922C33.5746 17.0946 34.5448 17.3567 35.5201 17.5936C36.4953 17.8254 37.4856 18.0219 38.4809 18.1832C38.9786 18.2588 39.4813 18.3243 39.9839 18.3797C40.2353 18.41 40.4866 18.4301 40.738 18.4553C40.9893 18.4755 41.2457 18.4906 41.497 18.5057C42.0048 18.5309 42.5125 18.5461 43.0202 18.5461C43.5279 18.541 44.0406 18.5209 44.5534 18.4805C45.0661 18.4402 45.5739 18.3797 46.0866 18.289C46.5943 18.1983 47.102 18.0925 47.5997 17.9413C48.0974 17.7901 48.59 17.6137 49.0675 17.392C49.5451 17.1652 50.0026 16.9031 50.4349 16.5907C50.8622 16.2732 51.2542 15.9153 51.5961 15.5071C51.9329 15.0989 52.2194 14.6554 52.4305 14.1817C52.8629 13.2393 53.0237 12.2112 52.9835 11.2234Z" fill="#023E83"/>
</svg>
