<svg width="14" height="16" viewBox="0 0 14 16" fill="none" xmlns="http://www.w3.org/2000/svg">
<path d="M5.08348 7.1026H7.73357C8.6643 7.1026 9.38899 6.89466 9.90764 6.4788C10.4263 6.06293 10.6856 5.42818 10.6856 4.57456C10.6856 3.97629 10.5151 3.52759 10.1741 3.22845C9.84014 2.92932 9.31083 2.77975 8.58615 2.77975H5.97869L5.08348 7.1026ZM4.51865 9.86047L3.25044 16H0L3.29307 0H8.93783C10.6217 0 11.8863 0.372093 12.7318 1.11628C13.5773 1.86047 14 2.95121 14 4.38851C14 5.54127 13.7052 6.53352 13.1155 7.36525C12.5258 8.18969 11.6767 8.80255 10.5684 9.20383L13.3499 16H9.81172L7.60568 9.86047H4.51865Z" fill="white"/>
</svg>
