<svg width="45" height="18" viewBox="0 0 45 18" fill="none" xmlns="http://www.w3.org/2000/svg">
<g clip-path="url(#clip0)">
<path d="M2.9328 17.5538C2.9963 17.3276 3.08361 17.1093 3.18282 16.891C3.27807 16.6727 3.38919 16.4624 3.50428 16.256C3.7424 15.8433 4.01226 15.4424 4.31784 15.0694C4.46865 14.8828 4.63136 14.7003 4.79804 14.5217C4.96473 14.3431 5.14331 14.1764 5.32587 14.0137C5.50842 13.851 5.69495 13.6922 5.89338 13.5414C6.08784 13.3906 6.29421 13.2517 6.49661 13.1128C7.32604 12.569 8.24279 12.1484 9.19922 11.8507C10.1557 11.553 11.1478 11.3784 12.14 11.3109C12.636 11.2752 13.1361 11.2633 13.6282 11.2752C14.1243 11.2871 14.6164 11.3189 15.1085 11.3744C15.6006 11.426 16.0848 11.5014 16.5689 11.5888C16.807 11.6364 17.0491 11.68 17.2872 11.7356L17.6444 11.815L17.9976 11.9023C18.4699 12.0174 18.9382 12.1523 19.4025 12.2952C19.6367 12.3666 19.8629 12.446 20.093 12.5214C20.3232 12.6008 20.5494 12.6841 20.7756 12.7635L21.4146 12.9937C21.6249 13.0691 21.8353 13.1445 22.0496 13.216L22.6845 13.4303C22.8988 13.5017 23.1092 13.5731 23.3235 13.6366C25.026 14.1843 26.7444 14.6566 28.4747 15.0138C29.3399 15.1884 30.205 15.3432 31.0742 15.4464C31.9393 15.5575 32.8084 15.621 33.6657 15.6329C34.5269 15.6409 35.3801 15.5932 36.2135 15.4583C37.0469 15.3234 37.8565 15.0971 38.6105 14.7439C39.3685 14.3947 40.067 13.9065 40.6663 13.2715C40.7417 13.1921 40.8131 13.1128 40.8846 13.0294C40.96 12.9461 41.0235 12.8588 41.0949 12.7714C41.1663 12.6841 41.2298 12.5929 41.2973 12.5055C41.3648 12.4143 41.4243 12.319 41.4878 12.2238C41.7378 11.8428 41.9481 11.434 42.1466 11.0093C42.1029 11.9499 41.8608 12.9064 41.3965 13.7835C41.1663 14.224 40.8766 14.6407 40.5472 15.0257C40.2139 15.4067 39.8368 15.7599 39.432 16.0695C38.6145 16.6886 37.6859 17.145 36.7294 17.4665C35.773 17.788 34.7848 17.9824 33.8006 18.0935C31.8282 18.3079 29.8677 18.1848 27.9588 17.8872C26.0499 17.5855 24.1886 17.1014 22.3869 16.4862C21.9345 16.3314 21.486 16.1727 21.0415 16.002C20.8193 15.9187 20.5971 15.8314 20.3788 15.744C20.2677 15.7004 20.1605 15.6528 20.0494 15.6091L19.724 15.4742C19.5176 15.3908 19.3152 15.3075 19.1088 15.2281C18.9025 15.1487 18.7001 15.0654 18.4937 14.99C18.2873 14.9146 18.081 14.8392 17.8746 14.7677C17.6682 14.6963 17.4619 14.6249 17.2515 14.5574C16.4181 14.2915 15.5807 14.0573 14.7315 13.8906C14.5211 13.843 14.3068 13.8073 14.0965 13.7716C13.9893 13.7517 13.8822 13.7398 13.779 13.72C13.6718 13.7041 13.5647 13.6882 13.4615 13.6724C13.0369 13.6128 12.6083 13.5771 12.1836 13.5533C11.755 13.5335 11.3304 13.5255 10.9018 13.5454C10.4771 13.5612 10.0525 13.6009 9.62783 13.6605C8.78252 13.7835 7.95308 14.0057 7.14746 14.3232C6.94903 14.4066 6.74663 14.4939 6.55217 14.5891C6.35374 14.6804 6.16324 14.7836 5.96878 14.8908C5.77829 15.0019 5.59176 15.113 5.40524 15.236C5.21872 15.3591 5.03616 15.4821 4.85757 15.621C4.67899 15.756 4.50437 15.8988 4.33372 16.0457C4.16307 16.1925 4.00035 16.3473 3.83367 16.506C3.51222 16.8275 3.20267 17.1728 2.9328 17.5538Z" fill="#0078C1"/>
<path d="M21.8313 10.2195C22.0218 10.2751 22.2122 10.3227 22.4027 10.3823L22.9703 10.5609C23.0655 10.5926 23.1608 10.6204 23.252 10.6521L23.5338 10.7474L24.0973 10.9379C24.4585 11.0649 24.8157 11.1919 25.1768 11.3109C25.5102 11.4221 25.8475 11.5292 26.1848 11.6364V3.69094L23.6132 2.87734L21.0375 3.69094V10.0092C21.3034 10.0767 21.5693 10.1441 21.8313 10.2195Z" fill="#0078C1"/>
<path d="M26.2603 11.6562C26.9865 11.8785 27.7128 12.0928 28.447 12.2754C29.1097 12.446 29.7764 12.6008 30.4432 12.7318V5.4491L27.8715 4.63551L25.2999 5.4491V11.3506C25.6213 11.4578 25.9388 11.561 26.2603 11.6562Z" fill="#0078C1"/>
<path d="M30.6575 12.7754C31.9393 13.0254 33.2331 13.2001 34.5189 13.2477V7.13977L31.9473 6.32617L29.3756 7.13977V12.5016C29.8042 12.6008 30.2289 12.6921 30.6575 12.7754Z" fill="#0078C1"/>
<path d="M14.8426 9.15591C15.6323 9.16782 16.4221 9.22735 17.2118 9.31069C17.9976 9.40198 18.7834 9.5131 19.5613 9.67185L19.8549 9.72741L20.1446 9.79091C20.3391 9.83457 20.5336 9.87426 20.7241 9.91791C20.8431 9.94966 20.9622 9.97744 21.0852 10.0092V4.61169C20.7241 4.54819 20.355 4.51247 19.974 4.51247C17.0769 4.51247 14.6402 6.48097 13.9298 9.15591C14.2275 9.14797 14.533 9.14797 14.8426 9.15591Z" fill="#FFC524"/>
<path d="M41.8291 8.83841C41.6664 9.60041 41.3965 10.3267 40.9759 10.9339C40.5592 11.5411 39.9956 12.0214 39.3646 12.3547C39.0511 12.5254 38.7177 12.6643 38.3725 12.7754C38.0312 12.8865 37.678 12.9739 37.3168 13.0374C36.9557 13.1009 36.5945 13.1485 36.2254 13.1763C35.8564 13.204 35.4873 13.2159 35.1182 13.2159C34.0348 13.212 32.9434 13.1088 31.856 12.9421L31.9513 6.32222L29.3796 7.13582V12.4579C29.07 12.3865 28.7565 12.3111 28.447 12.2317C28.2208 12.1761 27.9985 12.1166 27.7763 12.0571L27.8755 4.63153L25.3038 5.44513V11.3109C25.2602 11.2951 25.2165 11.2832 25.1729 11.2673C24.8117 11.1482 24.4546 11.0212 24.0934 10.8942L23.5299 10.7037L23.5061 10.6958L23.6053 2.87734L21.0376 3.69094V9.96951C20.9185 9.93776 20.7955 9.90997 20.6765 9.87822C20.486 9.8306 20.2875 9.79091 20.097 9.75122L19.8073 9.68772L19.5137 9.63216C18.7358 9.47341 17.95 9.36229 17.1642 9.27101C16.3785 9.18369 15.5887 9.12813 14.795 9.11622C14.0052 9.10035 13.2155 9.12019 12.4297 9.17972C11.6439 9.23925 10.8621 9.33847 10.0882 9.48929C9.70326 9.56469 9.31831 9.65201 8.94129 9.75122C8.56427 9.85441 8.18725 9.96951 7.82611 10.1163C8.59602 10.0052 9.3699 9.96554 10.1398 9.94569C10.5248 9.93776 10.9097 9.93776 11.2907 9.94569L11.8661 9.96157C12.0566 9.96951 12.2471 9.97744 12.4376 9.98935C13.1996 10.033 13.9616 10.1044 14.7156 10.1997C15.0926 10.2473 15.4696 10.3068 15.8467 10.3624L16.4102 10.4577C16.5967 10.4894 16.7833 10.5291 16.9698 10.5648C18.462 10.8506 19.9304 11.2355 21.371 11.6959C22.0932 11.9261 22.8076 12.1801 23.514 12.446C24.2482 12.7278 24.9983 12.9818 25.7523 13.2239C26.5063 13.462 27.2723 13.6684 28.0422 13.8549C28.8121 14.0375 29.5939 14.1923 30.3797 14.3193C30.7726 14.3788 31.1694 14.4304 31.5663 14.474C31.7647 14.4979 31.9632 14.5137 32.1616 14.5336C32.36 14.5494 32.5624 14.5614 32.7609 14.5733C33.1617 14.5931 33.5625 14.605 33.9633 14.605C34.3642 14.601 34.769 14.5852 35.1738 14.5534C35.5786 14.5217 35.9794 14.474 36.3842 14.4026C36.785 14.3312 37.1858 14.2478 37.5787 14.1288C37.9716 14.0097 38.3605 13.8708 38.7376 13.6962C39.1146 13.5176 39.4757 13.3112 39.817 13.0651C40.1544 12.8151 40.4639 12.5333 40.7338 12.2119C40.9997 11.8904 41.2259 11.5411 41.3926 11.1681C41.7339 10.4259 41.8609 9.61629 41.8291 8.83841Z" fill="#023E83"/>
</g>
<defs>
<clipPath id="clip0">
<rect width="45" height="18" fill="white"/>
</clipPath>
</defs>
</svg>
