<svg width="64" height="64" viewBox="0 0 64 64" fill="none" xmlns="http://www.w3.org/2000/svg">
<g clip-path="url(#clip0)">
<path d="M22.7207 23.2812C23.0493 23.2812 23.3716 23.1489 23.604 22.916C23.8369 22.6826 23.9707 22.3613 23.9707 22.0312C23.9707 21.7026 23.8369 21.3813 23.604 21.1475C23.3716 20.915 23.0493 20.7812 22.7207 20.7812C22.3916 20.7812 22.0693 20.915 21.8369 21.1475C21.604 21.3799 21.4707 21.7026 21.4707 22.0312C21.4707 22.3613 21.604 22.6826 21.8369 22.916C22.0693 23.1489 22.3916 23.2812 22.7207 23.2812Z" fill="#0C4982"/>
<path d="M27.2363 23.2812C27.5649 23.2812 27.8877 23.1489 28.1201 22.916C28.3525 22.6826 28.4863 22.3613 28.4863 22.0312C28.4863 21.7026 28.3525 21.3813 28.1201 21.1475C27.8877 20.915 27.5649 20.7812 27.2363 20.7812C26.9077 20.7812 26.585 20.915 26.3525 21.1475C26.1201 21.3813 25.9863 21.7026 25.9863 22.0312C25.9863 22.3613 26.1201 22.6826 26.3525 22.916C26.585 23.1489 26.9077 23.2812 27.2363 23.2812Z" fill="#0C4982"/>
<path d="M33.5586 23.2817H41.0854C41.7759 23.2817 42.3354 22.7222 42.3354 22.0317C42.3354 21.3413 41.7759 20.7817 41.0854 20.7817H33.5586C32.8682 20.7817 32.3086 21.3413 32.3086 22.0317C32.3086 22.7222 32.8682 23.2817 33.5586 23.2817Z" fill="url(#paint0_linear)"/>
<path d="M22.7207 30.7812C22.3916 30.7812 22.0693 30.915 21.8369 31.1475C21.604 31.3799 21.4707 31.7026 21.4707 32.0312C21.4707 32.3613 21.604 32.6826 21.8369 32.916C22.0693 33.1489 22.3916 33.2812 22.7207 33.2812C23.0493 33.2812 23.3716 33.1489 23.604 32.916C23.8369 32.6826 23.9707 32.3613 23.9707 32.0312C23.9707 31.7026 23.8369 31.3799 23.604 31.1475C23.3716 30.915 23.0493 30.7812 22.7207 30.7812Z" fill="#0C4982"/>
<path d="M27.2363 30.7812C26.9077 30.7812 26.585 30.915 26.3525 31.1475C26.1201 31.3799 25.9863 31.7026 25.9863 32.0312C25.9863 32.3613 26.1201 32.6826 26.3525 32.916C26.585 33.1489 26.9077 33.2812 27.2363 33.2812C27.5649 33.2812 27.8877 33.1489 28.1201 32.916C28.3525 32.6826 28.4863 32.3613 28.4863 32.0312C28.4863 31.7026 28.3525 31.3799 28.1201 31.1475C27.8877 30.915 27.5649 30.7812 27.2363 30.7812Z" fill="#0C4982"/>
<path d="M41.0854 30.7817H33.5586C32.8682 30.7817 32.3086 31.3413 32.3086 32.0317C32.3086 32.7222 32.8682 33.2817 33.5586 33.2817H41.0854C41.7759 33.2817 42.3354 32.7222 42.3354 32.0317C42.3354 31.3413 41.7759 30.7817 41.0854 30.7817Z" fill="url(#paint1_linear)"/>
<path d="M32.0156 60.125C32.3447 60.125 32.667 59.9912 32.8994 59.7588C33.1318 59.5264 33.2656 59.2036 33.2656 58.875C33.2656 58.5464 33.1318 58.2236 32.8994 57.9912C32.667 57.7588 32.3447 57.625 32.0156 57.625C31.687 57.625 31.3647 57.7588 31.1318 57.9912C30.8984 58.2236 30.7656 58.5464 30.7656 58.875C30.7656 59.2036 30.8984 59.5264 31.1318 59.7588C31.3647 59.9912 31.687 60.125 32.0156 60.125Z" fill="#0C4982"/>
<path d="M60.25 43.4585H54.625V37.0318C54.625 36.3413 54.0654 35.7818 53.375 35.7818H47.0508C47.1895 35.3907 47.2661 34.9702 47.2661 34.5318V33.2818H48.6372C54.2988 33.2818 58.9048 28.6782 58.9048 23.0196C58.9048 17.5152 54.5464 13.0093 49.0977 12.7681C47.6484 7.41995 43.6226 2.98782 38.3872 1.0596C37.7393 0.82083 37.0205 1.15286 36.7822 1.80081C36.5435 2.44876 36.8755 3.16702 37.5229 3.40579C42.2788 5.15726 45.8672 9.32278 46.8882 14.2769C47.0132 14.8843 47.564 15.3076 48.1841 15.2725C48.3574 15.2627 48.5015 15.2578 48.6372 15.2578C52.9199 15.2578 56.4048 18.7398 56.4048 23.0196C56.4048 27.2998 52.9199 30.7818 48.6372 30.7818H47.2656V29.5318C47.2656 28.5718 46.9028 27.6958 46.3081 27.0318C46.9028 26.3677 47.2656 25.4917 47.2656 24.5318V19.5318C47.2656 17.4639 45.5835 15.7818 43.5156 15.7818H20.5156C18.4482 15.7818 16.7656 17.4639 16.7656 19.5318V24.5318C16.7656 25.4917 17.1284 26.3677 17.7236 27.0318C17.1284 27.6958 16.7656 28.5718 16.7656 29.5318V30.7818H12.8071C9.93359 30.7818 7.59521 28.4453 7.59521 25.5738C7.59521 23.4434 8.87256 21.5489 10.8496 20.7471C11.4165 20.5171 11.7339 19.9112 11.5996 19.3145C11.5146 18.9356 11.4717 18.5503 11.4717 18.1685C11.4717 15.2969 13.8096 12.9605 16.6836 12.9605C16.8608 12.9605 17.0479 12.9707 17.2393 12.9912C17.8086 13.0513 18.3467 12.7168 18.5439 12.1792C20.0303 8.13528 23.1963 4.94827 27.231 3.43558C27.8774 3.19339 28.2051 2.47269 27.9624 1.8262C27.7202 1.17972 26.9995 0.852568 26.353 1.09476C21.9243 2.75491 18.3906 6.14114 16.5376 10.4619C12.3521 10.5401 8.97119 13.9673 8.97119 18.1685C8.97119 18.4014 8.98193 18.6343 9.00342 18.8677C6.60059 20.2232 5.09521 22.7593 5.09521 25.5738C5.09521 29.8238 8.55469 33.2818 12.8071 33.2818H16.7656V34.5318C16.7656 34.9702 16.8418 35.3907 16.981 35.7818H10.6567C9.96631 35.7818 9.40674 36.3413 9.40674 37.0318V45.5H5.23975C2.90186 45.5 1 47.4019 1 49.7398V56.5249C0.429688 56.6411 0 57.145 0 57.75V59.229C0 61.8599 2.14014 64 4.771 64H16.4712C19.1021 64 21.2422 61.8599 21.2422 59.229V57.75C21.2422 57.145 20.813 56.6411 20.2422 56.5249V49.7398C20.2422 47.4019 18.3403 45.5 16.0024 45.5H11.9067V38.2818H30.7661V46.5H28.6875C26.5166 46.5 24.75 48.2666 24.75 50.4375V60.0625C24.75 62.2334 26.5166 64 28.6875 64H35.3125C37.4834 64 39.25 62.2334 39.25 60.0625V50.4375C39.25 48.2666 37.4834 46.5 35.3125 46.5H33.2661V38.2818H52.125V43.4585H46.5C44.4321 43.4585 42.75 45.1407 42.75 47.2085V55.25C42.75 57.3179 44.4321 59 46.5 59H49.375V61.5H46.625C45.9346 61.5 45.375 62.0596 45.375 62.75C45.375 63.4405 45.9346 64 46.625 64H60.125C60.8154 64 61.375 63.4405 61.375 62.75C61.375 62.0596 60.8154 61.5 60.125 61.5H57.375V59H60.25C62.3179 59 64 57.3179 64 55.25V47.2085C64 45.1407 62.3179 43.4585 60.25 43.4585ZM18.7422 59.229C18.7422 60.4815 17.7236 61.5 16.4712 61.5H4.771C3.51855 61.5 2.5 60.4815 2.5 59.229V59H18.7422V59.229ZM17.7422 49.7398V56.5H3.5V49.7398C3.5 48.7803 4.28027 48 5.23975 48H16.0024C16.9619 48 17.7422 48.7803 17.7422 49.7398ZM36.75 50.4375V60.0625C36.75 60.855 36.105 61.5 35.3125 61.5H28.6875C27.895 61.5 27.25 60.855 27.25 60.0625V50.4375C27.25 49.645 27.895 49 28.6875 49H35.3125C36.105 49 36.75 49.645 36.75 50.4375ZM19.2661 19.5318C19.2661 18.8423 19.8267 18.2818 20.5161 18.2818H43.5161C44.2051 18.2818 44.7661 18.8423 44.7661 19.5318V24.5318C44.7661 25.2212 44.2051 25.7818 43.5161 25.7818H20.5161C19.8267 25.7818 19.2661 25.2212 19.2661 24.5318V19.5318ZM36.1875 35.7818H20.5161C19.8267 35.7818 19.2661 35.2212 19.2661 34.5318V29.5318C19.2661 28.8423 19.8267 28.2818 20.5161 28.2818H43.5161C44.2051 28.2818 44.7661 28.8423 44.7661 29.5318V34.5318C44.7661 35.2212 44.2051 35.7818 43.5161 35.7818H36.1875ZM54.875 61.5H51.875V59H54.875V61.5ZM61.5 55.25C61.5 55.9395 60.9395 56.5 60.25 56.5H46.5C45.8105 56.5 45.25 55.9395 45.25 55.25V47.2085C45.25 46.5191 45.8105 45.9585 46.5 45.9585H60.25C60.9395 45.9585 61.5 46.5191 61.5 47.2085V55.25Z" fill="url(#paint2_linear)"/>
<path d="M60.25 43.4585H54.625V37.0317C54.625 36.3413 54.0654 35.7817 53.375 35.7817H47.0508C47.1895 35.3906 47.2661 34.9702 47.2661 34.5317C47.2661 30.5715 47.2656 33.6562 47.2656 29.5317C47.2656 28.5718 46.9028 27.6958 46.3081 27.0317C46.9028 26.3677 47.2656 25.4917 47.2656 24.5317V19.5317C47.2656 17.4639 45.5835 15.7817 43.5156 15.7817H20.5156C18.4482 15.7817 16.7656 17.4639 16.7656 19.5317V24.5317C16.7656 25.4917 17.1284 26.3677 17.7236 27.0317C17.1284 27.6958 16.7656 28.5718 16.7656 29.5317C16.7656 33.7788 16.7656 30.5859 16.7656 34.5317C16.7656 34.9702 16.8418 35.3906 16.981 35.7817H10.6567C9.96631 35.7817 9.40674 36.3413 9.40674 37.0317V45.5H5.23975C2.90186 45.5 1 47.4019 1 49.7397V56.5249C0.429688 56.6411 0 57.145 0 57.75V59.229C0 61.8599 2.14014 64 4.771 64H16.4712C19.1021 64 21.2422 61.8599 21.2422 59.229V57.75C21.2422 57.145 20.813 56.6411 20.2422 56.5249V49.7397C20.2422 47.4019 18.3403 45.5 16.0024 45.5H11.9067V38.2817H30.7661V46.5H28.6875C26.5166 46.5 24.75 48.2666 24.75 50.4375V60.0625C24.75 62.2334 26.5166 64 28.6875 64H35.3125C37.4834 64 39.25 62.2334 39.25 60.0625V50.4375C39.25 48.2666 37.4834 46.5 35.3125 46.5H33.2661V38.2817H52.125V43.4585H46.5C44.4321 43.4585 42.75 45.1406 42.75 47.2085V55.25C42.75 57.3179 44.4321 59 46.5 59H49.375V61.5H46.625C45.9346 61.5 45.375 62.0596 45.375 62.75C45.375 63.4404 45.9346 64 46.625 64H60.125C60.8154 64 61.375 63.4404 61.375 62.75C61.375 62.0596 60.8154 61.5 60.125 61.5H57.375V59H60.25C62.3179 59 64 57.3179 64 55.25V47.2085C64 45.1406 62.3179 43.4585 60.25 43.4585ZM18.7422 59.229C18.7422 60.4814 17.7236 61.5 16.4712 61.5H4.771C3.51855 61.5 2.5 60.4814 2.5 59.229V59H18.7422V59.229ZM17.7422 49.7397V56.5H3.5V49.7397C3.5 48.7803 4.28027 48 5.23975 48H16.0024C16.9619 48 17.7422 48.7803 17.7422 49.7397ZM36.75 50.4375V60.0625C36.75 60.855 36.105 61.5 35.3125 61.5H28.6875C27.895 61.5 27.25 60.855 27.25 60.0625V50.4375C27.25 49.645 27.895 49 28.6875 49H35.3125C36.105 49 36.75 49.645 36.75 50.4375ZM19.2661 19.5317C19.2661 18.8423 19.8267 18.2817 20.5161 18.2817H43.5161C44.2051 18.2817 44.7661 18.8423 44.7661 19.5317V24.5317C44.7661 25.2212 44.2051 25.7817 43.5161 25.7817H20.5161C19.8267 25.7817 19.2661 25.2212 19.2661 24.5317V19.5317ZM36.1875 35.7817H20.5161C19.8267 35.7817 19.2661 35.2212 19.2661 34.5317V29.5317C19.2661 28.8423 19.8267 28.2817 20.5161 28.2817H43.5161C44.2051 28.2817 44.7661 28.8423 44.7661 29.5317V34.5317C44.7661 35.2212 44.2051 35.7817 43.5161 35.7817H36.1875ZM54.875 61.5H51.875V59H54.875V61.5ZM61.5 55.25C61.5 55.9395 60.9395 56.5 60.25 56.5H46.5C45.8105 56.5 45.25 55.9395 45.25 55.25V47.2085C45.25 46.519 45.8105 45.9585 46.5 45.9585H60.25C60.9395 45.9585 61.5 46.519 61.5 47.2085V55.25Z" fill="url(#paint3_linear)"/>
<path d="M32.418 2.5C32.7466 2.5 33.0693 2.36621 33.3018 2.13379C33.5342 1.90137 33.668 1.57861 33.668 1.25C33.668 0.921387 33.5342 0.598633 33.3018 0.366211C33.0693 0.133789 32.7466 0 32.418 0C32.0879 0 31.7666 0.133789 31.5342 0.366211C31.3003 0.598633 31.168 0.921387 31.168 1.25C31.168 1.57861 31.3003 1.90137 31.5342 2.13379C31.7666 2.36621 32.0894 2.5 32.418 2.5Z" fill="url(#paint4_linear)"/>
</g>
<defs>
<linearGradient id="paint0_linear" x1="37.322" y1="20.7817" x2="37.322" y2="23.2817" gradientUnits="userSpaceOnUse">
<stop stop-color="#0088DC"/>
<stop offset="1" stop-color="#0088DC"/>
</linearGradient>
<linearGradient id="paint1_linear" x1="37.322" y1="30.7817" x2="37.322" y2="33.2817" gradientUnits="userSpaceOnUse">
<stop stop-color="#0088DC"/>
<stop offset="1" stop-color="#0088DC"/>
</linearGradient>
<linearGradient id="paint2_linear" x1="31" y1="5" x2="28.8641" y2="13.5934" gradientUnits="userSpaceOnUse">
<stop stop-color="#0088DC"/>
<stop offset="1" stop-color="#0D4A83"/>
</linearGradient>
<linearGradient id="paint3_linear" x1="32" y1="45" x2="37.9477" y2="8.98215" gradientUnits="userSpaceOnUse">
<stop stop-color="#0088DC"/>
<stop offset="1" stop-color="#0D4A83"/>
</linearGradient>
<linearGradient id="paint4_linear" x1="32.418" y1="0" x2="32.418" y2="2.5" gradientUnits="userSpaceOnUse">
<stop stop-color="#0088DC"/>
<stop offset="1" stop-color="#0088DC"/>
</linearGradient>
<clipPath id="clip0">
<rect width="64" height="64" fill="white"/>
</clipPath>
</defs>
</svg>
