<svg width="15" height="12" viewBox="0 0 15 12" fill="none" xmlns="http://www.w3.org/2000/svg">
<path d="M9.94616 4.18651L9.94695 4.18662L13.6008 4.68595L13.6008 4.68598L13.606 4.68662C13.6278 4.68938 13.6424 4.69874 13.6503 4.70726C13.6501 4.70748 13.6498 4.70771 13.6496 4.70795L13.6495 4.70789L13.6432 4.71363L10.997 7.13447C10.7374 7.36759 10.6126 7.71848 10.6823 8.06771L11.3132 11.4684C11.3128 11.4692 11.3121 11.4704 11.3108 11.472C11.3063 11.478 11.2952 11.4877 11.2739 11.4914C11.248 11.4947 11.2219 11.4908 11.1993 11.481L7.95484 9.87196C7.64996 9.71678 7.28733 9.71675 6.98242 9.87186L3.71052 11.4914C3.69015 11.5008 3.66574 11.5027 3.64206 11.4958C3.62331 11.4904 3.61185 11.4816 3.60533 11.474C3.60533 11.4739 3.60533 11.4739 3.60534 11.4739L4.23858 8.06056C4.23858 8.06052 4.23859 8.06047 4.2386 8.06042C4.30272 7.71506 4.1798 7.368 3.92637 7.1347L3.92419 7.1327L1.26643 4.7149C1.26286 4.71128 1.26198 4.70913 1.2619 4.70894C1.26187 4.70889 1.26185 4.70884 1.26184 4.7088C1.26191 4.70862 1.26223 4.70793 1.26305 4.70677C1.2794 4.69562 1.2991 4.68705 1.32161 4.68258L4.96617 4.18462L4.96617 4.18466L4.97253 4.18371C5.30295 4.13422 5.6013 3.93618 5.76295 3.63164L5.76392 3.6298L7.39461 0.526465L7.39461 0.526467L7.39558 0.524613C7.39783 0.520276 7.40607 0.510023 7.42375 0.504505L7.42512 0.504073C7.44687 0.497213 7.47143 0.499319 7.4899 0.508102L7.4899 0.508107L7.49195 0.509073C7.50716 0.516219 7.51612 0.525813 7.52049 0.532909L9.14854 3.63119C9.14867 3.63143 9.14879 3.63167 9.14892 3.63192C9.30894 3.938 9.61016 4.14005 9.94616 4.18651Z" stroke="#676F9D" stroke-linecap="round" stroke-linejoin="round"/>
</svg>
