<svg width="15" height="12" viewBox="0 0 15 12" fill="none" xmlns="http://www.w3.org/2000/svg">
<path fill-rule="evenodd" clip-rule="evenodd" d="M7.95972 0.293887L9.59182 3.39989C9.67357 3.55655 9.83142 3.66589 10.0146 3.69122L13.6685 4.19055C13.8165 4.20922 13.9497 4.28255 14.0406 4.39455C14.2112 4.60455 14.1851 4.90189 13.9807 5.08255L11.3324 7.50522C11.1978 7.62522 11.1379 7.80122 11.1732 7.97255L11.8074 11.3912C11.8518 11.6746 11.6474 11.9399 11.3479 11.9859C11.2239 12.0039 11.0971 11.9852 10.9843 11.9326L7.72999 10.3186C7.5665 10.2346 7.37059 10.2346 7.2071 10.3186L3.9288 11.9412C3.65467 12.0732 3.31923 11.9752 3.16984 11.7212C3.11275 11.6186 3.09302 11.5019 3.11275 11.3879L3.74699 7.96922C3.7787 7.79855 3.7188 7.62322 3.58773 7.50255L0.925347 5.08055C0.708298 4.87655 0.706888 4.54455 0.923233 4.33922C0.923938 4.33855 0.924642 4.33722 0.925347 4.33655C1.01484 4.25989 1.12478 4.20855 1.24387 4.18855L4.89848 3.68922C5.081 3.66189 5.23815 3.55389 5.3213 3.39722L6.95199 0.293887C7.01753 0.167887 7.13381 0.0712201 7.27475 0.0272201C7.41639 -0.0174466 7.57143 -0.00677988 7.70462 0.0565534C7.81385 0.107887 7.90335 0.19122 7.95972 0.293887Z" fill="#676F9D"/>
</svg>
