<svg width="48" height="48" viewBox="0 0 48 48" fill="none" xmlns="http://www.w3.org/2000/svg">
<path d="M40.4616 7.99999C40.2494 7.85009 39.9777 7.81249 39.7328 7.89919C39.5623 7.96319 39.3821 7.99729 39.2 7.99999C38.3163 7.99999 37.6 7.28369 37.6 6.39999C37.6027 6.21789 37.6368 6.03769 37.7008 5.86719C37.8484 5.45069 37.6304 4.99349 37.2139 4.84589C37.1282 4.81549 37.038 4.79999 36.9472 4.79999H11.0528C10.611 4.80029 10.253 5.15859 10.2533 5.60049C10.2533 5.69139 10.2689 5.78159 10.2992 5.86719C10.3632 6.03769 10.3973 6.21789 10.4 6.39999C10.4 7.28369 9.68365 7.99999 8.79995 7.99999C8.61785 7.99729 8.43765 7.96319 8.26715 7.89919C7.85065 7.75159 7.39345 7.96959 7.24585 8.38609C7.21545 8.47179 7.19995 8.56199 7.19995 8.65279V21.7472C7.20025 22.189 7.55855 22.547 8.00045 22.5467C8.09135 22.5466 8.18155 22.5311 8.26715 22.5008C8.43765 22.4368 8.61785 22.4027 8.79995 22.4C9.68365 22.4 10.4 23.1163 10.4 24C10.3973 24.1821 10.3632 24.3623 10.2992 24.5328C10.1516 24.9493 10.3696 25.4065 10.7861 25.5541C10.8718 25.5845 10.962 25.6 11.0528 25.6H36.9472C37.389 25.5997 37.747 25.2414 37.7467 24.7995C37.7467 24.7086 37.7311 24.6184 37.7008 24.5328C37.6368 24.3623 37.6027 24.1821 37.6 24C37.6 23.1163 38.3163 22.4 39.2 22.4C39.3821 22.4027 39.5623 22.4368 39.7328 22.5008C40.1493 22.6484 40.6065 22.4304 40.7541 22.0139C40.7845 21.9282 40.8 21.838 40.8 21.7472V8.65279C40.7998 8.39319 40.6736 8.14979 40.4616 7.99999ZM39.2 20.8C37.4327 20.8 36 22.2327 36 24H12C12 22.2327 10.5673 20.8 8.79995 20.8V9.59999C10.5673 9.59999 12 8.16729 12 6.39999H36C36 8.16729 37.4327 9.59999 39.2 9.59999V20.8Z" fill="#F79F1A"/>
<path d="M43.2 1.59998H4.8C4.3582 1.59998 4 1.95818 4 2.39998V28C4 28.4418 4.3582 28.8 4.8 28.8H43.2C43.6418 28.8 44 28.4418 44 28V2.39998C44 1.95818 43.6418 1.59998 43.2 1.59998ZM42.4 27.2H5.6V3.19998H42.4V27.2Z" fill="#F79F1A"/>
<path d="M27.924 17.604C27.5451 15.7383 25.9038 14.3981 24 14.4C22.6745 14.4 21.6 13.3255 21.6 12C21.6 10.6745 22.6745 9.60001 24 9.60001C25.3255 9.60001 26.4 10.6745 26.4 12H28C27.9976 10.0999 26.6611 8.46271 24.8 8.08001V7.20001H23.2V8.08001C21.035 8.51961 19.6364 10.631 20.076 12.796C20.4549 14.6617 22.0962 16.0019 24 16C25.3255 16 26.4 17.0745 26.4 18.4C26.4 19.7255 25.3255 20.8 24 20.8C22.6745 20.8 21.6 19.7255 21.6 18.4H20C20.0024 20.3001 21.3389 21.9373 23.2 22.32V23.2H24.8V22.32C26.965 21.8804 28.3636 19.769 27.924 17.604Z" fill="#F79F1A"/>
<path d="M9.9016 39.7304C11.5307 38.2383 11.6419 35.7081 10.1498 34.079C8.6577 32.4499 6.1275 32.3387 4.4984 33.8308C2.8693 35.3229 2.7581 37.8531 4.2502 39.4822C4.3293 39.5685 4.4121 39.6513 4.4984 39.7304C1.7824 40.8322 0.004 43.469 0 46.4H1.6C1.6 43.3072 4.1072 40.8 7.2 40.8C10.2928 40.8 12.8 43.3072 12.8 46.4H14.4C14.396 43.469 12.6176 40.8322 9.9016 39.7304ZM7.2 39.2C5.8745 39.2 4.8 38.1255 4.8 36.8C4.8 35.4745 5.8745 34.4 7.2 34.4C8.5255 34.4 9.6 35.4745 9.6 36.8C9.6 38.1255 8.5255 39.2 7.2 39.2Z" fill="#F79F1A"/>
<path d="M43.5016 39.7304C45.1307 38.2383 45.2419 35.7081 43.7498 34.079C42.2577 32.4499 39.7275 32.3387 38.0984 33.8308C36.4693 35.3229 36.3581 37.8531 37.8502 39.4822C37.9293 39.5685 38.0121 39.6513 38.0984 39.7304C35.3824 40.8322 33.604 43.469 33.6 46.4H35.2C35.2 43.3072 37.7072 40.8 40.8 40.8C43.8928 40.8 46.4 43.3072 46.4 46.4H48C47.996 43.469 46.2176 40.8322 43.5016 39.7304ZM40.8 39.2C39.4745 39.2 38.4 38.1255 38.4 36.8C38.4 35.4745 39.4745 34.4 40.8 34.4C42.1255 34.4 43.2 35.4745 43.2 36.8C43.2 38.1255 42.1255 39.2 40.8 39.2Z" fill="#F79F1A"/>
<path d="M17.1313 37.6H18.4001V36H15.2001C14.7583 36.0001 14.4002 36.3583 14.4003 36.8002C14.4003 37.0123 14.4846 37.2156 14.6345 37.3656L17.8345 40.5656L18.9657 39.4344L17.1313 37.6Z" fill="#F79F1A"/>
<path d="M23.2 36H20V37.6H23.2V36Z" fill="#F79F1A"/>
<path d="M28 36H24.8V37.6H28V36Z" fill="#F79F1A"/>
<path d="M33.3656 36.2344L30.1656 33.0344L29.0344 34.1656L30.8688 36H29.6V37.6H32.8C33.2418 37.5999 33.5999 37.2417 33.5998 36.7998C33.5998 36.5878 33.5155 36.3844 33.3656 36.2344Z" fill="#F79F1A"/>
</svg>
