<svg width="48" height="48" viewBox="0 0 48 48" fill="none" xmlns="http://www.w3.org/2000/svg">
<path d="M47.2 0H0.8C0.3582 0 0 0.3582 0 0.8V39.2C0 39.6418 0.3582 40 0.8 40H20.08L20.72 46.4H17.6V48H30.4V46.4H27.28L27.92 40H47.2C47.6418 40 48 39.6418 48 39.2V0.8C48 0.3582 47.6418 0 47.2 0ZM25.68 46.4H22.328L21.688 40H26.32L25.68 46.4ZM46.4 38.4H27.2H1.6V33.6H46.4V38.4ZM46.4 32H1.6V13.8064C2.48 14.2616 3.136 15.4744 3.9448 17.1488C4.9528 19.2352 6.0952 21.6 8.5296 21.6C10.964 21.6 12.1072 19.2352 13.1152 17.1488C14.1504 15.0048 14.9296 13.6 16.2608 13.6C17.592 13.6 18.3712 15.0048 19.4072 17.1488C20.416 19.2352 21.5592 21.6 23.9944 21.6C26.4296 21.6 27.5728 19.2344 28.5808 17.148C29.6168 15.0048 30.3952 13.6 31.7264 13.6C33.0576 13.6 33.8376 15.0048 34.8744 17.1488C35.8832 19.2352 37.0272 21.6 39.4632 21.6C41.8992 21.6 43.0432 19.2352 44.052 17.1488C44.8616 15.4736 45.52 14.2608 46.4 13.8056V32ZM46.4 12.0952C44.5008 12.5512 43.5024 14.608 42.6112 16.4512C41.5752 18.5952 40.8 20 39.4632 20C38.1264 20 37.3512 18.5952 36.3152 16.4512C35.3056 14.3648 34.16 12 31.7264 12C29.2928 12 28.1488 14.3648 27.14 16.4512C26.1048 18.5952 25.3264 20 23.9944 20C22.6624 20 21.884 18.5952 20.848 16.452C19.84 14.3648 18.696 12 16.2608 12C13.8256 12 12.6832 14.3648 11.6744 16.4512C10.64 18.5952 9.8608 20 8.5296 20C7.1984 20 6.42 18.5952 5.3848 16.452C4.4944 14.6096 3.4976 12.5512 1.6 12.0952V1.6H46.4V12.0952Z" fill="#F79F1A"/>
<path d="M24 33.6C22.6745 33.6 21.6 34.6745 21.6 36C21.6 37.3255 22.6745 38.4 24 38.4C25.3255 38.4 26.4 37.3255 26.4 36C26.4 34.6745 25.3255 33.6 24 33.6ZM24 36.8C23.5582 36.8 23.2 36.4418 23.2 36C23.2 35.5582 23.5582 35.2 24 35.2C24.4418 35.2 24.8 35.5582 24.8 36C24.8 36.4418 24.4418 36.8 24 36.8Z" fill="#F79F1A"/>
<path d="M16 4C15.5582 4 15.2 4.3582 15.2 4.8V9.6H16.8V5.6H20.8V4H16Z" fill="#F79F1A"/>
<path d="M25.6 4H22.4V5.6H25.6V4Z" fill="#F79F1A"/>
<path d="M32 4H27.2V5.6H32V4Z" fill="#F79F1A"/>
<path d="M36.8 4H33.6V5.6H36.8V4Z" fill="#F79F1A"/>
<path d="M36.8 6.40002H18.4V8.00002H36.8V6.40002Z" fill="#F79F1A"/>
<path d="M38.4 24V28H34.4V29.6H39.2C39.6418 29.6 40 29.2418 40 28.8V24H38.4Z" fill="#F79F1A"/>
<path d="M32.8 28H29.6V29.6H32.8V28Z" fill="#F79F1A"/>
<path d="M28 28H23.2V29.6H28V28Z" fill="#F79F1A"/>
<path d="M34.4 23.2H23.2V24.8H34.4V23.2Z" fill="#F79F1A"/>
<path d="M28 25.6H23.2V27.2H28V25.6Z" fill="#F79F1A"/>
<path d="M34.4 25.6H29.6V27.2H34.4V25.6Z" fill="#F79F1A"/>
<path d="M23.2 8.79999H18.4V10.4H23.2V8.79999Z" fill="#F79F1A"/>
<path d="M29.6 8.79999H24.8V10.4H29.6V8.79999Z" fill="#F79F1A"/>
<path d="M6.40005 23.2H4.80005V24.8H6.40005V23.2Z" fill="#F79F1A"/>
<path d="M6.40005 25.6H4.80005V27.2H6.40005V25.6Z" fill="#F79F1A"/>
<path d="M6.40005 28H4.80005V29.6H6.40005V28Z" fill="#F79F1A"/>
<path d="M9.6 28H8V29.6H9.6V28Z" fill="#F79F1A"/>
<path d="M6.40005 4H4.80005V5.6H6.40005V4Z" fill="#F79F1A"/>
<path d="M9.6 4H8V5.6H9.6V4Z" fill="#F79F1A"/>
<path d="M6.40005 7.20001H4.80005V8.80001H6.40005V7.20001Z" fill="#F79F1A"/>
</svg>
