<svg width="48" height="48" viewBox="0 0 48 48" fill="none" xmlns="http://www.w3.org/2000/svg">
<path d="M27.2 17.6232H20.8C20.3582 17.6232 20 17.9814 20 18.4232V40.8232C20 41.265 20.3582 41.6232 20.8 41.6232H27.2C27.6418 41.6232 28 41.265 28 40.8232V18.4232C28 17.9813 27.6418 17.6232 27.2 17.6232ZM26.4 40.0232H21.6V19.2232H26.4V40.0232Z" fill="#F79F1A"/>
<path d="M46.4 14.4232H40C39.5582 14.4232 39.2 14.7814 39.2 15.2232V40.8232C39.2 41.265 39.5582 41.6232 40 41.6232H46.4C46.8418 41.6232 47.2 41.265 47.2 40.8232V15.2232C47.2 14.7813 46.8418 14.4232 46.4 14.4232ZM45.6 40.0232H40.8V16.0232H45.6V40.0232Z" fill="#F79F1A"/>
<path d="M36.8 32.0232H30.4C29.9582 32.0232 29.6 32.3814 29.6 32.8232V40.8232C29.6 41.265 29.9582 41.6232 30.4 41.6232H36.8C37.2418 41.6232 37.6 41.265 37.6 40.8232V32.8232C37.6 32.3813 37.2418 32.0232 36.8 32.0232ZM36 40.0232H31.2V33.6232H36V40.0232Z" fill="#F79F1A"/>
<path d="M8.00005 20.8232H1.60005C1.15825 20.8232 0.800049 21.1814 0.800049 21.6232V40.8232C0.800049 41.265 1.15825 41.6232 1.60005 41.6232H8.00005C8.44185 41.6232 8.80005 41.265 8.80005 40.8232V21.6232C8.80005 21.1813 8.44185 20.8232 8.00005 20.8232ZM7.20005 40.0232H2.40005V22.4232H7.20005V40.0232Z" fill="#F79F1A"/>
<path d="M17.6 25.6232H11.2C10.7582 25.6232 10.4 25.9814 10.4 26.4232V40.8232C10.4 41.265 10.7582 41.6232 11.2 41.6232H17.6C18.0418 41.6232 18.4 41.265 18.4 40.8232V26.4232C18.4 25.9813 18.0418 25.6232 17.6 25.6232ZM16.8 40.0232H12V27.2232H16.8V40.0232Z" fill="#F79F1A"/>
<path d="M43.2465 0.776941C41.4664 0.764141 40.013 2.19674 40.0002 3.97684C39.9937 4.87564 40.3628 5.73634 41.0185 6.35114L34.3785 18.5296C33.777 18.3631 33.1381 18.3926 32.5545 18.6136L26.3776 9.34405C27.5611 8.03155 27.4565 6.00804 26.1439 4.82464C24.8313 3.64124 22.8079 3.74574 21.6245 5.05834C20.755 6.02274 20.5544 7.41694 21.1168 8.58735L16.26 12.6296C14.9276 11.6577 13.0716 11.8752 12 13.1288L7.92723 11.092C8.29663 9.36375 7.19493 7.66324 5.46673 7.29394C3.73843 6.92454 2.03793 8.02614 1.66863 9.75445C1.29923 11.4827 2.40083 13.1832 4.12913 13.5525C4.34963 13.5996 4.57453 13.6233 4.80003 13.6232C5.72253 13.6202 6.59823 13.2168 7.20003 12.5176L11.2728 14.5545C10.8885 16.2795 11.9754 17.9895 13.7004 18.3738C15.4254 18.7581 17.1354 17.6712 17.5197 15.9462C17.676 15.2446 17.5916 14.511 17.28 13.8632L22.1368 9.82085C22.9739 10.4403 24.0667 10.5967 25.044 10.2368L31.2192 19.5065C30.0389 20.8219 30.1485 22.8451 31.464 24.0254C32.7794 25.2057 34.8026 25.0961 35.9829 23.7806C37.1487 22.4813 37.0581 20.4875 35.7793 19.2993L42.4193 7.12084C42.6743 7.18744 42.9366 7.22184 43.2001 7.22324C44.9802 7.23604 46.4336 5.80344 46.4464 4.02334C46.4592 2.24324 45.0265 0.789841 43.2465 0.776941ZM4.80003 12.0232C3.91633 12.0232 3.20003 11.3069 3.20003 10.4232C3.20003 9.53955 3.91633 8.82325 4.80003 8.82325C5.68373 8.82325 6.40003 9.53955 6.40003 10.4232C6.40003 11.3069 5.68373 12.0232 4.80003 12.0232ZM14.4 16.8232C13.5163 16.8232 12.8 16.1069 12.8 15.2232C12.8 14.3395 13.5163 13.6232 14.4 13.6232C15.2837 13.6232 16 14.3395 16 15.2232C16 16.1069 15.2837 16.8232 14.4 16.8232ZM24 8.82325C23.1163 8.82325 22.4 8.10695 22.4 7.22324C22.4 6.33954 23.1163 5.62324 24 5.62324C24.8837 5.62324 25.6 6.33954 25.6 7.22324C25.6 8.10695 24.8837 8.82325 24 8.82325ZM33.6 23.2233C32.7163 23.2233 32 22.507 32 21.6233C32 20.7396 32.7163 20.0233 33.6 20.0233C34.4837 20.0233 35.2 20.7396 35.2 21.6233C35.2 22.507 34.4837 23.2233 33.6 23.2233ZM43.2 5.62324C42.3163 5.62324 41.6 4.90694 41.6 4.02324C41.6 3.13954 42.3163 2.42324 43.2 2.42324C44.0837 2.42324 44.8 3.13954 44.8 4.02324C44.8 4.90694 44.0837 5.62324 43.2 5.62324Z" fill="#F79F1A"/>
<path d="M47.2 42.4232H0.8C0.3582 42.4232 0 42.7814 0 43.2232V46.4232C0 46.865 0.3582 47.2232 0.8 47.2232H47.2C47.6418 47.2232 48 46.865 48 46.4232V43.2232C48 42.7813 47.6418 42.4232 47.2 42.4232ZM46.4 45.6232H1.6V44.0232H46.4V45.6232Z" fill="#F79F1A"/>
</svg>
