<svg width="48" height="48" viewBox="0 0 48 48" fill="none" xmlns="http://www.w3.org/2000/svg">
<g clip-path="url(#clip0)">
<path d="M28.8013 35.2086C28.7636 35.2032 28.7256 35.2005 28.6876 35.2005H20.6879V29.9247L20.7775 29.8351L20.6879 29.7455V22.6258C21.4423 21.361 24.6877 15.8172 24.6877 13.6013C24.6877 11.3126 21.0511 1.61694 20.6367 0.518582C20.4812 0.105097 20.0198 -0.104095 19.6063 0.0513994C19.3905 0.132496 19.2202 0.30279 19.1392 0.518582C18.7248 1.61694 15.0881 11.3126 15.0881 13.6013C15.0881 15.8172 18.3336 21.361 19.088 22.6234V25.8696C18.3976 23.6721 17.4688 21.193 16.5576 20.2826C14.9393 18.6643 5.51166 14.3805 4.4421 13.8973C4.03932 13.7157 3.56564 13.8949 3.38394 14.2977C3.28975 14.5066 3.28965 14.7458 3.38374 14.9548C3.86372 16.0244 8.15156 25.4512 9.7699 27.0704C11.3882 28.6895 17.9608 30.3695 19.088 30.6486V35.2005H11.0883C10.6465 35.2005 10.2883 35.5586 10.2882 36.0003C10.2882 36.0565 10.2941 36.1126 10.3059 36.1676L12.7058 47.3672C12.7847 47.7363 13.1108 48 13.4882 48H27.0877C27.4856 48.0001 27.8231 47.7076 27.8796 47.3136L29.4796 36.114C29.5423 35.6768 29.2386 35.2714 28.8013 35.2086ZM12.6881 21.601V23.2009H11.0882V24.8009H13.4817L17.1495 28.4695C14.5616 27.7184 11.6649 26.7032 10.901 25.9392C9.98979 25.0281 7.57789 20.1962 5.74035 16.2532C9.68341 18.0931 14.5152 20.5026 15.4264 21.4138C16.1 22.0874 16.9695 24.4209 17.6807 26.7376L14.288 23.3449V21.601H12.6881ZM16.6879 13.6013C16.6879 12.3133 18.3999 7.19113 19.8878 3.10328C21.3758 7.19113 23.0877 12.3133 23.0877 13.6013C23.0877 14.6173 21.9093 17.1268 20.6878 19.3875V13.9325L22.0533 12.5669L20.9222 11.4358L19.8878 12.4701L18.8535 11.4358L17.7223 12.5669L19.0879 13.9325V19.3875C17.8663 17.1268 16.6879 14.6173 16.6879 13.6013ZM26.3941 46.4001H14.1352L12.0777 36.8004H27.7651L26.3941 46.4001Z" fill="#F79F1A"/>
<path d="M33.4872 12.8013C27.3018 12.8013 22.2876 17.8155 22.2876 24.0009C22.2876 30.1863 27.3018 35.2005 33.4872 35.2005C39.6725 35.2005 44.6867 30.1863 44.6867 24.0009C44.6801 17.8183 39.6698 12.8079 33.4872 12.8013ZM33.4872 33.6006C28.1855 33.6006 23.8875 29.3026 23.8875 24.0009C23.8875 18.6992 28.1855 14.4013 33.4872 14.4013C38.7889 14.4013 43.0868 18.6992 43.0868 24.0009C43.0811 29.3003 38.7866 33.5949 33.4872 33.6006Z" fill="#F79F1A"/>
<path d="M37.4113 26.4048C37.0325 24.5392 35.3911 23.199 33.4874 23.2009C32.162 23.2009 31.0875 22.1265 31.0875 20.801C31.0875 19.4756 32.162 18.4011 33.4874 18.4011C34.8129 18.4011 35.8873 19.4756 35.8873 20.801H37.4873C37.4849 18.901 36.1484 17.2639 34.2874 16.8812V16.0012H32.6874V16.8812C30.5225 17.3208 29.124 19.4321 29.5636 21.597C29.9425 23.4626 31.5837 24.8028 33.4874 24.8009C34.8129 24.8009 35.8873 25.8753 35.8873 27.2008C35.8873 28.5262 34.8129 29.6007 33.4874 29.6007C32.162 29.6007 31.0875 28.5262 31.0875 27.2008H29.4876C29.49 29.1008 30.8264 30.738 32.6874 31.1206V32.0006H34.2874V31.1206C36.4522 30.6811 37.8509 28.5697 37.4113 26.4048Z" fill="#F79F1A"/>
</g>
<defs>
<clipPath id="clip0">
<rect width="48" height="48" fill="white"/>
</clipPath>
</defs>
</svg>
