<svg width="58" height="52" viewBox="0 0 58 52" fill="none" xmlns="http://www.w3.org/2000/svg">
<path d="M47.69 43.0201C46.675 41.8959 45.8141 40.6415 45.13 39.2901C44.0493 37.1719 42.5555 35.2914 40.7368 33.7595C38.918 32.2276 36.811 31.0751 34.54 30.3701C32.5541 29.7561 30.476 29.4955 28.4 29.6001C29.911 29.5138 31.3988 30.0016 32.5652 30.966C33.7317 31.9303 34.4907 33.2998 34.69 34.8001C35.2363 38.0418 36.673 41.0678 38.8398 43.54C41.0065 46.0123 43.818 47.8334 46.96 48.8001C50.5529 49.9043 54.4029 49.8448 57.96 48.6301C53.9978 47.9839 50.3748 46.0049 47.69 43.0201Z" fill="white"/>
<path d="M22.0499 29.7999C22.5116 31.8283 23.3238 33.7606 24.4499 35.5099C23.6276 34.2397 23.3111 32.7075 23.5629 31.2155C23.8146 29.7234 24.6164 28.3799 25.8099 27.4499C28.3448 25.3531 30.2479 22.5938 31.3073 19.4793C32.3666 16.3648 32.5406 13.0174 31.8099 9.80986C30.9758 6.14056 28.9973 2.83136 26.1599 0.359863C27.5725 4.13596 27.6537 8.28127 26.3899 12.1099C25.9061 13.5553 25.2336 14.9305 24.3899 16.1999C23.0945 18.194 22.212 20.4277 21.7946 22.7688C21.3772 25.1099 21.4334 27.5109 21.9599 29.8299L22.0499 29.7999Z" fill="white"/>
<path d="M31.5999 35.9199C30.9196 37.2725 29.7531 38.318 28.3343 38.8465C26.9156 39.3751 25.3494 39.3477 23.9499 38.7699C20.8658 37.6141 17.521 37.3387 14.2894 37.9744C11.0577 38.6101 8.06651 40.132 5.65001 42.3699C2.89471 44.9331 1.02471 48.3052 0.309906 51.9999C2.87381 48.8877 6.4225 46.7429 10.3699 45.9199C11.8529 45.6164 13.3679 45.4988 14.8799 45.5699C17.2516 45.6928 19.6238 45.3393 21.8566 44.5304C24.0893 43.7214 26.1374 42.4734 27.8799 40.8599C29.4049 39.4437 30.6706 37.7719 31.6199 35.9199H31.5999Z" fill="white"/>
</svg>
