<svg width="57" height="57" viewBox="0 0 57 57" fill="none" xmlns="http://www.w3.org/2000/svg">
<path d="M47.9308 9.05279C44.0151 5.13649 39.026 2.4693 33.5944 1.3885C28.1628 0.307695 22.5327 0.861894 17.4161 2.98099C12.2995 5.10009 7.9262 8.68899 4.8493 13.2936C1.7724 17.8983 0.130096 23.312 0.130096 28.8501C0.130096 34.3882 1.7724 39.8019 4.8493 44.4066C7.9262 49.0112 12.2995 52.6001 17.4161 54.7192C22.5327 56.8383 28.1628 57.3925 33.5944 56.3117C39.026 55.2309 44.0151 52.5637 47.9308 48.6474C53.1808 43.3965 56.1301 36.2753 56.1301 28.8501C56.1301 21.4249 53.1808 14.3037 47.9308 9.05279ZM7.4326 19.3746C8.8435 16.2452 10.9341 13.4695 13.5525 11.2495C16.1708 9.0295 19.251 7.42089 22.569 6.54079C25.8871 5.66069 29.3596 5.5312 32.734 6.1617C36.1084 6.7922 39.2998 8.1668 42.0763 10.1856C35.2035 9.5365 26.5999 13.0492 19.6254 20.011C16.9931 22.639 14.763 25.6411 13.0072 28.9201C10.6191 26.0789 8.7338 22.8506 7.4326 19.3746ZM22.8708 51.8546C17.5564 50.4307 12.9238 47.1587 9.805 42.6262C6.6862 38.0938 5.2855 32.5979 5.8545 27.1255C8.7435 33.4001 16.0363 39.1019 25.6072 41.6474C29.1802 42.6166 32.8781 43.0456 36.5781 42.9201C35.3206 46.3985 33.4831 49.6389 31.1435 52.5037C28.3679 52.7845 25.5643 52.5559 22.8708 51.8292V51.8546ZM40.2945 25.2419C39.351 21.6528 37.8844 18.2221 35.9417 15.0601C39.5807 14.4123 43.3032 14.3865 46.9508 14.9837C48.5835 17.244 49.7871 19.785 50.5017 22.4801C51.928 27.7953 51.4121 33.4449 49.0466 38.4138C46.6811 43.3827 42.6212 47.3451 37.5963 49.5892C41.5672 43.9765 42.8399 34.7746 40.2945 25.2419Z" fill="white"/>
</svg>
