<svg width="73" height="67" viewBox="0 0 73 67" fill="none" xmlns="http://www.w3.org/2000/svg">
<path d="M70.8195 54.3772C70.2422 53.4583 69.4875 52.6636 68.5995 52.0397C67.7116 51.4158 66.7081 50.9752 65.6479 50.7435C61.5915 49.8001 58.0735 47.2894 55.8625 43.7601C53.6516 40.2307 52.9276 35.9697 53.8486 31.9082C54.2027 30.3384 54.0851 28.699 53.5105 27.1958C52.9359 25.6926 51.93 24.3927 50.6191 23.4594C49.3081 22.5261 47.7506 22.001 46.1421 21.9499C44.5337 21.8989 42.9461 22.3242 41.5786 23.1725C40.2111 24.0209 39.1248 25.2543 38.456 26.718C37.7873 28.1818 37.5659 29.8104 37.8198 31.3995C38.0736 32.9886 38.7914 34.4673 39.8829 35.6498C40.9743 36.8323 42.3909 37.666 43.9546 38.046C45.9776 38.5023 47.8906 39.3534 49.584 40.5505C51.2774 41.7475 52.7179 43.2671 53.8229 45.0219C54.9279 46.7768 55.6757 48.7325 56.0234 50.7769C56.3712 52.8213 56.312 54.9143 55.8493 56.9358C55.5753 58.239 55.6241 59.5894 55.9916 60.8693C56.3591 62.1492 57.0341 63.3198 57.9577 64.2792C58.8813 65.2385 60.0254 65.9574 61.2905 66.3732C62.5556 66.789 63.9031 66.889 65.2157 66.6647C66.5284 66.4404 67.7662 65.8984 68.8214 65.0861C69.8766 64.2737 70.717 63.2157 71.2696 62.0041C71.8221 60.7924 72.07 59.4641 71.9916 58.1348C71.9131 56.8054 71.5108 55.5154 70.8195 54.3772Z" fill="white"/>
<path d="M20.6144 45.3133C22.0429 46.0928 23.6716 46.4278 25.2917 46.2752C26.9119 46.1226 28.4494 45.4894 29.7072 44.4569C30.965 43.4243 31.8856 42.0395 32.3508 40.4802C32.8161 38.9208 32.8048 37.258 32.3184 35.7051C31.7019 33.7249 31.4823 31.6426 31.6722 29.5774C31.8621 27.5122 32.4576 25.5048 33.4249 23.6703C34.3921 21.8358 35.7119 20.2102 37.3086 18.8867C38.9053 17.5632 40.7475 16.568 42.7296 15.9579C44.2669 15.4764 45.6273 14.5509 46.6398 13.298C47.6523 12.0451 48.2716 10.5207 48.4197 8.91658C48.5679 7.31248 48.2383 5.70038 47.4724 4.28328C46.7065 2.86608 45.5385 1.70708 44.1155 0.952178C42.6924 0.197278 41.0779 -0.119921 39.4751 0.0406786C37.8722 0.201179 36.3526 0.832178 35.1075 1.85438C33.8624 2.87648 32.9475 4.24408 32.4778 5.78498C32.0082 7.32588 32.0048 8.97128 32.4681 10.5141C33.6843 14.4971 33.273 18.7998 31.3244 22.4803C29.3757 26.1608 26.0484 28.9194 22.0706 30.1524C20.5003 30.6078 19.1028 31.524 18.0591 32.7826C17.0154 34.0412 16.3735 35.5841 16.2166 37.2115C16.0598 38.839 16.3951 40.4761 17.1792 41.9108C17.9633 43.3456 19.16 44.5119 20.6144 45.2588V45.3133Z" fill="white"/>
<path d="M41.6273 43.9792C40.5416 44.0173 39.4745 44.2717 38.4883 44.7274C37.5021 45.1831 36.6168 45.8309 35.8841 46.6331C33.0416 49.6734 29.1109 51.4646 24.9515 51.6151C20.792 51.7656 16.7421 50.263 13.6873 47.436C12.898 46.6954 11.9694 46.1191 10.9554 45.7406C9.94151 45.3621 8.86241 45.189 7.78091 45.2313C6.44971 45.2941 5.15401 45.6818 4.00711 46.3605C2.86011 47.0392 1.89681 47.9883 1.20111 49.1249C0.505306 50.2616 0.0984058 51.5513 0.0157058 52.8814C-0.0668942 54.2116 0.177206 55.5417 0.726906 56.7558C1.27661 57.9698 2.11501 59.0309 3.16911 59.8464C4.22321 60.6619 5.4608 61.2069 6.774 61.434C8.0872 61.6611 9.43611 61.5634 10.7028 61.1493C11.9696 60.7352 13.1157 60.0174 14.0411 59.0584C15.4489 57.5342 17.1435 56.3027 19.0279 55.4345C20.9124 54.5663 22.9496 54.0783 25.0229 53.9987C27.0962 53.9191 29.1649 54.2492 31.1104 54.9703C33.0559 55.6915 34.84 56.7893 36.3605 58.201C37.3504 59.0955 38.5444 59.7337 39.838 60.0599C41.1317 60.3862 42.4855 60.3905 43.7812 60.0725C45.0769 59.7545 46.2748 59.1239 47.2704 58.2358C48.266 57.3477 49.0288 56.2291 49.4922 54.978C49.9555 53.7269 50.1052 52.3814 49.9283 51.059C49.7513 49.7367 49.253 48.4779 48.4769 47.3926C47.7009 46.3074 46.6709 45.4289 45.4768 44.8338C44.2827 44.2388 42.961 43.9453 41.6273 43.9792Z" fill="white"/>
</svg>
