<svg width="62" height="57" viewBox="0 0 62 57" fill="none" xmlns="http://www.w3.org/2000/svg">
<path d="M8.09 23.7598C7.6611 23.7624 7.2506 23.934 6.9474 24.2372C6.6441 24.5404 6.4726 24.951 6.47 25.3798V28.3798C6.438 28.7862 6.2539 29.1656 5.9546 29.4423C5.6552 29.719 5.2626 29.8726 4.855 29.8726C4.4473 29.8726 4.0547 29.719 3.7554 29.4423C3.456 29.1656 3.272 28.7862 3.24 28.3798V28.5798C3.24 28.1502 3.0693 27.7381 2.7655 27.4343C2.4617 27.1305 2.0496 26.9598 1.62 26.9598C1.1903 26.9598 0.778299 27.1305 0.474499 27.4343C0.170699 27.7381 0 28.1502 0 28.5798V55.1898C0 55.6195 0.170699 56.0315 0.474499 56.3353C0.778299 56.6392 1.1903 56.8098 1.62 56.8098C2.0496 56.8098 2.4617 56.6392 2.7655 56.3353C3.0693 56.0315 3.24 55.6195 3.24 55.1898V46.7498C3.2224 46.5271 3.2512 46.3031 3.3244 46.0919C3.3976 45.8808 3.5137 45.6871 3.6653 45.523C3.817 45.3589 4.001 45.228 4.2057 45.1384C4.4105 45.0489 4.6315 45.0026 4.855 45.0026C5.0784 45.0026 5.2995 45.0489 5.5042 45.1384C5.7089 45.228 5.8929 45.3589 6.0446 45.523C6.1963 45.6871 6.3124 45.8808 6.3856 46.0919C6.4588 46.3031 6.4875 46.5271 6.47 46.7498V51.9498C6.47 52.3795 6.6406 52.7915 6.9445 53.0953C7.2483 53.3991 7.6603 53.5698 8.09 53.5698C8.5196 53.5698 8.9317 53.3991 9.2355 53.0953C9.5393 52.7915 9.71 52.3795 9.71 51.9498V25.3598C9.7047 24.9336 9.5318 24.5267 9.2285 24.2272C8.9253 23.9277 8.5162 23.7598 8.09 23.7598ZM4.86 42.8698C4.6469 42.8712 4.4356 42.8302 4.2385 42.7492C4.0413 42.6683 3.8622 42.549 3.7115 42.3983C3.5608 42.2476 3.4415 42.0685 3.3606 41.8713C3.2797 41.6742 3.2387 41.4629 3.24 41.2498V33.9498C3.2224 33.727 3.2512 33.503 3.3244 33.2919C3.3976 33.0808 3.5137 32.8871 3.6653 32.723C3.817 32.5589 4.001 32.428 4.2057 32.3384C4.4105 32.2489 4.6315 32.2026 4.855 32.2026C5.0784 32.2026 5.2995 32.2489 5.5042 32.3384C5.7089 32.428 5.8929 32.5589 6.0446 32.723C6.1963 32.8871 6.3124 33.0808 6.3856 33.2919C6.4588 33.503 6.4875 33.727 6.47 33.9498V41.2498C6.4713 41.4621 6.4307 41.6725 6.3503 41.869C6.27 42.0655 6.1516 42.2442 6.002 42.3947C5.8523 42.5453 5.6744 42.6648 5.4785 42.7463C5.2825 42.8279 5.0723 42.8698 4.86 42.8698Z" fill="white"/>
<path d="M21.03 10.3599C20.8186 10.3599 20.6093 10.4016 20.4139 10.4825C20.2186 10.5634 20.0411 10.682 19.8916 10.8315C19.7421 10.981 19.6235 11.1585 19.5426 11.3538C19.4617 11.5491 19.42 11.7585 19.42 11.9699V33.1999C19.42 33.6296 19.2494 34.0416 18.9456 34.3454C18.6417 34.6493 18.2297 34.8199 17.8 34.8199C17.3704 34.8199 16.9583 34.6493 16.6545 34.3454C16.3507 34.0416 16.1801 33.6296 16.1801 33.1999V16.93C16.1976 16.7072 16.1688 16.4832 16.0956 16.2721C16.0224 16.0609 15.9064 15.8672 15.7547 15.7031C15.603 15.539 15.419 15.4081 15.2143 15.3185C15.0096 15.229 14.7885 15.1828 14.5651 15.1828C14.3416 15.1828 14.1206 15.229 13.9158 15.3185C13.7111 15.4081 13.5271 15.539 13.3754 15.7031C13.2237 15.8672 13.1076 16.0609 13.0344 16.2721C12.9612 16.4832 12.9325 16.7072 12.9501 16.93V43.5399C12.9325 43.7627 12.9612 43.9867 13.0344 44.1978C13.1076 44.409 13.2237 44.6026 13.3754 44.7667C13.5271 44.9308 13.7111 45.0618 13.9158 45.1514C14.1206 45.2409 14.3416 45.2871 14.5651 45.2871C14.7885 45.2871 15.0096 45.2409 15.2143 45.1514C15.419 45.0618 15.603 44.9308 15.7547 44.7667C15.9064 44.6026 16.0224 44.409 16.0956 44.1978C16.1688 43.9867 16.1976 43.7627 16.1801 43.5399V38.6899C16.1801 38.2603 16.3507 37.8482 16.6545 37.5444C16.9583 37.2406 17.3704 37.0699 17.8 37.0699C18.2297 37.0699 18.6417 37.2406 18.9456 37.5444C19.2494 37.8482 19.42 38.2603 19.42 38.6899V38.5399C19.452 38.9463 19.6361 39.3257 19.9354 39.6024C20.2348 39.8791 20.6274 40.0328 21.035 40.0328C21.4427 40.0328 21.8354 39.8791 22.1347 39.6024C22.434 39.3257 22.618 38.9463 22.65 38.5399V11.9199C22.637 11.4999 22.4603 11.1017 22.1576 10.8102C21.8549 10.5187 21.4502 10.3571 21.03 10.3599Z" fill="white"/>
<path d="M33.97 0C33.5403 0 33.1283 0.170699 32.8245 0.474499C32.5207 0.778299 32.35 1.1903 32.35 1.62V6.1C32.35 6.5296 32.1793 6.9417 31.8755 7.2455C31.5717 7.5493 31.1596 7.72 30.73 7.72C30.3003 7.72 29.8883 7.5493 29.5845 7.2455C29.2807 6.9417 29.11 6.5296 29.11 6.1V5.26C29.078 4.8536 28.8939 4.4742 28.5946 4.1975C28.2953 3.9208 27.9026 3.7672 27.495 3.7672C27.0874 3.7672 26.6947 3.9208 26.3954 4.1975C26.096 4.4742 25.912 4.8536 25.88 5.26V31.87C25.8625 32.0928 25.8912 32.3167 25.9644 32.5279C26.0376 32.739 26.1537 32.9327 26.3054 33.0968C26.457 33.2609 26.641 33.3918 26.8458 33.4814C27.0505 33.5709 27.2715 33.6172 27.495 33.6172C27.7185 33.6172 27.9395 33.5709 28.1442 33.4814C28.349 33.3918 28.533 33.2609 28.6846 33.0968C28.8363 32.9327 28.9524 32.739 29.0256 32.5279C29.0988 32.3167 29.1275 32.0928 29.11 31.87V11.63C29.11 11.2003 29.2807 10.7883 29.5845 10.4845C29.8883 10.1807 30.3003 10.01 30.73 10.01C31.1596 10.01 31.5717 10.1807 31.8755 10.4845C32.1793 10.7883 32.35 11.2003 32.35 11.63V28.23C32.35 28.6596 32.5207 29.0717 32.8245 29.3755C33.1283 29.6793 33.5403 29.85 33.97 29.85C34.3996 29.85 34.8117 29.6793 35.1155 29.3755C35.4193 29.0717 35.59 28.6596 35.59 28.23V1.62C35.5873 1.1912 35.4159 0.780602 35.1126 0.477402C34.8094 0.174102 34.3988 0.0026 33.97 0Z" fill="white"/>
<path d="M59.85 26.7499C59.4221 26.7526 59.0126 26.9244 58.711 27.2279C58.4093 27.5314 58.24 27.942 58.2401 28.3699V30.6799C58.2401 31.1096 58.0694 31.5216 57.7656 31.8254C57.4618 32.1292 57.0497 32.2999 56.6201 32.2999C56.1904 32.2999 55.7784 32.1292 55.4745 31.8254C55.1707 31.5216 55.0001 31.1096 55.0001 30.6799V24.1699C55.0001 23.7403 54.8294 23.3282 54.5256 23.0244C54.2218 22.7206 53.8097 22.5499 53.3801 22.5499C52.9504 22.5499 52.5384 22.7206 52.2346 23.0244C51.9307 23.3282 51.7601 23.7403 51.7601 24.1699V38.0799C51.7281 38.4863 51.544 38.8657 51.2447 39.1423C50.9453 39.419 50.5527 39.5727 50.145 39.5727C49.7374 39.5727 49.3448 39.419 49.0454 39.1423C48.7461 38.8657 48.562 38.4863 48.53 38.0799V16.7999C48.53 16.3703 48.3594 15.9582 48.0555 15.6544C47.7517 15.3506 47.3397 15.1799 46.91 15.1799C46.4804 15.1799 46.0683 15.3506 45.7645 15.6544C45.4607 15.9582 45.29 16.3703 45.29 16.7999V31.6499C45.3076 31.8727 45.2788 32.0967 45.2056 32.3078C45.1324 32.5189 45.0164 32.7126 44.8647 32.8767C44.713 33.0408 44.529 33.1718 44.3243 33.2613C44.1196 33.3509 43.8985 33.3971 43.675 33.3971C43.4516 33.3971 43.2305 33.3509 43.0258 33.2613C42.8211 33.1718 42.6371 33.0408 42.4854 32.8767C42.3337 32.7126 42.2177 32.5189 42.1445 32.3078C42.0713 32.0967 42.0425 31.8727 42.0601 31.6499V10.4799C42.0601 10.0503 41.8894 9.63816 41.5856 9.33436C41.2818 9.03056 40.8697 8.85986 40.4401 8.85986C40.0104 8.85986 39.5984 9.03056 39.2946 9.33436C38.9907 9.63816 38.8201 10.0503 38.8201 10.4799V37.0899C38.8201 37.5196 38.9907 37.9316 39.2946 38.2354C39.5984 38.5392 40.0104 38.7099 40.4401 38.7099C40.8697 38.7099 41.2818 38.5392 41.5856 38.2354C41.8894 37.9316 42.0601 37.5196 42.0601 37.0899V37.1799C42.0921 36.7735 42.2761 36.3941 42.5754 36.1174C42.8748 35.8408 43.2674 35.6871 43.675 35.6871C44.0827 35.6871 44.4753 35.8408 44.7747 36.1174C45.074 36.3941 45.258 36.7735 45.29 37.1799V43.4099C45.29 43.8395 45.4607 44.2516 45.7645 44.5554C46.0683 44.8592 46.4804 45.0299 46.91 45.0299C47.3397 45.0299 47.7517 44.8592 48.0555 44.5554C48.3594 44.2516 48.53 43.8395 48.53 43.4099V43.6099C48.5125 43.3871 48.5412 43.1631 48.6144 42.952C48.6876 42.7409 48.8038 42.5472 48.9554 42.3831C49.1071 42.219 49.2911 42.0881 49.4958 41.9985C49.7005 41.909 49.9216 41.8627 50.145 41.8627C50.3685 41.8627 50.5895 41.909 50.7943 41.9985C50.999 42.0881 51.183 42.219 51.3347 42.3831C51.4863 42.5472 51.6025 42.7409 51.6757 42.952C51.7489 43.1631 51.7776 43.3871 51.7601 43.6099V50.7799C51.7601 51.2096 51.9307 51.6216 52.2346 51.9254C52.5384 52.2292 52.9504 52.3999 53.3801 52.3999C53.8097 52.3999 54.2218 52.2292 54.5256 51.9254C54.8294 51.6216 55.0001 51.2096 55.0001 50.7799V36.2199C55.0001 35.7902 55.1707 35.3782 55.4745 35.0744C55.7784 34.7706 56.1904 34.5999 56.6201 34.5999C57.0497 34.5999 57.4618 34.7706 57.7656 35.0744C58.0694 35.3782 58.2401 35.7902 58.2401 36.2199V54.9799C58.2225 55.2027 58.2513 55.4267 58.3245 55.6378C58.3977 55.8489 58.5137 56.0426 58.6654 56.2067C58.8171 56.3708 59.0011 56.5017 59.2058 56.5913C59.4105 56.6808 59.6316 56.7271 59.855 56.7271C60.0785 56.7271 60.2995 56.6808 60.5043 56.5913C60.709 56.5017 60.893 56.3708 61.0447 56.2067C61.1964 56.0426 61.3125 55.8489 61.3857 55.6378C61.4589 55.4267 61.4876 55.2027 61.47 54.9799V28.3599C61.4674 27.932 61.2956 27.5225 60.9921 27.2208C60.6885 26.9192 60.278 26.7499 59.85 26.7499Z" fill="white"/>
</svg>
