<svg width="50" height="51" viewBox="0 0 50 51" fill="none" xmlns="http://www.w3.org/2000/svg">
<path d="M44.9497 1.5H38.8102C36.9158 1.5 35.38 3.0357 35.38 4.9302V11.0697C35.38 12.9642 36.9158 14.5 38.8102 14.5H44.9497C46.8442 14.5 48.38 12.9642 48.38 11.0697V4.9302C48.38 3.0357 46.8442 1.5 44.9497 1.5Z" fill="white"/>
<path d="M20.9068 14.8659H26.2981C28.529 14.9927 30.6512 15.8716 32.3184 17.3594L32.5206 17.5841C34.0161 19.2464 34.8962 21.3714 35.014 23.6044V28.9732C35.014 29.9085 35.3856 30.8056 36.047 31.467C36.7084 32.1284 37.6055 32.5 38.5409 32.5H44.8532C45.7885 32.5 46.6856 32.1284 47.347 31.467C48.0084 30.8056 48.38 29.9085 48.38 28.9732V22.6609C48.38 21.7255 48.0084 20.8285 47.347 20.1671C46.6856 19.5057 45.7885 19.1341 44.8532 19.1341H39.4843C37.2514 19.0162 35.1264 18.1361 33.464 16.6406L33.2394 16.4384C31.7486 14.7731 30.8692 12.6499 30.7459 10.4181V5.0268C30.7459 4.0915 30.3744 3.1944 29.713 2.533C29.0515 1.8716 28.1545 1.5 27.2191 1.5H20.9068C19.9714 1.5 19.0744 1.8716 18.413 2.533C17.7516 3.1944 17.38 4.0915 17.38 5.0268V11.3392C17.38 12.2745 17.7516 13.1715 18.413 13.8329C19.0744 14.4943 19.9714 14.8659 20.9068 14.8659Z" fill="white"/>
<path d="M45.8641 36.9669H40.5235C38.3004 36.8226 36.194 35.9003 34.5598 34.3556L33.959 33.7426C32.4776 32.0622 31.6057 29.9142 31.489 27.6571V22.2075C31.4831 21.2639 31.1132 20.3606 30.4593 19.6933C29.8053 19.026 28.9201 18.6485 27.9953 18.6426H22.6547C20.4499 18.5479 18.3442 17.682 16.6911 16.1903L16.0903 15.5772C14.6088 13.8969 13.737 11.7489 13.6202 9.4918V4.065C13.6202 3.1195 13.2521 2.2127 12.597 1.5441C11.9418 0.875602 11.0532 0.5 10.1266 0.5H3.8736C2.9471 0.5 2.05841 0.875602 1.40331 1.5441C0.748105 2.2127 0.380005 3.1195 0.380005 4.065V10.4455C0.380005 11.391 0.748105 12.2978 1.40331 12.9663C2.05841 13.6349 2.9471 14.0105 3.8736 14.0105H9.192C11.4377 14.1153 13.5777 15.0144 15.2447 16.5536L15.8455 17.1667C17.3223 18.85 18.1934 20.9962 18.3155 23.252V28.7017C18.3213 29.6453 18.6913 30.5486 19.3452 31.2158C19.9991 31.8831 20.8844 32.2606 21.8091 32.2666H27.1497C29.3372 32.4063 31.4146 33.2942 33.0467 34.787L33.6475 35.4001C35.1243 37.0834 35.9954 39.2297 36.1175 41.4855V46.9351C36.1233 47.8788 36.4933 48.782 37.1472 49.4493C37.8011 50.1166 38.6864 50.494 39.6111 50.5H45.8863C46.8111 50.494 47.6964 50.1166 48.3503 49.4493C49.0042 48.782 49.3742 47.8788 49.38 46.9351V40.5318C49.3741 39.5843 49.0011 38.6775 48.3424 38.0096C47.6837 37.3417 46.7927 36.9668 45.8641 36.9669Z" fill="white"/>
<path d="M10.6859 36.5H4.0741C2.0339 36.5 0.380005 38.0358 0.380005 39.9303V46.0698C0.380005 47.9643 2.0339 49.5 4.0741 49.5H10.6859C12.7261 49.5 14.38 47.9643 14.38 46.0698V39.9303C14.38 38.0358 12.7261 36.5 10.6859 36.5Z" fill="white"/>
<path d="M27.8532 36.134H22.4843C20.2514 36.0161 18.1264 35.1361 16.464 33.6406L16.2394 33.4384C14.7391 31.7613 13.8591 29.6206 13.7459 27.3732V21.9819C13.7348 21.0735 13.3736 20.2044 12.7375 19.5557C12.1014 18.9071 11.2395 18.5289 10.3314 18.5H3.9068C2.9714 18.5 2.0744 18.8716 1.413 19.533C0.751602 20.1944 0.380005 21.0914 0.380005 22.0268V28.3391C0.380005 29.2745 0.751602 30.1715 1.413 30.833C2.0744 31.4944 2.9714 31.8659 3.9068 31.8659H9.2981C11.529 31.9927 13.6512 32.8716 15.3184 34.3594L15.5206 34.584C17.0161 36.2464 17.8962 38.3714 18.014 40.6043V45.9731C18.014 46.4382 18.106 46.8986 18.2846 47.3279C18.4633 47.7573 18.7251 48.1471 19.055 48.4749C19.3848 48.8027 19.7763 49.062 20.2068 49.2379C20.6373 49.4138 21.0983 49.5029 21.5633 49.4999H27.8532C28.7885 49.4999 29.6856 49.1284 30.347 48.467C31.0084 47.8056 31.38 46.9085 31.38 45.9731V39.6608C31.38 38.7255 31.0084 37.8284 30.347 37.167C29.6856 36.5056 28.7885 36.134 27.8532 36.134Z" fill="white"/>
</svg>
